<svg width="24" height="24" viewBox="0 0 24 24" fill="none" xmlns="http://www.w3.org/2000/svg">
<path d="M16.7 9.34995C17.777 9.34995 18.65 8.47691 18.65 7.39995C18.65 6.323 17.777 5.44995 16.7 5.44995C15.623 5.44995 14.75 6.323 14.75 7.39995C14.75 8.47691 15.623 9.34995 16.7 9.34995Z" stroke="black"/>
<path d="M13.35 13.6499C14.533 14.1697 15.8582 14.2689 17.1055 13.9313C18.3527 13.5937 19.4469 12.8395 20.2062 11.794C20.9655 10.7485 21.3442 9.47463 21.2794 8.18412C21.2146 6.89362 20.7102 5.66413 19.85 4.69994C18.9866 3.72639 17.8138 3.08039 16.5296 2.8709C15.2453 2.6614 13.928 2.90123 12.8 3.54994C11.6786 4.20118 10.8111 5.21323 10.3389 6.42097C9.86667 7.6287 9.81772 8.96081 10.2 10.1999L2.75 18.4999V21.1999H5.8L6.15 19.0999L9.4 18.8999L9.65 16.1499L12.4 16.0999L13.3 13.6999" stroke="black"/>
</svg>
