<svg width="70" height="70" viewBox="0 0 70 70" fill="none" xmlns="http://www.w3.org/2000/svg">
<g clip-path="url(#clip0_1035_11948)">
<path d="M35 70C54.33 70 70 54.33 70 35C70 15.67 54.33 0 35 0C15.67 0 0 15.67 0 35C0 54.33 15.67 70 35 70Z" fill="#0052B4"/>
<path d="M34.9999 13.6953L36.1332 17.1829H39.8L36.8333 19.3382L37.9666 22.8258L34.9999 20.6703L32.0331 22.8258L33.1664 19.3382L30.1997 17.1829H33.8666L34.9999 13.6953Z" fill="#FFDA44"/>
<path d="M19.9357 19.9359L23.2033 21.6005L25.7962 19.0078L25.2224 22.6295L28.4898 24.2943L24.868 24.868L24.2943 28.4899L22.6295 25.2225L19.0078 25.7963L21.6007 23.2034L19.9357 19.9359Z" fill="#FFDA44"/>
<path d="M13.6958 34.9994L17.1834 33.8662V30.1992L19.3386 33.166L22.8263 32.0328L20.6706 34.9994L22.8263 37.9661L19.3386 36.833L17.1834 39.7996V36.1327L13.6958 34.9994Z" fill="#FFDA44"/>
<path d="M19.9357 50.0637L21.6005 46.7961L19.0078 44.2033L22.6296 44.7772L24.2942 41.5098L24.868 45.1316L28.4897 45.7053L25.2226 47.3701L25.7962 50.9918L23.2033 48.3989L19.9357 50.0637Z" fill="#FFDA44"/>
<path d="M34.9999 56.304L33.8665 52.8165H30.1997L33.1665 50.6611L32.0331 47.1738L34.9999 49.3291L37.9666 47.1738L36.8333 50.6611L39.8 52.8165H36.133L34.9999 56.304Z" fill="#FFDA44"/>
<path d="M50.0646 50.0637L46.7971 48.399L44.2041 50.9919L44.7779 47.3699L41.5107 45.7053L45.1324 45.1316L45.7061 41.5098L47.3708 44.7772L50.9925 44.2033L48.3996 46.7964L50.0646 50.0637Z" fill="#FFDA44"/>
<path d="M56.3045 34.9994L52.817 36.1327V39.7996L50.6616 36.8328L47.1743 37.9661L49.3297 34.9994L47.1743 32.0328L50.6617 33.166L52.817 30.1992V33.8663L56.3045 34.9994Z" fill="#FFDA44"/>
<path d="M50.0646 19.9357L48.3997 23.2033L50.9926 25.7962L47.3706 25.2222L45.7061 28.4897L45.1324 24.8679L41.5107 24.294L44.7779 22.6294L44.2041 19.0078L46.7972 21.6005L50.0646 19.9357Z" fill="#FFDA44"/>
</g>
<defs>
<clipPath id="clip0_1035_11948">
<rect width="70" height="70" fill="white"/>
</clipPath>
</defs>
</svg>
