<svg width="60" height="60" viewBox="0 0 60 60" fill="none" xmlns="http://www.w3.org/2000/svg">
<path fill-rule="evenodd" clip-rule="evenodd" d="M30 7.49695C28.9324 7.49695 27.8763 7.71681 26.8974 8.14282C25.9188 8.56873 25.0377 9.19218 24.3103 9.97314L9.58525 25.7481C8.24437 27.188 7.49922 29.0832 7.5 31.0506V47.975C7.5 49.1751 7.97674 50.3261 8.82534 51.1747C9.67395 52.0233 10.8249 52.5 12.025 52.5H47.975C49.1751 52.5 50.3261 52.0233 51.1747 51.1747C52.0233 50.3261 52.5 49.1751 52.5 47.975V31.05C52.5008 29.0826 51.7547 27.1869 50.4138 25.7471L35.6892 9.97256C34.9617 9.19158 34.0813 8.56873 33.1026 8.14282C32.1237 7.71681 31.0676 7.49695 30 7.49695ZM27.895 10.4351C28.5591 10.1461 29.2757 9.99695 30 9.99695C30.7243 9.99695 31.4409 10.1461 32.105 10.4351C32.7691 10.7242 33.3676 11.1479 33.8612 11.678L48.5859 27.4526C49.4953 28.4295 50.0006 29.7154 50 31.05V47.975C50 48.5121 49.7867 49.0272 49.4069 49.4069C49.0271 49.7867 48.5121 50 47.975 50H37.5V36.25C37.5 35.3217 37.1946 34.3955 36.6001 33.682C36 32.9619 35.1319 32.5 34.1667 32.5H25.8333C24.8681 32.5 24 32.9619 23.3999 33.682C22.8054 34.3955 22.5 35.3217 22.5 36.25V50H12.025C11.4879 50 10.9729 49.7867 10.5931 49.4069C10.2133 49.0272 10 48.5121 10 47.975L10 31.0494C9.99937 29.7148 10.5053 28.4288 11.4148 27.4519L26.1398 11.6769C26.6334 11.1469 27.2309 10.7242 27.895 10.4351ZM25.3205 35.2825C25.5018 35.0649 25.6935 35 25.8333 35H34.1667C34.3065 35 34.4982 35.0649 34.6795 35.2825C34.8664 35.5067 35 35.8522 35 36.25V50H25V36.25C25 35.8522 25.1336 35.5067 25.3205 35.2825Z" fill="url(#paint0_linear_304_625)"/>
<defs>
<linearGradient id="paint0_linear_304_625" x1="8.09113" y1="7.49695" x2="35.4684" y2="9.25127" gradientUnits="userSpaceOnUse">
<stop stop-color="#FFB81D"/>
<stop offset="1" stop-color="#FF681D"/>
</linearGradient>
</defs>
</svg>
