<svg width="50" height="50" viewBox="0 0 50 50" fill="none" xmlns="http://www.w3.org/2000/svg">
<path d="M25 2.08337L6.25 10.4167V22.9167C6.25 34.4792 14.25 45.2917 25 47.9167C35.75 45.2917 43.75 34.4792 43.75 22.9167V10.4167L25 2.08337ZM39.5833 22.9167C39.5833 32.3334 33.375 41.0209 25 43.6042C16.625 41.0209 10.4167 32.3334 10.4167 22.9167V13.125L25 6.64587L39.5833 13.125V22.9167ZM15.4375 24.1459L12.5 27.0834L20.8333 35.4167L37.5 18.75L34.5625 15.7917L20.8333 29.5209L15.4375 24.1459Z" fill="url(#paint0_linear_304_665)"/>
<defs>
<linearGradient id="paint0_linear_304_665" x1="6.74261" y1="2.08337" x2="29.5879" y2="3.2812" gradientUnits="userSpaceOnUse">
<stop stop-color="#FFB81D"/>
<stop offset="1" stop-color="#FF681D"/>
</linearGradient>
</defs>
</svg>
