<svg width="45" height="41" viewBox="0 0 45 41" fill="none" xmlns="http://www.w3.org/2000/svg">
<path d="M22.4998 26.0208C23.7195 26.0208 24.7082 25.0321 24.7082 23.8125V16.0833C24.7082 14.8637 23.7195 13.875 22.4998 13.875C21.2802 13.875 20.2915 14.8637 20.2915 16.0833V23.8125C20.2915 25.0321 21.2802 26.0208 22.4998 26.0208Z" fill="#DC0A0A"/>
<path d="M22.4998 33.75C23.7195 33.75 24.7082 32.7613 24.7082 31.5417C24.7082 30.322 23.7195 29.3333 22.4998 29.3333C21.2802 29.3333 20.2915 30.322 20.2915 31.5417C20.2915 32.7613 21.2802 33.75 22.4998 33.75Z" fill="#DC0A0A"/>
<path fill-rule="evenodd" clip-rule="evenodd" d="M21.0733 1.00468C21.5076 0.755905 21.9993 0.625 22.4998 0.625C23.0003 0.625 23.4921 0.755883 23.9264 1.00468C24.3607 1.25349 24.7224 1.61152 24.9755 2.04316L24.9847 2.05882L44.2119 36.1093C44.4565 36.5406 44.5848 37.0288 44.5832 37.5248C44.5816 38.0208 44.4505 38.5079 44.2029 38.9379C43.9552 39.3678 43.5995 39.7256 43.1711 39.9757C42.7427 40.2259 42.2564 40.3599 41.7602 40.3643L41.7504 40.3643H3.23944C2.74332 40.3599 2.25698 40.2259 1.82856 39.9757C1.4001 39.7255 1.04452 39.3677 0.796893 38.9379C0.549278 38.508 0.418115 38.0209 0.416519 37.5248C0.414923 37.029 0.542727 36.5415 0.787217 36.1103L20.0151 2.05889L20.9766 2.6018L20.0241 2.04316C20.2774 1.61142 20.6391 1.25343 21.0733 1.00468ZM21.9325 3.15454L2.70953 37.1972L2.70835 37.1993C2.65326 37.2964 2.62448 37.4061 2.62484 37.5177C2.6252 37.6292 2.65469 37.7388 2.71041 37.8355C2.76612 37.9322 2.84604 38.0126 2.94223 38.0688C3.03742 38.1244 3.1453 38.1544 3.25542 38.156H41.7443C41.8544 38.1544 41.9623 38.1244 42.0574 38.0688C42.1537 38.0125 42.2337 37.9321 42.2893 37.8355C42.345 37.7389 42.3745 37.6294 42.3748 37.5177C42.3752 37.4061 42.3464 37.2964 42.2913 37.1993L42.2901 37.1972L23.0672 3.15454C23.0089 3.0575 22.9268 2.97706 22.8287 2.92086C22.7286 2.86351 22.6152 2.83333 22.4998 2.83333C22.3845 2.83333 22.2712 2.86349 22.171 2.92086C22.0728 2.97711 21.9907 3.0576 21.9325 3.15454Z" fill="#DC0A0A"/>
</svg>
