<svg width="29" height="29" viewBox="0 0 29 29" fill="none" xmlns="http://www.w3.org/2000/svg">
<path d="M14.8234 3.28125C8.4037 3.28125 3.19348 8.49147 3.19348 14.9112C3.19348 21.331 8.4037 26.5412 14.8234 26.5412C21.2432 26.5412 26.4534 21.331 26.4534 14.9112C26.4534 8.49147 21.2432 3.28125 14.8234 3.28125ZM14.8234 24.2152C9.69463 24.2152 5.51947 20.04 5.51947 14.9112C5.51947 9.7824 9.69463 5.60724 14.8234 5.60724C19.9523 5.60724 24.1274 9.7824 24.1274 14.9112C24.1274 20.04 19.9523 24.2152 14.8234 24.2152ZM20.1616 9.77077L12.4975 17.4349L9.48529 14.4344L7.84547 16.0742L12.4975 20.7262L21.8014 11.4222L20.1616 9.77077Z" fill="#F5F5F5"/>
</svg>
