<?xml version="1.0" encoding="UTF-8"?>
<svg id="Layer_2" data-name="Layer 2" xmlns="http://www.w3.org/2000/svg" viewBox="0 0 2487.2 1665.65">
  <defs>
    <style>
      .cls-1 {
        fill: #011124;
      }

      .cls-2 {
        fill: #69abc2;
      }

      .cls-3 {
        fill: #ecbc8c;
      }

      .cls-4 {
        fill: #fff;
      }

      .cls-5 {
        fill: #934624;
      }

      .cls-6 {
        fill: #849fb0;
      }

      .cls-7 {
        fill: #bff0ff;
      }

      .cls-8 {
        fill: #c4e8ff;
      }

      .cls-9 {
        fill: #dcedf7;
      }

      .cls-10 {
        fill: #d58548;
      }

      .cls-11 {
        fill: #dbf6ff;
      }

      .cls-12 {
        fill: #3a85b5;
      }

      .cls-13 {
        fill: #82ceff;
      }
    </style>
  </defs>
  <g id="Layer_1-2" data-name="Layer 1">
    <g>
      <g>
        <path class="cls-7" d="M2194.21,268.2c24.17,0,47.64-6.12,67.86-17.69l.22-.14c.72-.45,1.53-.67,2.35-.67s1.63,.22,2.35,.67c12.15,7.59,28.66,12.79,45.28,14.27,2.68,.24,5.41,.36,8.12,.36,18.13,0,36.63-5.42,52.09-15.25,7.92-5.04,16.96-7.71,26.12-7.71,4.91,0,9.75,.77,14.39,2.29,7.5,2.46,14.77,3.7,21.62,3.7,6.14,0,12.03-1.01,17.5-3,18.71-6.8,30.45-21.85,30.63-39.27,.21-20.18-13.47-38.51-26.35-48.94-14.86-12.04-33.46-18.67-52.36-18.67-8.53,0-16.98,1.31-25.12,3.9-2.69,.86-5.48,1.29-8.29,1.29-9.53,0-18.33-4.88-23.55-13.05-10.57-16.55-27.12-28.19-45.43-31.94-4.69-.96-9.59-1.45-14.54-1.45-1.54,0-3.11,.05-4.66,.14-.59,.04-1.18,.05-1.77,.05-9.61,0-18.34-4.66-23.37-12.47-4.08-6.35-9.03-12.01-14.71-16.84-17.43-14.82-40.34-23.32-62.84-23.32-2.47,0-4.95,.1-7.39,.31h-.16c-1.17,.11-2.35,.16-3.51,.16-10.35,0-19.96-3.84-27.07-10.8-8.47-8.3-18.31-14.89-29.23-19.59-15.39-6.61-32.56-10.11-49.66-10.11-13.23,0-25.92,2.05-37.71,6.11-14.57,5.01-26.85,13.23-34.6,23.15-7.77,9.95-18.71,16.49-30.81,18.41-7.29,1.16-14.42,4.19-20.64,8.77-13.26,9.77-21.87,23.9-23.6,38.77-.03,.24-.05,.48-.08,.71-1.06,10.91-5.97,21.44-13.85,29.62-2.33,2.43-4.47,5.04-6.35,7.77-4.66,6.76-12.17,10.97-20.09,11.25-9.95,.35-19.79,3.57-27.7,9.04-11.64,8.06-18.76,19.85-20.05,33.2-1.27,13.18,3.6,27.83,12.71,38.23,9.82,11.21,24.33,17.38,40.85,17.38h0c4.82,0,9.69-.54,14.46-1.61,3.34-.75,6.78-1.13,10.23-1.13,9.17,0,18.31,2.65,26.42,7.67,8.85,5.47,18.95,8.53,29.2,8.86,.58,.02,1.16,.03,1.74,.03,8.45,0,17.06-1.99,24.88-5.76,6.34-3.05,13.45-4.66,20.56-4.66s13.77,1.5,20.04,4.32c10,4.51,21.21,6.89,32.41,6.89,11.23,0,22.5-2.4,32.59-6.93,6.44-2.89,13.28-4.36,20.32-4.36s14.76,1.68,21.42,4.87c18.03,8.61,38.46,13.16,59.09,13.16Z"/>
        <g>
          <path class="cls-2" d="M2334.89,147.94c9.22-5.4,19.55,.74,24.08,9.21,.69,1.28,1.24,2.59,1.72,3.93,2.31-5.56,6.18-9.9,12.29-10.4,3.81-.31,6.46,2.78,7.74,5.89,2.49,6.03-2.67,11.93-3.48,17.92-.71,5.29,.24,10.98,2.83,15.64,5.72,10.27,15.56,13.29,26.61,13.67,12.66,.43,26.95,4.57,29.56,18.9,1.23,6.74-1.68,13.67-7.75,17.05-4.9,2.73-12.71,2.1-15.48-3.33-.24-.47-.4-.95-.53-1.45-.3-.05-.61-.11-.92-.2-2.12-.62-4.16-1.48-6.29-2.08-2.75-.78-3.98-.61-6.55-1.26-1.44-.36-2.69-1.13-3.69-2.14-1.12,6.41-9.61,9.26-14.01,5.34-2.11,5.11-6.04,9.34-11.64,10.89-8.12,2.25-13.52-7.85-8.01-13.76,5.38-5.77,2.15-11.29-3.06-16.1-6.64-6.14-14.76-10.3-20.52-17.44-5.72-7.09-9.48-15.39-10.8-24.41-1.31-9.04-.97-20.65,7.91-25.86Z"/>
          <path class="cls-2" d="M2262.75,157.48c-3.45-5.83-9.07-9.91-12.27-15.86-1.55-2.89-.72-5.77,1.26-7.51-3.2-7.9-3.52-17.26,2.8-23.51,4.22-4.17,10.08,.2,9.23,5.37-1.05,6.47-.35,12.1,3.83,17.41,4.17,5.3,10.03,9.26,15.28,13.4,8.94,7.05,22.15,20.74,16.56,33.43-2.96,6.72-10.41,8.7-16.95,6.23-5.68-2.15-9.85-7.2-12.45-12.54-2.64-5.4-4.21-11.24-7.29-16.44Z"/>
          <path class="cls-2" d="M2228.85,193.95c9.78-3.86,20.54-.05,27.41,7.5,3.59,3.94,6.25,8.49,8.65,13.22,2.58,5.06,6.49,10.28,8.05,15.7,2.04,7.1-6.05,13.08-12.33,9.48-.74-.43-1.42-.92-2.06-1.43-.75,1.25-1.81,2.33-3.24,3.12-.34,.19-.56,.32-.7,.39-.54,.83-1.05,1.7-1.74,2.42-1.84,1.9-4.26,3.1-6.87,3.46-2.22,.31-4.29-.08-6.09-.96-2.92,6.9-11,12.51-18.09,7.77-2.72-1.82-2.83-4.84-.94-7.28,2.34-3.02,3.93-6.52,3.1-10.34-1.19-5.44-4.53-10.22-6.14-15.54-3.23-10.69-.14-23.11,10.98-27.51Z"/>
          <path class="cls-2" d="M2137.87,133.58c-.19-9.18,7.65-16.45,14.92-20.8,14.8-8.87,31.81-7.56,48.21-10.08,6.87-1.06,14.78-3.08,19.32-8.79,4.59-5.77,2.18-12.75,5.11-19.06,1.46-3.14,5.51-4.16,8.59-3.5,11.71,2.54,12.23,18.69,9,27.68,2.11,2.58,2.7,5.73,2.14,9.43-1.24,8.19-9.53,14.54-16.65,17.64-7.69,3.34-16.02,4.76-24.05,7.07-8.34,2.4-16.54,5.25-24.59,8.5-7.52,3.04-15.46,8.43-23.79,8.49-9.46,.07-18-6.88-18.21-16.58Z"/>
          <path class="cls-2" d="M2122.87,208.6c6.82,2.38,11.54,7.85,15.16,13.89,3.14,5.22,6.38,10.69,9.11,16.13,1.74,3.47,.46,8.51-3.83,9.42-7.66,1.61-13.33-2.66-17.69-8.22-.21,.14-.41,.27-.64,.39-4.17,2.2-9.21,1.01-11.71-3.07-.21-.35-.42-.72-.62-1.1-4.26,6.33-14.95,6.68-17.61-2.43-4.72-16.15,12.7-30.27,27.83-24.99Z"/>
          <path class="cls-2" d="M2012.36,209.28c12.16,2.84,16.58,15.64,18.52,26.5,.95,5.32-4.76,11.66-10.18,7.83-2.73-1.93-4.88-4.17-6.72-6.79-.09,.1-.17,.2-.26,.29-1.53,1.53-4.03,2.68-6.23,2.58-2.1-.09-4.17-.93-5.79-2.27-1.8,.66-3.81,.77-5.76,.21-4.03-1.16-6.96-4.96-6.98-9.17-.04-12.31,11.08-22.05,23.4-19.17Z"/>
          <path class="cls-2" d="M1972.74,67.12c-3.27-7.97,5.77-13.1,12.44-10.8,.56-.83,1.26-1.6,2.15-2.29,1.62-1.25,3.68-1.95,5.76-2.03-.49-3.36,.02-6.7,2.04-9.76,2.26-3.41,6.45-3.87,9.49-1.22,3.46,3,4.64,7.17,7.35,10.72,2.4,3.13,5.78,5.27,8.4,8.2,6.7,7.48,7.56,18.22,.15,25.62-15.97,15.93-41.07-2.09-47.79-18.43Z"/>
          <path class="cls-2" d="M2094.82,56.16c4.12-3.72,9.1-5.95,13.53-9.18,4.09-2.98,4.86-6.83,5.69-11.58,.61-3.47,4.65-4.11,7.27-2.96,7.41,3.26,7.33,12.05,4.32,18.49,2.34,2.46,3.29,6.05,1.01,9.38-2.55,3.73-5.59,5.91-6.8,10.4-1.45,5.39-2.16,11.16-5.17,16-6.67,10.72-21.65,10.18-26.74-1.61-4.25-9.84-.97-21.84,6.89-28.93Z"/>
          <path class="cls-2" d="M1874.48,152.97c6.85-2.82,13.53-.83,20.13,1.82-.03-2.2,.4-4.5,1.37-6.77,7.19-16.78,31.71-19.03,44.44-7.43,5.44-1.78,12.37,.32,13.35,6.14,.79,.21,1.6,.51,2.41,.94,16.16,8.54,34.48,13.83,52.66,11.8-.72-1.78-.6-3.67,.08-5.48-2.62-.38-4.97-2.01-5.49-5.02-3.03-17.35,17.97-28.39,32.83-22.96,16.11,5.89,21.18,26.41,9.44,39-11.18,12-31.47,15.46-47.09,15.17-11.12-.21-21.99-2.38-32.43-5.94-11.06-3.77-23.15-2.74-33.67,2.34-4.66,2.26-9.7,3.7-14.72,4.21-8.46,.85-16.18-1.46-23.76-4.96-7.06-3.26-14.31-6.59-21.19-10.19-5.86-3.07-3.4-10.6,1.66-12.68Z"/>
          <path class="cls-2" d="M1895.21,213.06c4.22-5.73,10.1-10.13,17.24-11.27,14.22-2.27,27.57,9.59,23.68,24.33-2.43,9.2-12.46,9.26-17.53,4.04-2.78,2.68-7.12,2.91-10.22,.72-4.28,5.93-10.37,10.93-18.2,8.5-5.91-1.83-7.89-9.09-3.59-13.61,3.68-3.86,5.49-8.44,8.63-12.71Z"/>
        </g>
        <g>
          <path class="cls-11" d="M2406.88,151.39c11.15-8.52,30.06-.4,40.34,6.21,13.32,8.56,24,21.22,27.98,36.78,.38,1.48,.4,2.83,.17,4.04,.3,.6,.53,1.24,.66,1.82,.75,3.47-.98,7.03-3.41,9.44-5.58,5.54-14.51,4.01-20.02-.78-5.75-4.99-6.75-12.1-9.89-18.59-3.23-6.68-11.03-8.44-17.67-9.84-7.27-1.53-15.3-2.51-20.33-8.61-5.21-6.32-4.38-15.45,2.17-20.46Z"/>
          <path class="cls-11" d="M2289.65,106.33c10.06-3.92,22.78,1.32,29.64,9.17,1-.64,2.21-.88,3.35-.42,10.46,4.17,7.97,17.59-.43,22.71-9.7,5.9-23.62,2.94-32.56-3.12-4.77-3.23-8.74-7.85-9.12-13.84-.41-6.49,3.02-12.11,9.12-14.49Z"/>
          <path class="cls-11" d="M2319.15,227.57c7.8,1.15,17.01,5.22,19.11,13.62,1.01,4.06,0,8.88-3.02,11.85-3.11,3.06-6.98,3.17-10.87,1.92-.01,0-.02,0-.03-.01-.54,.3-1.11,.54-1.73,.72-8.6,2.36-18.96-2.71-20.88-11.77-2.28-10.77,7.59-17.77,17.42-16.32Z"/>
          <path class="cls-11" d="M2171.32,178.5c-6.32-5.94-7.49-15.09-4.05-22.85,7.44-16.77,31.09-19.75,47.17-18.11,13.43,1.37,36.79,7.79,43.18,22.11,.39-.02,.8,0,1.22,.07,6.65,1.2,9.51,8.53,8.06,14.64-1.83,7.67-9.27,11.81-16.74,12.23-9.46,.54-17.61-5.05-26.62-6.86-10.21-2.05-19.02,2.05-28.84,3.88-8.07,1.5-17.11,.79-23.4-5.12Z"/>
          <path class="cls-11" d="M2181.08,233.76c7.26,.94,15.35,3.78,18.78,10.8,3.82,7.83-1.57,18-10.9,16.24-.96-.18-1.82-.66-2.56-1.32-.51,.25-1.04,.44-1.6,.57-8.32,1.9-18.7-2.69-20.02-11.79-.61-4.21,.7-8.4,3.77-11.41,3.37-3.3,8.12-3.67,12.53-3.09Z"/>
          <path class="cls-11" d="M2065.17,230.54c6.57-.67,14.19,2.32,16.36,9.1,1.82,5.66-1.23,11.71-6.66,12.58-1.38,1.97-3.61,3.31-6.64,3.17-6.61-.3-15.46-3.52-17.28-10.72-2.32-9.17,6.76-13.37,14.21-14.13Z"/>
          <path class="cls-11" d="M1962.31,226.53c5.81,1.54,12.01,5.84,12.86,12.18,.44,3.27-.69,6.78-3,9.17-.9,.93-2.16,1.8-3.43,2.09-.31,.04-.61,.08-.92,.12-.32-.01-.65,.06-.99,.13,.33-.04,.66-.09,.99-.13,.04,0,.09,0,.13,0-.38,.05-.75,.09-1.13,.14-.36,.08-.72,.16-1.06,.16-.58,0-1.18-.09-1.77-.21-8.29,3.88-17.81-2.75-18.18-11.73-.36-8.75,8.67-13.99,16.49-11.92Z"/>
          <path class="cls-11" d="M1839.45,167.69c6.02-6.51,16.29-8.76,23.41-2.5,7.98,7.02,4.56,16.45-1.23,23.45-1.72,2.07-4.75,4.72-3.11,7.4,1.86,3.05,7.51,4.52,10.43,6.31,7.62,4.67,13.51,12.24,11.65,21.64-1.66,8.34-8.85,14.45-17.46,12.87-2.63-.48-4.08-2.38-4.5-4.58-7.55-.75-15.22-8.14-19.51-13.59-5.75-7.32-8.95-16.41-8.79-25.76,.15-8.8,3.01-18.64,9.1-25.23Z"/>
          <path class="cls-11" d="M2075.56,172.76c5.35-14.63,24.46-22.58,38.31-15.09,7.38,3.99,3.71,15.07-4.14,15.28-3.8,.1-7.56-.18-11.1,1.41-3.64,1.64-5.35,4.37-8.01,7.17-5.96,6.26-18.22-.16-15.07-8.77Z"/>
          <path class="cls-11" d="M2141.93,58.68c16.94-9.35,36.97-11.59,55.6-6.53,3.32,.9,5.32,3,6.23,5.48,8.52,.72,11.95,10.71,6.98,18.17-5.46,8.19-17.04,7.74-25.69,9.18-10.03,1.67-17.7,4.62-25.89,10.62-7.37,5.41-16.05,9.1-25.21,6.06-9.9-3.28-14.17-13.88-11.25-23.53,2.71-8.98,11.41-15.13,19.23-19.45Z"/>
          <path class="cls-11" d="M2040.01,12.95c11.5-4.27,32.32-6.99,41.96,2.87,.26-.15,.54-.29,.82-.4,6.91-2.67,12.87,6.21,12.98,12.13,.15,7.98-4.93,14.42-11.65,18.16-14.12,7.87-35.73,12.35-50.62,4.37-7.55-4.05-12.1-12.07-10.2-20.66,1.87-8.43,9.08-13.63,16.72-16.47Z"/>
          <path class="cls-11" d="M1945.23,68.96c8.21-1.47,16.89,1.54,21.4,8.83,4.93,7.97,3.81,17.11,1.73,25.76-1.89,7.87-3.79,16.56-.77,24.43,2.83,7.38,9.33,8.87,14.55,13.78,2.76,2.6,2.2,7.79-1.23,9.58-8.19,4.26-17.11-.54-23.13-7.21-2.02,1.05-4.36,1.39-6.6,.56-15.99-5.93-27.55-19.25-29.53-36.44-1.82-15.85,6.13-36.17,23.59-39.3Z"/>
        </g>
        <path class="cls-1" d="M1836.65,232.41c14.88,16.98,38.35,21.95,59.62,17.18,11.46-2.57,23.36-.19,33.34,5.98,9.37,5.79,20.24,9.17,31.4,9.52,10.02,.32,19.85-1.91,28.69-6.17,11.62-5.59,25.15-5.56,36.91-.27,21.66,9.75,47.11,9.67,68.82-.16,12.05-5.46,25.85-5.17,37.77,.57,34.76,16.74,71.99,20.79,111.16,4.98,12.59-5.08,26.63-5.32,39.47-.91,9.41,3.23,19.16,5.15,28.04,5.95,21.93,1.96,44.44-3.76,63-15.57,10.96-6.97,24.39-8.99,36.74-4.94,13.67,4.48,28.23,5.67,42.03,.66,18.71-6.8,33.34-22.76,33.56-43.4,.21-20.47-12.56-39.94-28-52.45-23.66-19.17-54.26-24.26-81.63-15.55-10.13,3.22-21.02-.96-26.74-9.92-10.82-16.95-27.91-29.73-48.29-33.9-6.62-1.35-13.5-1.8-20.36-1.39-8.4,.51-16.57-3.3-21.13-10.38-4.27-6.64-9.5-12.66-15.57-17.83-20.08-17.07-47.11-26.25-73.47-24.06h-.17c-10.09,.86-20.11-2.6-27.36-9.65-8.73-8.49-18.92-15.33-30.32-20.23-28-12.03-61.6-14.08-90.57-4.12-14.12,4.85-27.7,13.14-36.66,24.62-6.95,8.9-16.84,14.99-28,16.75-7.97,1.26-15.72,4.52-22.58,9.58-13.55,9.99-23.41,24.95-25.38,41.83-.03,.26-.06,.53-.08,.79-.99,10.18-5.54,19.6-12.63,26.98-2.49,2.59-4.78,5.38-6.8,8.33-3.8,5.51-9.89,9.09-16.58,9.33-10.69,.38-21.3,3.76-30.07,9.83-12.39,8.58-20.48,21.34-21.94,36.43-1.42,14.65,4.14,30.58,13.79,41.59Zm52.29-69.82c4.23,1.59,8.73-1.77,9.96-5.66,.39-1.22,.85-2.44,1.39-3.66,5.8-13.13,22.41-17.61,33.86-8.95,30.2,22.86,68.5,24.91,95.12,8.75,5.38-3.27,1.85-12.21-4.34-10.29-15.68,4.86-33.73,5.88-49.71,1.95-20.27-4.99-48.69-20.91-44.91-44.89,3.53-22.32,29.41-42.1,50.74-29.24,6.15,3.71,14.9-1.04,14.49-8.31-1.32-23.17,20.44-46.21,77.31-42.8,13.06,.78,26.35,4.45,38.2,10.75,12.94,6.88,15.9,24.04,6.41,35.21-4.37,5.14-7.08,10.97-7.42,16.94-.24,4.24,4.63,6.33,8,4.59,5.96-3.08,9.72-9.45,14.86-13.67,4.18-3.43,9.04-6.35,14.02-8.45,9.57-4.05,20.26-4.96,30.55-4.89,10.82,.08,20.94,2.06,31.45,6.02,6.01,2.27,11.81,5.35,17.1,9.12,13.46,9.59,15.72,28.79,4.76,41.16-.08,.09-.16,.18-.24,.27-5.33,6.08-13.01,9.6-21.1,9.55-5.63-.03-11.27,.52-16.71,1.66-5.42,1.14-10.94,3.15-15.69,5.98-4.92,2.93-7.83,6.34-10.97,10.98-2.57,3.79,1.68,7.54,5.36,6.97,17.18-2.66,33.4-8.99,51.05-5.45,8.04,1.61,15.44,4.31,22.52,8.44,7.55,4.4,13.33,9.9,19.72,15.74,3.46,3.16,10.92,.1,8.75-5.09-3.04-7.24-7.87-13.81-13.77-19.39-8.73-8.26-6.74-22.82,3.89-28.44,.08-.04,.17-.09,.25-.13,10.34-5.41,22.34-8,33.93-6.04,23.85,4.03,44.08,25.5,46.97,49.52,.95,7.91,9.02,11.66,15.38,6.37,13.6-11.32,31.88-16.91,49.46-15.84,14.8,.9,29.27,7.41,40.23,17.32,10.8,9.77,21.12,24.72,19.17,40.06-1.75,13.76-14.97,22.72-27.79,24.85-16.47,2.73-32.87-5.1-46.25-13.89-3.23-2.12-8.78-1.53-11.31,1.46-17.32,20.43-43.32,31.59-70.09,28.41-12.27-1.45-24.57-4.67-35.47-10.59-5.5-2.99-11.18-5.82-16.09-9.75-5.05-4.04-9.92-8.48-14.76-12.77-3.49-3.09-8.6-.08-7.67,4.46,.11,.55,.24,1.1,.37,1.64,3.06,12.45-4.24,25.15-16.72,28.07-35.52,8.32-75.38,.41-103.68-22.45-3.95-3.19-9.66-4-13.5,0-25.3,26.34-68.64,25.09-92.63-2.23-4.28-4.87-11.55-2.74-14.77,1.9-17.59,25.37-57.78,23.12-73.06-3.28-3.41-5.89-10.49-5.8-15.27-1.97-22.32,17.88-60.97,12.1-70.32-17.22-9.27-29.06,22.16-52.87,48.96-42.81Z"/>
      </g>
      <g>
        <path class="cls-7" d="M406.6,370.67c-2.05,0-4.12-.08-6.14-.25-14.53-1.2-28.65-6.31-40.85-14.78-8.04-5.58-17.35-8.54-26.91-8.54-6.54,0-12.83,1.38-18.7,4.11-14.09,6.55-27.95,9.87-41.2,9.87-.96,0-1.92-.02-2.89-.05-23.88-.86-44.26-12.29-54.52-30.58-10.67-19.01-8.09-41.35,6.72-58.29,5.78-6.61,22.41-21.98,51.93-21.98,.78,0,1.57,.01,2.36,.03,.35,0,.7,.01,1.05,.01,11.93,0,23.25-5.85,30.28-15.64,6.64-9.24,14.38-17.65,23.01-25.01,24.84-21.17,56.06-34.17,87.92-36.6,3.51-.27,7.07-.4,10.57-.4,15.34,0,29.55,2.57,41.1,7.44,4.77,2.01,9.8,3.03,14.97,3.03,9.56,0,18.64-3.52,25.56-9.9,10.91-10.06,23.98-16.77,37.77-19.42,5.04-.97,10.19-1.46,15.32-1.46,9.74,0,19.15,1.72,27.95,5.11,2.82,1.08,5.58,2.3,8.23,3.6,5.25,2.59,11.09,3.96,16.89,3.96,9.53,0,18.62-3.57,25.6-10.05,22.41-20.82,48.53-32.51,75.54-33.81,1.24-.06,2.5-.09,3.75-.09,23.71,0,46.95,10.86,60.64,28.33,7.28,9.29,18.16,14.62,29.86,14.62,1.66,0,3.34-.11,4.99-.33,4.65-.62,9.33-.93,13.91-.93,6.1,0,12.19,.55,18.1,1.64,19.53,3.6,37.78,14.22,50.1,29.13,7.25,8.78,18.02,13.82,29.57,13.84,5.57,0,10.96,.6,15.99,1.76,14.7,3.37,27.66,16.18,30.8,30.45,.37,1.67,.62,3.39,.76,5.1,.79,9.84,8.69,17.64,18.37,18.15,17.08,.9,30.42,6.02,40.77,15.64,8.85,8.22,13.65,19.45,12.82,30.04-.88,11.29-6.08,22.25-15.03,31.68-14.19,14.94-35.63,23.45-63.73,25.3-4.72,.31-9.38,.47-13.85,.47h0c-22.96,0-42.81-4.12-59-12.26-.67-.34-1.35-.69-2.02-1.05-6.93-3.74-14.66-5.72-22.37-5.72-6.41,0-12.57,1.33-18.32,3.94-8.91,4.05-18.9,6.2-28.91,6.2s-19.02-1.95-27.49-5.64c-5.88-2.56-12.09-3.86-18.45-3.86s-13.32,1.5-19.24,4.35c-3.13,1.5-6.49,2.82-9.97,3.93-11.04,3.5-23.77,5.35-36.81,5.35-15.09,0-30.18-2.4-43.63-6.93-2.84-.96-5.65-2.06-8.36-3.28-5.84-2.63-12.07-3.96-18.52-3.96-8,0-15.91,2.11-22.89,6.11-7.01,4.02-12.65,6.76-16.74,8.17-14.79,5.08-31.17,7.65-48.69,7.65-8.24,0-16.71-.58-25.15-1.73-14.2-1.93-27.48-5.53-39.46-10.7-5.81-2.51-11.95-3.78-18.27-3.78-8.18,0-16.22,2.19-23.25,6.34-12.95,7.64-27.42,11.67-41.87,11.67Z"/>
        <g>
          <path class="cls-2" d="M364.3,301.61c.85-13.15,.19-26.33-5.67-38.35-5.15-10.57-15.68-20.01-27.91-20.43-12.89-.44-27.86,13.42-18.03,25.91,.13,.17,.28,.32,.44,.48-1.21,.15-2.46,.47-3.76,.99-2.67,1.07-4.25,4.5-1.84,6.97,7.37,7.57,16.32,23.31,11.98,34.64-5.61,14.61-24.73,10.62-36.32,8.58-8.25-1.45-17.39-.77-23.45,5.77-5.81,6.27-6.51,17.13-.05,23.26,6.75,6.41,15.79,4.51,23.92,2.59,4.4-1.04,8.79-2.09,13.18-3.16,4.42-1.08,9.49-1.57,13.16-4.39,2.03-1.56,3.58-3.4,4.08-5.71,2.83-1.02,5.54-2.37,8.06-4.1,2.75-1.88,5.1-4.02,7.1-6.35,.69,3.69,5.59,6.41,9.07,5.13,1.54-.57,2.93-1.35,4.2-2.29,.55,5.71,2.12,11.19,5.79,15.46,4.52,5.26,15.13,2.78,16.3-4.3,1.13-6.84-.93-13.83-1.09-20.77-.15-6.66,.41-13.28,.84-19.92Z"/>
          <path class="cls-2" d="M470.06,313.07c-7.54-1.52-15.56,.75-20.86,6.41-5.74,6.13-6.19,14.21-2.79,21.57,1.32,2.87,5.31,4.12,8.18,3.33,2.32-.64,3.84-2.27,4.65-4.3,.68,.41,1.41,.77,2.19,1.07,8.39,3.27,19.56-.68,21.86-10,2.21-8.95-4.86-16.39-13.23-18.08Z"/>
          <path class="cls-2" d="M515.54,201.28c-.26-3.11-2.43-5.77-5.77-5.77-5.93,0-9.57,4.29-11.63,9.4-.14-.25-.26-.51-.41-.75-3.92-6.44-11.98-8.4-18.35-4.31-10.67,6.85-7.51,26.71-1.24,35.48,8.11,11.35,24.93,12.88,32.98,.63,3.35-5.1,4.08-11.33,3.88-17.29-.11-3.07-.36-6.17-.15-9.24,.18-2.73,.92-5.39,.69-8.15Z"/>
          <path class="cls-2" d="M655.36,286.27c-7.13-5.38-15.71-8.46-22.78-13.92-6.13-4.73-10.28-11.45-12.8-18.7-3.05-8.77-3.85-17.81-3.87-27.04,0-5.09,.38-10.16,.35-15.24-.03-4.27,.3-9.66-3.26-12.62-.08-.07-.16-.12-.24-.18,.14-1.72,.22-3.44,.18-5.16-.17-7.96-2.53-18.75-10.39-22.56-5.34-2.59-10.83,.6-11.3,6.49-.29,3.68,1.07,7.38,1.53,11.02,.4,3.12,.33,6.66-.14,9.75-.99,6.45-3.6,12.52-6.43,18.35-7.27,14.99-14.49,28.97-15.78,45.9-1.28,16.88,3.98,31.81,10.81,46.92,2.55,5.64,5.23,11.61,5.85,17.81,.65,6.5-1.09,10.52-4.71,15.77-2.96,4.3-1.21,10.72,2.73,13.67,4.42,3.3,9.8,2.7,13.91-.83,1.25-1.07,2.35-2.24,3.33-3.49,5.32,2.67,10.95,.34,14.28-4.26,3.91-5.4,14.04-5.66,19.86-6.47,9.32-1.3,18.24-3.51,25.28-10.17,14.64-13.86,8.09-34.1-6.39-45.04Z"/>
          <path class="cls-2" d="M756.39,192.34c1.59-1.76,2.24-4.03,2.15-6.24,1.38-1.06,2.73-2.2,4.01-3.44,5.05-4.87,8.81-11.31,10.19-18.22,1.3-6.52,.41-16.25-7.02-18.56-2.14-.67-4.33,.47-5.51,2.24-2.05,3.09-1.46,7.17-2.18,10.7-.65,3.2-1.83,6.08-3.81,8.7-4.84,6.38-12.4,10.1-19.51,13.36-15.14,6.94-31.57,13.71-38.18,30.36-2.82,7.11-2.99,15.66,3.17,21.1,7.8,6.88,18.7,2.42,24.2-4.96,4.79-6.42,8.64-13.19,14.18-19.09,2.6-2.76,5.34-5.39,8.22-7.86,3.24-2.78,7.23-4.94,10.08-8.1Z"/>
          <path class="cls-2" d="M758.17,305.72c-5.98,5.83-5.57,13.45-6.1,21.11-.22,3.24-1.44,5.69-3.06,8.47-1.31,2.26-3,4.77-1.43,7.4,3.16,5.28,10.92,2.21,14.57-.76,2.52-2.06,4.17-4.56,5.25-7.31,.46,.35,.94,.68,1.44,.98,14.9,8.79,30.27-7.85,24.62-22.67-5.4-14.18-24.65-17.58-35.29-7.22Z"/>
          <path class="cls-2" d="M887.26,286.32c-6.07-3.49-14.6-4.07-19.3-9.65-4.38-5.19-5.03-13.9-3.8-20.33,1.55-8.07,7.01-14.52,10.7-21.69,5-3.08,8.96-6.02,11.78-11.5,2.88-5.6,3.77-11.57,2.06-17.68-.49-1.73-1.52-2.85-2.77-3.45,.06-.68,.1-1.36,.13-2.04,.45-10.97-16.69-10.98-17.06,0-.46,13.71-10.32,24.22-19.33,33.54-9.32,9.66-19.06,19.85-21.54,33.58-2.4,13.33,.8,26.79,7.26,38.55,3.03,5.52,7.57,10.35,10,16.18,.82,1.97,1.16,3.89,1.1,6.02-.06,1.87,.02,5.51-.93,7.16-1.37,2.39,.34,5.87,3.28,5.71,7.85-.41,11.81-4.93,13.12-10.71,4.35,3.67,9.68,5.86,16.26,5.34,15.65-1.23,25.86-17.01,21.97-31.9-1.83-7-6.64-13.5-12.92-17.11Z"/>
          <path class="cls-2" d="M964,260.39c1.8-3.98,.41-9-3.32-12.01-6.03-4.88-14.7-4-21.36-.97-13.74,6.24-25.78,23.71-17.63,38.51,8.12,14.74,32.79,15.94,43.52,3.8,8-9.04,6.24-21.87-1.22-29.33Z"/>
        </g>
        <g>
          <path class="cls-11" d="M244.66,267.8c-13.77,7.63-24.01,20.41-28.89,35.31-1.93,5.91,2.34,9.91,7.18,10.44-1.63,4.89-2.05,10.19-1.02,15.33,1.16,5.72,10.57,5.82,11.66,0,1.34-7.13,3-15.14,9.66-19.21,6.06-3.71,14.02-3.69,20.83-4.72,7.44-1.13,14.97-3.47,20.38-8.98,5.89-6,8.47-15.11,4.84-22.93-8.15-17.6-31.09-12.76-44.65-5.25Z"/>
          <path class="cls-11" d="M426.58,216.84c8.41-.07,17.76-1.39,24.38-7.06,7.1-6.09,7.95-16.79-.1-22.51-6.4-4.55-15.69-4.69-23.26-5.05-8.44-.4-16.83,.23-25.18,1.51-18.87,2.88-36.96,10.39-52.35,21.66-2.04,1.5-3.51,3.6-3.99,5.89-3.06,.37-5.76,2.64-5.83,6.85-.14,8.05,5.77,13.92,13.42,15.58,8.93,1.94,16.72-2.45,24.09-6.9,7.28-4.39,15.06-7.38,23.41-9.03,8.46-1.67,16.87-.86,25.42-.94Z"/>
          <path class="cls-11" d="M411.31,337.03c-8.16-1.32-17.48,3.09-21.69,10.25-2.34,3.98-2.16,9.67,2.12,12.26,1.36,.82,2.97,1.11,4.46,.87,.59,.72,1.28,1.4,2.06,1.99,6.9,5.27,18.96,1.56,23.23-5.53,5.05-8.38-1.1-18.38-10.17-19.84Z"/>
          <path class="cls-11" d="M436.6,256.19c-6.01-1.06-11.71-1.09-17.67,.4-4.93,1.24-10.91,3.22-13.61,7.79-1.45,2.46,.44,5.29,3.12,5.43,4.08,.22,7.91-1.79,12-2.08,4.28-.3,8.45,.36,12.55,1.56,8.52,2.5,12.12-11.6,3.61-13.11Z"/>
          <path class="cls-11" d="M464.19,267.42c-2.12-1.54-4.83-3.4-7.43-3.86-3.26-.57-6.54,.6-7.85,3.85-1.18,2.94-.26,6.74,2.72,8.31,2.25,1.18,4.81,1.65,7.2,2.53,2.13,.79,4.38,1.61,6.65,1.8,2.76,.23,5.35-3.1,4.36-5.72-1.06-2.79-3.24-5.16-5.65-6.91Z"/>
          <path class="cls-11" d="M544.41,331.11c-11.25-4.91-28.74-5.91-38.77,2.41-5.2,4.31-8.06,11.77-4.22,17.92,2.29,3.67,7.82,5.82,11.87,4.25,.01,0,.02,.02,.03,.03,10.15,6.36,27.11,12.59,38.66,6.33,6.34-3.44,9.18-10.66,6.9-17.49-2.18-6.53-8.44-10.82-14.47-13.45Z"/>
          <path class="cls-11" d="M559.65,162.7c-10.14-3.19-20.87,.86-28.42,7.76-2.19-.54-5.11,.25-6.55,1.95-7.69,9.11-1.7,21.18,9.18,23.97,9.98,2.56,21.02-1.35,28.55-7.95,3.91-3.42,7.2-8.02,7.12-13.4-.09-5.93-4.4-10.6-9.88-12.32Z"/>
          <path class="cls-11" d="M620.86,202.82c-1.86,2.18-2.59,5-2.48,7.86-.7,.13-1.35,.46-1.87,1.08-7.17,8.59,4.4,19.46,13,20.07,10.78,.77,19.12-9.89,15.42-20.13-3.33-9.19-15.95-18.4-24.07-8.89Z"/>
          <path class="cls-11" d="M688.48,181.28c5.94-6.57,11.43-10.36,20.11-12.29,8-1.77,16.34-3.28,22.75-8.81,6.33-5.46,8.78-14.55,4.04-21.86-9.16-14.13-33.31-10.39-46.38-5.27-19.2,7.52-33.52,21.92-46.47,37.5-.95,1.15-1.58,2.43-1.92,3.74-2.15,.3-4.2,1.72-5.08,4.17-2.78,7.7,1.48,15.87,8.28,19.93,7.99,4.77,17.73,3.57,25.76-.39,7.72-3.81,13.26-10.47,18.92-16.72Z"/>
          <path class="cls-11" d="M711.73,318.4c-9-2.37-19.13-.73-25.78,6.15-6.53,6.75-8.42,20.23,2.11,24.02,2.01,.72,4.95-.05,6.34-1.68,.27-.32,.57-.65,.85-1,1.76,1.48,4.1,2.43,6.66,2.76,8.77,1.14,24.84,1.13,28.05-9.53,3.42-11.32-9.07-18.31-18.23-20.73Z"/>
          <path class="cls-11" d="M832.27,169.94c-12.34,.35-24.75,4.61-36.24,8.82-19.19,7.03-36.92,16.96-51.21,31.19-1.08-.58-2.35-.77-3.66-.3-9.3,3.34-17.53,12.12-14.97,22.76,2.65,11.01,13.58,13.26,23.11,9.76,18.77-6.91,28.65-26.66,47.57-33.18,10.26-3.53,21.07-4.44,31.75-5.85,9.93-1.32,23.88-4.89,25.65-16.69,1.91-12.68-12.14-16.77-22-16.49Z"/>
          <path class="cls-11" d="M818.32,325.5c-6.13-.02-12.98,3.84-16.06,9.16-1.74,3.01-1.46,6.89,1.21,9.23,2.02,1.77,5.3,2.23,7.55,.61,.95,1.54,2.42,2.78,4.45,3.37,6.66,1.93,14.69-.92,16.33-8.23,1.81-8.09-6.11-14.12-13.48-14.14Z"/>
          <path class="cls-11" d="M944.24,227.19c.75-16.49-21.82-14.15-31.95-11.33-11.1,3.09-21.42,9.22-29.17,17.71-1.12-.28-2.34-.2-3.51,.41-3.17,1.66-5.97,2.7-8.54,5.5-2.39,2.6-3.91,5.72-4.41,9.21-.92,6.37,1.9,12.79,7.97,15.43,6.38,2.77,14.49,.83,20.26-2.58,6.25-3.69,9.68-10.34,15.62-14.29,9.7-6.44,33.03-4.4,33.75-20.06Z"/>
          <path class="cls-11" d="M1037.69,300.76c-3.06-15.76-18.21-31.77-35.03-31.64-9.76,.08-18.95,6.29-20.99,16.13-2.03,9.79,3.51,18.65,7.56,27.1,2.97,6.22,5.66,14.68-.78,19.73-6.34,4.96-16.89,5.93-24.63,6.16-5.39,.16-10.82-.17-16.18-.79-5.41-.63-10.61-2.35-16.01-2.95-8.76-.98-18.43,3.43-18.09,13.49,.19,5.6,7.52,6.22,9.39,1.27,1.72-4.56,16.03,2.29,19.08,3.08,7.7,1.99,15.66,2.8,23.61,2.63,11.68-.26,24.66-1.83,34.32-8.63,.18,.16,.37,.32,.56,.46,4.74,3.54,10.29,2.78,14.71-.88,13.85-11.44,26.23-25.93,22.49-45.16Z"/>
        </g>
        <path class="cls-1" d="M1038.52,275.47c-12.37-11.5-27.51-15.87-43.28-16.7-7.81-.41-13.97-6.68-14.6-14.48-.15-1.88-.43-3.77-.84-5.64-3.53-16.04-17.94-29.84-33.81-33.48-5.39-1.24-11.11-1.85-16.88-1.86-10.26-.02-19.96-4.47-26.49-12.39-13.1-15.87-32.34-26.81-52.46-30.52-11.15-2.06-22.32-2.2-33.27-.75-11.96,1.58-23.73-3.29-31.17-12.79-15.68-20.01-41.98-31.01-67.73-29.77-28.8,1.39-55.36,13.78-78.07,34.88-10.31,9.58-25.38,11.67-38,5.44-2.89-1.43-5.78-2.67-8.56-3.75-14.41-5.55-30.33-6.75-45.46-3.85-14.97,2.87-28.65,10.2-39.73,20.41-9.77,9-24.03,11.29-36.27,6.13-16.56-6.98-36.19-8.66-53.52-7.33-33.25,2.54-64.87,15.94-90.21,37.54-8.86,7.55-16.84,16.23-23.66,25.72-6.45,8.97-16.92,14.27-27.97,13.96-26.1-.74-46.09,10.35-57.42,23.31-15.61,17.85-18.92,41.98-7.2,62.88,11.72,20.9,34.48,31.77,57.87,32.62,16.09,.58,31.54-3.51,45.91-10.19,13.56-6.3,29.37-4.44,41.65,4.08,12.53,8.7,27.2,14.19,42.81,15.48,17.43,1.44,35.25-3.04,50.37-11.96,11.53-6.8,25.61-7.64,37.9-2.33,12.83,5.54,26.54,9.09,40.51,10.99,25.06,3.4,51.62,2.15,75.67-6.1,4.95-1.7,11.34-4.99,17.43-8.48,11.57-6.62,25.62-7.44,37.78-1.97,2.85,1.28,5.77,2.42,8.72,3.42,25.51,8.6,57.09,9.79,82.92,1.61,3.64-1.15,7.15-2.53,10.5-4.13,10.81-5.18,23.38-5.21,34.36-.42,18.77,8.18,40.95,7.94,59.66-.58,11.89-5.41,25.63-4.56,37.13,1.66,.71,.38,1.42,.75,2.13,1.11,22.9,11.5,49.65,13.87,74.92,12.21,24.16-1.59,49.19-8.46,66.36-26.54,8.9-9.38,15.11-21.12,16.12-34.13,.97-12.54-5.03-24.86-14.09-33.28Zm-16.59,52.84c-12.9,13.62-31.74,19.07-49.96,20.52-20.54,1.64-41.64,.55-61.2-6.34-19.58-6.9-32.78-20.38-43.28-37.8-2.81-4.66-11.29-3.05-10.83,2.93,.13,1.63,.34,3.24,.65,4.82,2.25,11.77-4.7,23.49-16.07,27.29-5.85,1.96-12.06,2.87-18.36,2.52-14.89-.82-27.65-9.34-36.81-20.66-4.59-5.68-12.77-2.72-16.28,2.1-15.71,21.57-50.07,22.11-73.83,19.49-14.83-1.64-29.91-6.29-42.43-14.53-5.7-3.75-10.71-8.37-15.26-13.44-4.6-5.12-7.32-11.39-11.38-16.86-3.32-4.48-10.35-3.1-10.66,2.89-.17,3.26,.31,6.55,1.24,9.8,4.08,14.12-3.22,29.14-16.97,34.33-9.72,3.67-19.76,5.9-29.77,7.15-22.42,2.8-45.62,.57-67.01-6.72-10.83-3.69-21.5-8.96-30.46-16.15-3.67-2.94-9.9-4.31-13.41,0-14.18,17.44-35.6,27.61-58.2,26.31-21.38-1.23-41.79-13.74-52.89-31.93-2.46-4.04-8.57-6.29-12.77-3.35-16.18,11.32-34.35,22.12-54.33,24.48-17.41,2.06-36.09-2.01-48.04-15.56-11.02-12.49-12.53-29.71-3.03-43.43,8.76-12.66,24.36-20.11,39.48-21.14,9.28-.63,17.54,.7,26.51,2.84,8.93,2.13,16.64,6.36,24.54,10.91,4.12,2.38,8.99-2.39,6.54-6.54-.59-1-1.22-1.97-1.87-2.91-6.77-9.67-5.85-22.77,1.77-31.78,29.61-35.05,78.36-55.46,123.71-45.5,14.15,3.11,28.07,9.45,34.02,23.43,3.76,8.84,16.68,5.22,19.1-2.5,6.93-22.11,26.24-39.08,48.94-43.48,11.57-2.24,23.71-.41,34.63,3.78,.67,.26,1.32,.53,1.97,.81,12.52,5.43,19.67,18.49,18.44,32.08-.5,5.56-.02,10.98,1.86,15.86,1.04,2.7,5.1,3.91,6.68,.87,3.07-5.89,5.1-12.43,7.93-18.47,2.85-6.09,6.38-11.89,10.66-17.08,9.23-11.18,19.01-21.42,31.11-29.57,23.61-15.89,55.56-26.55,82.64-13.07,4.91,2.44,9.51,5.48,13.52,9.09,8.53,7.67,7.49,21.34-2.07,27.67l-.15,.1c-6.62,4.39-12.87,9.38-18.72,14.76-2.96,2.72-7.35,7.59-9.84,10.75-2.71,3.45-5.79,6.64-6.91,11-.73,2.87,1.93,5.8,4.9,4.9,4.46-1.35,7.76-4.63,11.49-7.28,2.84-2.02,5.65-4.07,8.4-6.21,7.24-5.64,14.91-10.9,22.84-15.54,14.97-8.76,31.41-14.4,48.76-15.71,18.18-1.38,36.4,2.57,50.99,12.03,11.72,7.6,14.13,23.79,5.08,34.42-4.01,4.71-7.35,10.1-10.09,16.02-1.14,2.46,1.34,5.79,4.04,4.04,9.87-6.38,20.34-12.27,31.32-16.52,10.28-3.98,20.75-5.05,31.71-4.34,10.62,.69,20.15,5.88,24.58,16.01,3.39,7.74,1.48,18.34-5.94,23.1-10.02,6.42-3.29,20.27,7.77,18.42,19.09-3.19,40.88-6.06,58.18,4.78,6.95,4.35,12.94,11.42,13.03,19.96,.1,8.29-4.68,16.3-10.22,22.15Z"/>
      </g>
      <g>
        <path class="cls-10" d="M2339.13,1076.69c-14.02-12.24-28.83-23.51-44.23-33.87H170.29c-25.33,84.12-131.86,128.52-163.29,264.94-24.05,104.36,15.37,214.46,95.22,284.08,90.62,79,214.47,83.71,326.8,64.03,64.06-11.22,126.56-29.85,189.89-44.48,63.32-14.62,126.84-23.06,191.84-22.36,127.97,1.37,253.54,30,380.23,44.94,61.39,7.24,123.36,11.35,185.13,7.34,63.36-4.11,124.74-18.66,185.79-35.73,61.85-17.29,123.85-36.5,187.85-43.55,65.91-7.25,131.41,1.16,196.3,13.04,111.59,20.42,227.86,47.76,339.47,11.88,49.43-15.89,94.87-44.53,126.76-86.67,30.99-40.96,47.99-90.93,52.06-142.26,8.66-108.93-45.56-211.75-125.21-281.32Z"/>
        <g>
          <path class="cls-5" d="M2308.26,1106.05c-10.83-7.53-22.28-13.97-33.58-20.73-5.33-3.19-12.29-.66-14.64,4.94-.61,1.46-.87,2.9-.84,4.27-26.98,4.11-53.6,10.3-80.67,13.98-29.23,3.97-58.7,6.19-88.15,7.71-43.72,2.26-87.47,3.78-131.22,5.27-1.14-2.53-3.43-4.38-6.16-5.44-11.98-4.65-25.78-4.06-38.5-4.28-12.59-.22-25.18,.01-37.75,.69-20.03,1.08-40.01,3.27-59.82,6.47-1.49-1.62-3.6-2.68-6.06-2.66-23.83,.24-47.15,2.6-70.44,7.15-.46-12.92-14.83-10.22-23.68-9.7-14.64,.86-29.28,1.68-43.93,2.44-28.47,1.47-56.96,2.68-85.46,3.36-56.33,1.34-112.71,.69-169.03-.66-112.82-2.71-225.51-8.84-338.32-11.95-222.15-6.12-445,2.3-659.43,65.89-58.83,17.45-116.68,38.18-173.51,61.32-49.64,20.21-100.36,40.97-147.64,66.71-2.75-1.8-6.14-2.53-9.63-1.99-.44,.07-.87,.16-1.31,.26-.18-2.94-1.88-5.79-4.99-6.99-9.01-3.47-18.71,7.13-21.18,14.56-7.98,24.04,15.64,46.82,33.83,58.42,22.05,14.06,47.91,20.62,71.26,32.07,.23,.11,.47,.23,.7,.34,34.34,16.95,60.64,46.84,73.13,83.04,11.86,34.37,33.15,65.82,67.31,79.95,51.8,21.44,111.84,4.69,164.72-3.35,59.32-9.01,119.28-15.86,179.38-13.28,60.63,2.61,120.75,12.75,181.52,12.99,46.36,.18,98.94-4.46,143.14-23.97,29.38-12.97,62.67-14,92.97-3.34,8.75,3.08,17.5,6.14,26.31,8.8,28.54,8.6,58.26,13.08,88.02,14.11,25.82,.89,53.25,.92,77.77-8.28,9.18-3.45,19.14-8.4,23.97-17.43,5.24-9.81,2.46-23.76-8.16-28.82,2.32-10.31-11.48-22.5-18.94-27.21-12.05-7.62-26.06-9.48-39.98-10.66-7.74-.65-15.38-1.58-22.94-2.73-27.06-4.14-29.34-42.33-3.02-49.87,24.54-7.03,50.64-9.97,75.41-12.15,53.03-4.67,109.64-6.78,155.85-36.43,44.02-28.25,72.41-74.53,111.11-108.92,16.72-14.86,37.84-30.55,61.82-45.32,51.61-31.78,110.88-48.98,171.48-50.3,19.47-.42,38.94-.97,58.38-1.22,50.52-.67,101.05-.62,151.57,.14,101.03,1.52,202.04,5.77,302.83,12.87,13.04,.92,28.92,3.81,41-2.73,11.35-6.15,17.51-19.31,13.25-31.63-4.16-12.05-17.92-18.86-27.75-25.7Z"/>
          <path class="cls-5" d="M1575.82,1504.71c-9.88-.41-19.64,.44-29.4-1.75-.46-.18-.91-.36-1.37-.54,.15-.45-.09-1.82-.09-1.79-.21-2.29-.7-4.44-1.96-6.39,1.53-.65,2.83-1.66,3.61-3.33,.94-2,.47-4.03-1.39-5.3-4.28-2.93-10.54,.54-15.49,.07-5.15-.48-10.14-3.23-11.92-8.32-2.02-5.79-10.79-3.52-9.28,2.56,.69,2.79,1.95,5.27,3.62,7.4-.2,.72-.25,1.49-.09,2.26,.51,2.47,2.01,4.41,1.74,7.05-.26,2.57-1.76,4.74-3.89,6.13-3.75,2.46-10.78,2.33-13.51-1.76-1.04-1.55-3.35-1.7-4.35,0-.32,.55-.56,1.09-.75,1.64-7.44-3.28-18.3-3.1-25.55,.98-3.05,1.72-5.17,5.24-4.22,8.79,1.05,3.92,5.02,5.78,8.54,6.86,8.89,2.75,19.2,1.33,28.39,1.78,10.34,.5,20.63-.26,30.97-.16,10.03,.09,19.19,4.59,29.18,4.57,4.7-.01,9.39-.65,14.03-1.34,4.12-.61,9.38-.71,12.49-3.94,2.51-2.61,2.75-6.4,1.35-9.61-1.92-4.39-6.18-5.67-10.64-5.85Z"/>
          <path class="cls-5" d="M1948.07,1372.39c-.5-7.89-8.1-9.46-14.54-9.4-7.03,.06-13.96,.9-20.99,.72-10.02-.25-20.05-.31-30.07-.35,.72-.34,1.43-.71,2.12-1.13,.78-.46,1.23-1.23,1.37-2.06,3.85-1.65,7.19-4.4,7.78-8.49,.62-4.26-3.07-7.39-7.12-5.47-2.19,1.04-3.77,2.92-5.97,3.96-2.17,1.03-4.53,1.65-6.92,1.7-6.33,.14-12.56-1.38-18.91-1.09-5.7,.26-11.33,1.52-17.04,1.43-2.77-.04-5.43-.47-8.05-1.39-2.43-.85-4.1-1.96-6.7-1.2-1.31,.38-2.34,1.64-2.31,3.04,.15,6.55,9.22,8.36,14.34,8.94,1.6,.18,3.2,.25,4.8,.24-.06,.65,.01,1.3,.21,1.93-17.01,.52-34,1.38-51.01,2.22-.77-1.18-2.01-2.09-3.43-2.21-5.2-.43-12.25-.72-17.03,1.83-5.08,2.72-5.47,9.25-1.43,13.01,3.7,3.45,10.23,4.7,15.01,5.61,6.21,1.17,12.54,1.59,18.84,1.53,12.19-.11,24.38-1.21,36.57-1.57,13.4-.4,26.81-.7,40.22-1.04,13.41-.33,26.84-.49,40.25-.29,6.19,.09,12.48,.78,18.63,.71,6.25-.07,11.77-4.67,11.36-11.19Z"/>
          <path class="cls-5" d="M2281.18,1295c-8.64-5.08-19.54-3.52-29.04-3.35-1.89,.03-4,0-6.11-.19-.84-.75-1.86-1.31-3.04-1.55-2.01-.42-4.02-.8-6.04-1.14-2.22-1.42-3.88-3.52-4.5-6.6-.73-3.65-5.08-5.74-8.47-4.81-14.51,3.98-30.68,3.24-44.97-1.31-7.36-2.35-10.36,9-3.17,11.5,1.49,.52,2.97,.98,4.46,1.42-5.41,.78-10.81,1.68-16.18,2.67-5.85,1.07-12.98,1.75-18.87,4.23-.22-.18-.45-.35-.72-.49-6.91-3.58-16.41-4.9-21.17,2.88-4.29,7.01-.31,15.07,7.52,16.72,8.88,1.87,18.74,1.4,27.79,1.97,9.64,.6,19.29,1.11,28.94,1.42,19.21,.6,38.49,.44,57.63-1.44,9.93-.98,19.76-1.79,29.57-3.67,3.94-.75,7.82-2.03,9.96-5.7,2.59-4.45,.77-9.98-3.58-12.53Z"/>
          <path class="cls-5" d="M1674.33,1273.54c-6.54-3.36-16.36-2.17-23.56-1.67-3.82,.27-17.9,1.25-15.24,8.38,2.25,6.04,10.92,4.76,16.09,4.7,3.42-.04,6.83-.05,10.25,.07,3.69,.13,7.45,.87,11-.32,4.66-1.56,6.4-8.62,1.46-11.16Z"/>
          <path class="cls-5" d="M2122.49,1474.62c-7.76-.45-15.48-.6-23.24-.37-7.46,.22-14.93,.5-22.37,1.15-6.14,.53-16.62,.12-20.03,6.25-.99,1.78-.62,3.75,.67,5.23,4.36,4.99,14.33,2.81,20.21,2.56,7.17-.31,14.34-.52,21.51-.41,7.17,.11,14.36,.29,21.52,.59,6.08,.26,16.81,3.14,21.12-2.41,1.63-2.09,2.12-4.32,.87-6.75-3.41-6.66-13.9-5.46-20.27-5.83Z"/>
          <path class="cls-5" d="M1951.56,1470.48c-8.51-4.23-19.71-4.08-28.75-1.92-2.13,.51-3.75,2.72-3.72,4.88,0,.37,.04,.74,.12,1.1,.02,.08,.04,.16,.06,.24,.52,2.18,2.71,3.69,4.88,3.72,4.49,.06,9.1,.04,13.56-.56,4.28-.57,9.04-.77,13.14-2.07,2.27-.71,3.1-4.21,.71-5.4Z"/>
          <path class="cls-5" d="M2208.94,1435.14c-2.21-.37-5-.4-6.62,1.35-1.08,1.17-1.08,2.87,0,4.04,1.62,1.75,4.41,1.74,6.62,1.35,2.02-.35,4.05-.68,5.58-2.17,.65-.63,.65-1.76,0-2.4-1.51-1.48-3.57-1.83-5.58-2.17Z"/>
          <path class="cls-5" d="M1933.87,1270.25c4.94,.37,9.7,.25,14.59-.62,2.75-.49,3.14-4.7,.78-5.93-4.42-2.31-8.96-3.85-13.81-4.96-4.43-1.01-10.09-2.29-14.11,.22-2.57,1.61-2.8,4.8-.9,7,3.04,3.54,9,3.96,13.45,4.29Z"/>
          <path class="cls-5" d="M1639.45,1381.77c-4.13-2.05-9.68-2.03-14.26-1.95-5.05,.09-10.53,.2-15.27,2.06-4.72,1.84-5.75,9.23,0,10.66,5.01,1.24,10.2,.81,15.27,.23,4.55-.52,10.42-.96,14.26-3.55,2.49-1.68,3.09-5.91,0-7.45Z"/>
          <path class="cls-5" d="M2085.23,1383.26c-3.58-2.58-7.5-3.28-11.83-3.81-4.19-.51-8.42-.83-12.31,.97-3.21,1.49-2.36,5.75,0,7.45,3.36,2.41,8.32,2.62,12.34,2.88,4.25,.28,7.95-.09,11.8-1.89,2.42-1.13,1.78-4.33,0-5.61Z"/>
          <path class="cls-5" d="M2372.94,1262.16c-5.25-4.98-14.75-4.04-21.31-2.92-3.47,.59-2.67,5.27,0,6.26,5.9,2.2,15,4.69,20.75,.99,1.45-.93,1.9-3.07,.56-4.34Z"/>
          <path class="cls-5" d="M344.34,1621.66c-3.89,.06-9.28-.09-12,3.15-1.23,1.47-1.95,3.83-.72,5.58,2.67,3.79,7.15,4.19,11.47,4.68,3.92,.45,9.55,.55,12.31-2.77,1.35-1.63,2.13-4.18,.79-6.11-2.63-3.79-7.45-4.6-11.84-4.54Z"/>
          <path class="cls-5" d="M164.5,1471.95c-11.86-4.02-24.59-5.23-37.01-3.63-10.57,1.35-24.02,4.04-28.95,14.8-4.92,10.73,1.18,22.91,11.86,26.96,10.81,4.1,22.97-1.45,27.77-11.79,2.07-4.46-3-8.67-6.85-5.29-2.4,2.11-5.51,4.08-8.76,4.88,.57-1.02,.83-2.23,.65-3.63-.94-7.05,6.86-8.92,12.47-9.14,8.92-.36,17.99,.5,26.83,1.6,3.65,.46,6.98-3.21,7.38-6.51,.45-3.82-1.75-7.01-5.38-8.24Z"/>
          <path class="cls-5" d="M226.22,1120.16c4.94,1.45,10.13,1.13,15.22,1.24,5.14,.11,10.29,.26,15.43,.47,4.85,.2,9.69,.4,14.54,.28,4.5-.12,10.68,.21,14.58-2.23,2.03-1.27,2.3-3.89,.73-5.63-3.08-3.41-9.13-4.62-13.49-5.59-5.37-1.2-10.88-1.72-16.37-1.94-10.27-.42-22.43-1.12-32,3.05-4.71,2.05-2.92,9.11,1.35,10.36Z"/>
          <path class="cls-5" d="M41.24,1388.12c-.39-.08-.78-.15-1.17-.2-.57-.24-.73-.21-.46,.11-1.21-.21-1.93-.83-3.28-.82-1.97,.03-3.85,.53-5.6,1.4-1.74,.86-2.59,3.08-2.34,4.89,.27,1.98,1.63,3.46,3.52,4.08,1.68,.55,3.41,.59,5.15,.36,1.63-.22,2.71-.84,4.2-1.36,1.84-.64,3.22-2.21,3.22-4.23,0-1.82-1.35-3.87-3.22-4.23Z"/>
          <path class="cls-5" d="M626.86,1579.8c-4.39-2.26-10.04-2.29-14.89-2.82-5.27-.58-10.68-.86-15.97-.75-4.99,.1-6.51,8.05-1.22,9.04,5.16,.97,10.42,1.55,15.65,1.96,4.82,.38,10.84,1.32,15.49-.17,3.07-.98,4.14-5.62,.95-7.26Z"/>
          <path class="cls-5" d="M1090.63,1580.79c-6.05-1.09-12.22-1.96-18.36-2.37-7.4-.49-8.83,11.08-1.74,12.85,5.99,1.5,12.12,2.5,18.23,3.3,5.61,.74,11.59,1.44,16.83-1.14,2.38-1.17,2.63-4.72,.83-6.47-4.13-4.01-10.32-5.2-15.8-6.18Z"/>
          <path class="cls-5" d="M1398.67,1434.91c-3.75-.69-7.43-1.58-11.24-1.72-3.98-.14-7.98-.12-11.96-.19-7.84-.12-15.64-.09-23.37,1.3-4.16,.75-4.16,7.66,0,8.41,7.73,1.39,15.53,1.42,23.37,1.3,3.98-.06,7.98-.01,11.96-.19,3.82-.17,7.49-1.03,11.24-1.72,3.56-.66,3.56-6.54,0-7.2Z"/>
        </g>
        <g>
          <path class="cls-3" d="M244.61,1124.43c-6.93-1.98-13.82-2.21-21-1.93-6.23,.24-8.04,9.71-1.52,11.24,8.27,1.94,15.71,1.82,23.54-1.5,3.56-1.51,2.2-6.9-1.02-7.82Z"/>
          <path class="cls-3" d="M152.25,1487.53c-6.82,.11-7.34,8.99-1.53,11.27,6.65,2.61,16.97,5.59,23.54,1.67,2.5-1.49,2.52-4.48,.84-6.55-4.75-5.87-15.87-6.51-22.86-6.39Z"/>
          <path class="cls-3" d="M222.4,1563.45c-3.45,.02-4.41,5.46-.84,6.19,4.33,.88,10.4,2.78,14.46,.31,1.31-.79,1.7-2.78,.5-3.88-3.56-3.26-9.63-2.64-14.12-2.61Z"/>
          <path class="cls-3" d="M499.3,1599.78c-5.73-1.18-11.58-1.96-17.43-2.31-5.85-.35-11.69-.11-17.52,.57-5.7,.67-12.33,.67-14.97,6.52-.5,1.1-.52,2.46,.43,3.35,4.34,4.05,9.08,2.4,14.54,1.97,5.55-.43,11.16-.43,16.72-.14,5.3,.28,10.54,.97,15.73,2.08,4.85,1.04,10.73,2.22,15.66,1.27,2.91-.56,3.31-4.24,1.63-6.16-3.44-3.91-9.83-6.12-14.79-7.15Z"/>
          <path class="cls-3" d="M1003.38,1574.95c-3.79-1.6-7.85-1.5-11.93-1.41-4.29,.1-8.58,.11-12.76,1.15-3.28,.81-3.28,5.82,0,6.64,4.18,1.04,8.47,1.05,12.76,1.15,4.08,.09,8.15,.19,11.93-1.41,2.32-.98,2.32-5.13,0-6.11Z"/>
          <path class="cls-3" d="M1366.34,1577.5c-3.94,.16-16.78,1.07-13.36,8.26,2.77,5.82,11.51,4.83,16.85,4.99,6.28,.19,13.8,1.26,18.31-4.07,1.37-1.62,1.38-3.58,0-5.21-5.12-6.05-14.74-4.25-21.8-3.97Z"/>
          <path class="cls-3" d="M1507.25,1388.22c-2.32-1.74-6.34-2.51-9.19-2.9-3.02-.41-7.12-.71-10.01,.28-2.8,.96-3.6,4.87-.85,6.47,2.78,1.61,7.05,2.14,10.24,2.31,3.07,.16,7,.06,9.8-1.31,2.1-1.02,1.53-3.71,0-4.85Z"/>
          <path class="cls-3" d="M1537.36,1468.29c-.8-.3-1.97-.21-2.9,.1-.92-.78-2.12-1.18-3.45-1-2.36,.32-3.7,2.17-3.92,4.44-.42,4.28,3.26,8.61,7.7,8.35,2.86-.17,5.04-1.85,6.02-4.52,.42-1.15,.41-2.34,.18-3.52-.39-1.99-1.81-3.17-3.63-3.84Z"/>
          <path class="cls-3" d="M1499.96,1490.53c-.09,.19-.17,.36-.23,.51-.53,.25-.93,.63-1.3,1.13-1.03,1.39-.52,3.42,.69,4.52,.99,.9,2.25,1.39,3.59,1.37,1.38-.02,2.78-.65,3.73-1.66,.59-.63,1.15-1.48,1.34-2.33,.38-1.7-.07-3.11-1.2-4.4-1.7-1.94-5.47-1.5-6.61,.85Z"/>
          <path class="cls-3" d="M1862.2,1335.59c-4.62-.45-9.45,.27-14.11,.22-3.35-.04-8.63,.89-11.51-1.03-4.59-3.06-8.58,2.71-6.8,6.8,2.36,5.42,9.1,5.32,14.16,5.68,6.3,.46,13.59,.86,19.74-.72,6.45-1.65,4.48-10.37-1.48-10.95Z"/>
          <path class="cls-3" d="M2195.37,1253.92c-5.88-2.08-14.56-2.95-20.17,.08-.63,.34-1.12,.84-1.47,1.43-1.75,.41-3.27,2.04-3.22,3.88,.18,5.63,5.46,8.11,10.4,9.02,5.28,.98,14.04,1.46,18.21-2.71,4.26-4.26,1.16-9.97-3.75-11.71Z"/>
          <path class="cls-3" d="M2037.11,1264.44c-3.55-1.96-7.96-1.44-11.88-1.25-4.01,.19-7.75-.21-10.37,3.19-.69,.9-.61,2.56,0,3.47,2.42,3.62,7.06,3.3,11.04,3.27,4.22-.03,8.58-.27,11.94-3.04,1.78-1.47,1.15-4.6-.73-5.63Z"/>
          <path class="cls-3" d="M2388.57,1407.57c-2.75-4.69-8.39-5.64-13.4-6.22-4.89-.57-11.72-1.65-15.29,2.49-1.54,1.78-2.01,4.17-.81,6.28,2.8,4.92,9.33,5.15,14.44,5.61,4.9,.44,10.9,.66,14.44-3.34,1.18-1.33,1.55-3.23,.62-4.82Z"/>
          <path class="cls-3" d="M2282.96,1215.52c-4.65-3.73-12.51-3.08-18.21-3.59-3.94-.36-4.86,6.22-.94,6.95,5.66,1.05,13,3.78,18.53,1.44,1.71-.72,2.03-3.66,.62-4.8Z"/>
          <path class="cls-3" d="M2264.2,1502.31c-7.56-.37-17-.58-24.26,1.66-5.71,1.77-6.15,10.47,0,12.03,7.47,1.9,16.63,1.2,24.26,.5,4.25-.39,15.39-1.03,15.42-7.41,.03-6.41-11.24-6.58-15.42-6.78Z"/>
          <path class="cls-3" d="M1792.03,1464.82c-4.28-2.06-8.19-1.56-12.77-.95-4.71,.62-9.47,1.06-14.19,1.61-4.34,.51-5.66,6.45-1.07,7.9,8.3,2.63,22.19,5.05,28.85-2.17,1.65-1.78,1.64-5.21-.82-6.39Z"/>
          <path class="cls-3" d="M1802.28,1215.62c-4.82-3.43-12.09-4.62-17.87-5.06-5.73-.44-13.46-1.72-17.85,2.76-1.98,2.01-1.61,4.72,0,6.79,3.6,4.59,12.48,4.48,17.85,4.49,5.9,.02,12.6-.23,17.87-3.12,2.4-1.32,1.97-4.45,0-5.86Z"/>
          <path class="cls-3" d="M252.56,1051.32c-9.14-5.64-19.51-7.56-30.02-8.97-4.98-.67-10.02-.98-15.04-.8-4.99,.18-11.34,.21-15.65,2.94-.99,.63-1.74,1.57-2.22,2.64-.75-.1-1.49-.19-2.24-.27-2.75-.28-5.48,2.19-6.17,4.7-.81,2.95,.65,5.49,2.94,7.23,8.92,6.75,21.43,9.07,32.28,10.47,11.44,1.48,22.58,.93,33.93-1.11,8.18-1.48,8.45-12.97,2.2-16.83Z"/>
          <path class="cls-3" d="M361.84,1056.38c.22-3.72-2.06-7.69-6.85-7.81-10.67-.28-21.34-.75-32.01-.59-10.84,.16-21.26,2.04-32.01,2.98-.74,.06-1.36,.42-1.84,.93-4.76-.67-9.71-1.17-13.94,.32-6,2.11-6.53,9.14-1.67,12.76,5.44,4.04,14.03,4.06,20.53,4.9,7.1,.92,14.23,1.67,21.37,2.25,13.98,1.14,28.02,1.21,42.04,.79,9.54-.29,11.04-12.81,4.38-16.52Z"/>
          <path class="cls-3" d="M164.89,1159.57c1.69-1.46,1.69-4.71,0-6.17-4.14-3.57-10.66-4.41-15.98-4.81-6.09-.46-12.08,.67-18,1.87-5.96,1.21-5.97,10.85,0,12.06,5.89,1.19,11.94,2.39,18,1.87,5.36-.46,11.8-1.2,15.98-4.81Z"/>
        </g>
        <g>
          <g>
            <path class="cls-9" d="M1257.96,1443.5c-17.74-4.82-37.27-7.29-59.72-7.56-2.79-.03-6.09-.07-9.41-.07-13.45,0-29.15,.51-43.6,4.28-15.18,3.96-33.88,14.87-39.08,29.45-2.97,8.33-.99,16.83,5.73,24.59,13.85,16,45.19,18.71,62.03,20.16,8.15,.7,16.31,1.06,24.27,1.06h0c22.86,0,44.11-2.87,63.19-8.54,16.41-4.87,31.62-11.81,31.87-29.42,.29-21.13-21.98-30.34-35.28-33.95Z"/>
            <path class="cls-9" d="M732.16,1041.65c2.81,10.76,12.97,17.72,25.9,17.72h0c11.93,0,22.13-6.1,25.97-15.54,3.45-8.47,3.56-17.06,3.67-25.36,.1-7.71,.19-14.98,2.99-21.42,1.87-4.3,1.44-9.22-1.14-13.15-2.67-4.07-7.15-6.5-11.99-6.5-.44,0-.88,.02-1.32,.06-5.16,.46-10.09,1.76-14.66,3.86-21.11,9.68-35.14,38.45-29.42,60.35Z"/>
            <path class="cls-9" d="M1548.63,1122.55c-44.52,0-89.05,0-133.58,0h-16.07c-29.42,0-58.22,.01-87.13,.17h-1.27c-30.62,0-59.41-5.38-89.9-11.09-3.92-.73-7.86-1.47-11.81-2.2-140.55-25.87-263.47-53.62-375.8-84.84-2.99-.83-6.07-1.25-9.14-1.25-14.52,0-27.57,9.36-32.47,23.3-2.88,8.18-7.87,13.69-15.71,17.34-5.27,2.45-11.45,3.75-17.89,3.75-10.94,0-20.7-3.73-26.8-10.23-13.37-14.25-7.74-38.05-5.7-45.01,1.41-4.81,3.59-9.6,6.48-14.24,3.5-5.62,3.74-12.43,.64-18.23-3.05-5.71-8.75-9.24-15.24-9.44-12.44-.39-25.83-.59-39.81-.59-48.63,0-102.94,2.47-138.36,6.29-42.15,4.54-90.19,11.33-126.98,34.62-17.25,10.92-29.29,25.03-34.8,40.78-3.18,9.09-5.1,18.37-6.96,27.35-2.71,13.12-5.27,25.52-11.46,37.46-20.05,38.72-61.87,47.27-102.31,55.55-1.91,.39-3.81,.78-5.71,1.17-44.96,9.28-92.29,20.41-133.28,45.19-22.98,13.9-35.42,28.35-38.05,44.19-2.59,15.7,5.89,31.67,24.51,46.19,11.94,9.32,25.53,15.54,38.68,21.56,5.46,2.5,11.12,5.09,16.54,7.86,19.57,9.97,37.7,22.68,53.88,37.77,16.15,15.06,30.12,32.08,41.51,50.57,4.09,6.64,7.65,13.78,11.41,21.34,6.61,13.27,13.44,26.98,23.39,37.75,12.33,13.34,29.03,19.82,51.05,19.82,23.82,0,49.47-7.79,70.08-14.05,2.49-.75,4.91-1.49,7.25-2.19,6.36-1.89,12.8-3.87,19.04-5.77,39.28-12.01,79.9-24.44,121.88-24.97,1.29-.02,2.59-.03,3.87-.03,50.28,0,98.27,12.31,138.6,24.35,7.92,2.36,15.99,4.86,23.79,7.27,39.04,12.07,79.41,24.55,121.1,27.17,4.72,.3,9.5,.45,14.18,.45,42.09,0,82.64-11.92,120.53-35.42,27.75-17.2,53.03-38.54,77.48-59.18,8.76-7.4,17.82-15.05,26.84-22.37,42.59-34.6,78.82-54.75,117.49-65.34,20.31-5.56,41.85-9.13,65.86-10.91,7.31-.54,15.11-.78,25.27-.78,4.45,0,8.99,.05,13.37,.09,4.4,.04,8.95,.09,13.44,.09,6.95,0,12.67-.11,18-.35,41.05-1.81,78.84-24.27,112.33-66.74,42.42-53.82,71.26-81.85,106.41-103.42,6.52-4,9.39-11.34,7.31-18.7-2.08-7.36-8.37-12.12-16.02-12.12ZM308.52,1381.45c-2.44-.12-4.87-.2-7.31-.29-11.08-.38-21.55-.74-31.64-4.37-17.69-6.38-30.54-21.79-32.74-39.27-1.9-15.14,4.73-29.07,18.19-38.2,20.86-14.15,50.83-22.26,82.22-22.26,10.08,0,19.91,.84,29.2,2.49,21.24,3.78,40.98,17.6,49.12,34.37,5.75,11.85,5.36,24.55-1.15,36.72-9.66,18.09-32.83,28.61-68.87,31.27-3.8,.28-7.8,.42-12.22,.42-7.11,0-14.38-.36-21.42-.71l-3.37-.17Z"/>
            <path class="cls-9" d="M1269.74,202.23c7.66,26.41,19.57,75.73,23.04,90.21,3.81,15.93,17.92,27.06,34.3,27.07,0,0,210.8,.08,210.8,.08,5.4,0,10.34-2.5,13.53-6.86,3.19-4.35,4.09-9.8,2.46-14.94-7.52-23.76-15.67-46.37-25.54-73.47-3.59-9.85-7.71-19.87-11.69-29.56-4.48-10.9-9.12-22.18-13.07-33.37-5.38-15.24-19.88-25.49-36.1-25.49-10.98,0-21.96-.01-32.95-.02-12.01-.01-28.08-.05-45.72-.08-27.39-.06-58.43-.12-84.02-.12-10.77,0-20.56,.01-28.69,.04-6.53,.02-12.47,3.08-16.29,8.38-3.82,5.3-4.83,11.9-2.79,18.1,3.45,10.45,9.68,29.55,12.72,40.03Z"/>
            <path class="cls-9" d="M1208.73,209.38c-5.75,12.6-6.58,26.81-2.34,39.99,4.25,13.18,13.21,24.23,25.23,31.11,8.33,4.76,16.9,9.77,25.47,14.88,2.26,1.34,4.79,2.06,7.33,2.06,4.4,0,8.66-2.12,11.4-5.66,2.7-3.5,3.6-8,2.46-12.35-2.7-10.27-5.64-20.61-8.49-30.6-1.88-6.59-3.82-13.41-5.63-20.01-2.88-10.49-6.31-21.17-9.62-31.5-2.62-8.16-5.33-16.61-7.76-24.93-1.43-4.9-5.83-8.19-10.94-8.19-4.62,0-8.62,2.65-10.44,6.92-5.7,13.38-9.66,22.6-12.12,28.19-1.11,2.52-2.64,5.92-4.55,10.11Z"/>
            <path class="cls-9" d="M1096.38,214.89c12.34,5.38,25.65,11.21,37.47,16.42,6.53,2.88,13.44,4.34,20.53,4.34,0,0,0,0,0,0,19.34,0,36.78-10.72,45.52-27.97l3.5-6.9c2.88-5.68,8-16.17,16.09-33.01,2.45-5.09,2.12-10.96-.87-15.72-3.02-4.81-8.16-7.68-13.73-7.68-1.3,0-2.61,.16-3.9,.47-9.18,2.21-40.42,9.77-56.76,14.58-11.73,3.45-31.62,10.15-46.23,15.17-8.64,2.96-14.23,10.47-14.6,19.6-.37,9.12,4.6,17.06,12.97,20.71Z"/>
            <path class="cls-9" d="M1029.91,606.24c.05,30.57,8.91,60.27,25.63,85.87,7.37,11.29,32.11,49.31,40.8,64.22,.15,.26,.39,.64,.69,1.1,.38,.59,.71,1.13,1.01,1.62-.88-1.11-1.9-2.51-3.06-4.2-.64-.93-1.14-1.66-1.55-2.17-5.47-6.73-10.93-13.47-16.39-20.21l-10.14-12.51c-4.03-4.97-14.04-17.77-23.69-30.67-12.7-16.98-32.14-27.66-53.33-29.3-7.94-.61-16.4-1.31-23.83-1.96-.63-.05-1.27-.08-1.91-.08-11.7,0-21.42,9.53-21.66,21.25-.34,16.72-1.01,39.94-1.43,51.87-.38,10.92-.41,22-.43,32.71-.02,7.31-.03,14.87-.16,22.29-.17,9.8-.51,18.7-1.04,27.2-.11,1.84-.16,3.76-.21,5.8-.06,2.18-.11,4.48-.26,6.73-.02-.28-.04-.51-.04-.68-.26-9.15-.5-18.11-.6-27.08-.08-7.15-.05-14.43-.03-21.47,.04-10.8,.07-21.98-.25-32.99-.34-11.62-1.55-44.71-2.48-69.52-.42-11.16-8.72-20.62-19.74-22.5-5.55-.94-11.24-1.97-16.91-3.06-1.18-.23-2.38-.34-3.56-.34-10.03,0-18.41,8.15-18.67,18.17-1,38.6-.84,77.82-.69,115.75,.09,23.11,.19,47.01,.03,70.51-.08,11.76-1.03,46.71-1.73,71.98-.37,13.48,7.84,25.77,20.43,30.58l21.71,8.3c1.59,.61,3.24,.91,4.91,.91,7.55,0,13.71-6.16,13.72-13.72,.02-10.46,.04-21.67,.1-32.75,.05-9.46,.11-19.25,.64-29,.07-1.36,.13-2.8,.18-4.28,.2-5.7,.42-12.03,2.2-16.97,.56,1.56,1.05,3.3,1.21,4.25,.9,5.23,1.22,10.75,1.53,16.09l.05,.88c.59,10.09,.92,20.99,1.01,33.31,.02,3.16,.06,7.77,.11,12.92,.05,5.09,.09,10.71,.14,15.98,.11,13.59,8.37,25.55,21.04,30.46l16.8,6.5c13.72,5.31,27.44,10.62,41.16,15.94,49.29,19.1,181.2,68.94,220.46,83.76,1.78,.67,3.6,1.01,5.44,1.01,5.11,0,10.02-2.75,12.81-7.18,2.81-4.47,3.1-9.79,.79-14.6-8.51-17.69-51.91-107.8-70.74-144.03-4.62-8.89-9.42-17.85-14.07-26.52-6.54-12.19-13.3-24.79-19.61-37.34-2.8-5.57-5.5-11.32-8.1-16.89-2.06-4.4-4.19-8.95-6.36-13.39-1.52-3.11-3.18-6.18-4.79-9.15-1.93-3.58-3.8-7.04-5.45-10.55,2.4,3.48,4.6,7.2,6.74,10.82,.72,1.21,1.43,2.43,2.16,3.63,3.15,5.25,6.53,10.44,9.79,15.47,3.67,5.65,7.46,11.5,10.92,17.38,11.91,20.29,23.25,41.45,34.21,61.9l4.2,7.83c14.79,27.56,42.79,81.09,62.81,119.73,2.21,4.27,6.36,6.82,11.09,6.82,5.99,0,12.48-4.3,12.7-12.27,.99-35.94,2.22-82.14,2.71-104.04,3.15-139.51,4.27-277.36,3.32-409.72-.23-31.31-.48-66.8-1.01-101.49-.14-8.97-.07-18.31,0-27.35,.08-10.67,.15-21.7-.09-32.55-.47-20.72-11.37-39.64-29.17-50.59-9.01-5.54-21.86-13.42-29.44-17.81-47.94-27.72-100.37-52.96-170.01-81.85-2.87-1.19-5.87-1.79-8.91-1.79-12.77,0-23.2,10.41-23.24,23.2-.06,18.93-.19,44.65-.31,70-.17,34.34-.33,66.77-.33,82.27,0,51.64,.15,155.29,.25,217.22v.35Z"/>
            <path class="cls-9" d="M875.06,561.14c.9,22.52,1.76,43.78,2.21,57.12,.32,9.55,7.08,17.62,16.44,19.62,4.21,.9,8.87,1.93,13.44,2.94l2.24,.49c1.49,.33,3,.49,4.51,.49,11.23,0,20.34-8.81,20.75-20.06,.33-9.13,.75-20,1.14-30.15,.39-10.02,.74-19.34,.96-25.59l.28-8c.59-17.05,1.2-34.68,1.91-52.01,.21-5.12,.26-10.51,.3-15.72,.12-14.06,.25-28.58,3.39-41.54,.04,.04,.08,.08,.12,.12,1.01,1.43,1.03,8.03,1.05,10.51,0,1.29,.01,2.41,.06,3.26,.49,7.88,.7,16.32,.66,27.38-.06,19.43-.32,39.43-.77,59.44-.33,14.7-1.01,56.5-1.32,79.13-.15,10.84,7.86,19.86,18.64,20.97,12.67,1.31,25.42,2.22,37.89,2.73,.29,.01,.58,.02,.86,.02,5.6,0,10.85-2.18,14.8-6.14,3.92-3.94,6.07-9.17,6.05-14.73-.32-79.93-.4-158.36-.43-224.54,0-10.99-.04-32.54-.08-57.71-.08-45.43-.17-101.96-.14-130.21,.01-11.69-9.49-21.26-21.18-21.33-7.62-.05-18.97-.1-29.8-.11-11.66,0-21.22,9.49-21.3,21.16-.13,18.78-.44,45.58-.65,58.82-.14,9.05-.54,18.27-.93,27.18-.46,10.68-.94,21.73-.99,32.65-.02,5.43,.07,10.99,.16,16.36,.24,13.95,.48,28.38-1.25,42.12-.41,3.23-1.09,6.37-1.76,8.62,0-.02-.01-.03-.02-.05-2.65-7.94-2.6-17.36-2.55-26.48,0-1.37,.02-2.72,.01-4.04-.01-5.99,.03-12.1,.07-18.01,.09-13.76,.18-27.98-.34-41.99l-.14-3.78c-.72-19.09-2.4-63.81-2.35-90.63,.01-5.71-2.2-11.08-6.23-15.12-4.03-4.04-9.38-6.26-15.08-6.26h-.39c-8.86,.16-17.73,.34-26.59,.53-11.53,.25-20.89,9.82-20.87,21.33,.14,86.8,1.57,174.84,4.24,261.69,.59,19.12,1.82,49.8,3.01,79.47Z"/>
            <path class="cls-9" d="M908.55,980.33c-.35-4.64-3.25-8.59-7.58-10.32-5.33-2.12-10.16-4.13-14.76-6.13-4.45-1.94-9.17-2.92-14.01-2.92-6.34,0-12.55,1.73-17.97,5-11.82,7.15-26.64,16.06-37.75,22.71-4.29,2.57-6.49,7.23-5.75,12.17,.74,4.94,4.22,8.75,9.07,9.94,8.7,2.14,19.4,4.78,30.52,7.52,22.99,5.67,46.76,11.54,59.6,14.6,45.39,10.82,105.2,24.87,165.27,37.61,21.92,4.65,57.73,11.76,106.44,21.13,.51,.1,1.03,.15,1.54,.15,3.64,0,6.65-2.57,7.3-6.25,.66-3.69-1.27-7.04-4.81-8.35-35.86-13.24-101.9-37.67-141.19-52.52-16.27-6.15-46.18-17.61-70.2-26.82l-18.8-7.2c-6.75-2.58-13.83-3.89-21.04-3.89-6.55,0-13.02,1.09-19.2,3.23-7.77,2.69-14.43,4.68-19.18,5.75,1.62-1.09,3.74-2.43,6.53-4.06,4.03-2.36,6.32-6.71,5.97-11.36Z"/>
            <path class="cls-9" d="M793,968.39l.67,.1c3.24,.5,6.52,.76,9.77,.76h0c16.25,0,31.66-6.25,43.4-17.6,11.88-11.48,18.61-26.92,18.97-43.47,1.3-60.66,1.5-142.26,1.63-196.26l.02-9.01c.01-4.43-1.65-8.53-4.67-11.56-3.1-3.11-7.42-4.89-11.85-4.89-5.27,0-10.09,2.52-13.21,6.91-15.17,21.31-35.16,49.8-42.33,60.65-1.89,2.87-4.08,5.84-6.39,8.99-8.04,10.94-17.15,23.34-17.62,36.6-1.37,37.96-2.05,97.2-.5,143.97,.41,12.49,9.71,22.93,22.11,24.81Z"/>
            <path class="cls-9" d="M1565.33,415.44c-.14-8.71-.48-29.1-.87-47.05-.42-19.52-16.65-35.4-36.19-35.4l-94.44,.04c-18.18,0-50.3,.14-95.48,.38-9.68,.05-18.75,3.87-25.55,10.76-6.79,6.88-10.49,15.99-10.42,25.65,.05,7.14,0,14.4-.05,21.42-.06,8.64-.12,17.57,0,26.24,.65,42.99,.99,78.55,1.07,111.89,.33,138.93-2.3,278.75-5.2,409.15-.51,23.15-2.07,92.51-3.08,134.88-.24,9.82,3.41,19.1,10.27,26.13,6.86,7.03,16.04,10.91,25.86,10.92,35.99,.03,92.55,.04,137.8,.04h53.31c19.63,0,35.52-15.38,36.16-35,.51-15.46,1.17-34.56,1.88-54.78,1.25-35.77,2.54-72.75,2.89-88.65,3.11-138.97,4.17-278.53,3.15-414.8-.24-32.72-.53-67.54-1.1-101.81Z"/>
            <path class="cls-9" d="M2159.73,319.77h.27c12.44,0,25.18-.26,37.51-.5,8.4-.17,17.08-.34,25.61-.44,7.35-.08,13.68-4.34,16.53-11.11,2.84-6.77,1.45-14.27-3.63-19.57-27.12-28.27-50.45-51.14-73.44-71.99-19.18-17.39-39.76-34.76-61.17-51.64-2.85-2.25-5.69-4.53-8.54-6.82-7.28-5.86-14.81-11.91-22.54-17.36-6.68-4.7-15.52-5.24-21.6-5.24-3.56,0-7.09,.21-10.51,.4-3.07,.18-5.98,.35-8.61,.35-35.06,.02-70.12,.05-105.18,.06-7.49,0-14.23,4.17-17.6,10.86-3.36,6.69-2.67,14.58,1.8,20.58,4.92,6.62,8.75,11.86,11.37,15.6,20.94,29.85,40.51,60.45,55.21,83.78,2.31,3.66,5.64,8.99,9.9,15.86,14.42,23.26,39.37,37.16,66.73,37.16,35.41,0,83.65,0,107.9,.01Z"/>
            <path class="cls-9" d="M2275.41,684.42c-.23-106.88-.47-217.4-.48-326.09,0-13.96-11.35-25.33-25.31-25.34-46.67-.06-159.31-.14-212.57-.16-6.84,0-13.24,2.68-18.04,7.54-4.8,4.87-7.39,11.31-7.3,18.15,.28,20.26,.93,67.71,1.23,92.25,1.47,121.09-.21,240.53-2.38,372.92-1.06,64.62-2.4,127.97-3.99,188.29-.22,8.42-.42,16.85-.61,25.28-.35,15.28-.72,31.08-1.24,46.61-.23,6.92,2.3,13.48,7.11,18.46,4.82,4.98,11.29,7.72,18.23,7.72,8.59,0,17.18,0,25.76,0,71.9,0,135.1,.14,193.2,.43h.13c13.82,0,25.19-11.24,25.34-25.06,.15-13.4,.32-26.79,.5-40.19,.43-33.19,.88-67.52,.85-101.29-.07-86.51-.26-174.46-.45-259.52Z"/>
          </g>
          <g>
            <path class="cls-13" d="M1598.48,319.62l44.77,.02c56.63,.02,113.26,.05,169.9,.06,49.83,.02,99.65,.03,149.48,.04h0c6.37,0,12.02-3.33,15.11-8.91,3.08-5.57,2.91-12.12-.47-17.51-15.14-24.16-28.69-45.28-41.42-64.58-12.29-18.64-22.39-33.64-31.78-47.21-2.44-3.52-4.96-7.07-7.41-10.5-2.06-2.89-4.13-5.78-6.16-8.7-11.54-16.52-30.43-26.38-50.54-26.38-47.69,.02-95.39,.03-143.08,.03-52.94,0-105.87-.01-158.82-.04-7.14,0-13.75,3.55-17.7,9.49-3.94,5.94-4.64,13.41-1.88,19.98,6.56,15.57,11.28,27.12,14.03,34.35,9.38,24.66,24.87,71.62,32.55,95.49,4.69,14.57,18.12,24.36,33.43,24.37Z"/>
            <path class="cls-13" d="M2002.62,705.15c-.27,45.31-1.44,109.52-2.79,173.27-1.67,78.87-3.67,157.03-4.71,197.84l-.04,1.7c-.45,18.01-14.92,32.12-32.94,32.14-33.16,.04-66.33,.1-99.5,.15-63.34,.11-128.84,.22-193.25,.22h-67.25c-8.94,0-17.31-3.53-23.56-9.92-6.26-6.38-9.61-14.83-9.42-23.77l.12-5.59c.23-10.97,.46-22.31,.66-29.31,.99-35.39,1.9-71.63,2.69-107.69,.41-18.57,.8-36.78,1.17-54.67,2.67-129.25,4.27-241.9,3.92-355.15-.09-27.31-1.38-110.66-2.25-157.83-.16-8.92,3.19-17.34,9.44-23.71,6.25-6.37,14.61-9.88,23.54-9.88,95.36-.04,190.73-.08,286.09-.11l72.68-.03c17.94,0,32.42,14.02,32.98,31.92,3.53,112.01,3.17,224.94,2.45,340.41Z"/>
          </g>
          <path class="cls-12" d="M1987.7,880.24c-17.7,16.08-40.14,23.65-63.54,28.15-26.32,5.07-53.83,7.05-81.12,8.1-57.71,2.22-115.48-2.33-172.12-13.51-15.76-3.11-31.41-6.74-46.92-10.87-16.1-4.3-31.82-9.46-48.24-12.39-.66-.12-1.32-.19-1.99-.19-.37,17.89-.76,36.09-1.17,54.67-.79,36.06-1.69,72.3-2.69,107.69-.19,6.99-.43,18.34-.66,29.31l-.12,5.59c-.19,8.94,3.16,17.39,9.42,23.77,6.26,6.39,14.62,9.91,23.56,9.91h67.25c64.42,0,129.92-.11,193.25-.21,33.17-.05,66.34-.11,99.5-.15,18.02-.02,32.49-14.13,32.94-32.14l.04-1.7c1.04-40.8,3.03-118.96,4.71-197.84-3.62-1.83-8.2-1.75-12.13,1.82Z"/>
          <g>
            <path class="cls-6" d="M941.07,275.78c1.51-6.64-1.65-14.02-2.48-20.66-.84-6.7,.31-13.85-1.14-20.41-.71-3.21-4.84-3.15-6.47-.85-4.16,5.92-4.55,15.09-4.64,22.07-.08,7.01,.31,17.08,5.72,22.22,2.81,2.67,8.06,1.7,8.99-2.37Z"/>
            <path class="cls-6" d="M940.16,468.11c-.18-3.38-.36-6.75-.55-10.11,1.67-6.16,1.11-13.37,1.12-19.64,0-7.38,.02-14.76,.03-22.14,0-7.08-.05-14.17-.09-21.25-.03-6.24,1.22-15.2-2.46-20.6-.29-.43-.67-.71-1.08-.88,.35-11.32,.96-22.63,1.85-33.91,.55-6.93,1.23-13.86,1.88-20.78,.7-7.49,1.85-14.5,.48-21.95-.71-3.86-6.8-4.6-8.5-1.11-3.34,6.83-3.95,13.85-4.9,21.33-.88,6.91-1.54,13.84-2.1,20.78-1.2,14.74-1.94,29.51-2.22,44.3-.55,29.06-.21,58.87,4.17,87.65,1.07,7.01,12.74,5.36,12.38-1.67Z"/>
            <path class="cls-6" d="M1570.83,844.15c-.54-3.57-1.38-9.2-1.92-12.77,.36-11.9,.52-23.83,.55-35.74,.01-5.09-.04-10.19-.23-15.28-.24-6.81,.15-15.48-2.29-22.39-.56-1.58-1.88-2.89-3.45-3.68,.38-1.27,.76-2.54,1.13-3.81,2.45-8.2,6.99-17.64,6.12-26.34-.56-5.57-7.25-8.93-10.76-4.46-15.91,20.31-27.89,53.15-32.8,85.87-6.07,40.35-41.9,69.48-82.6,66.55-57.72-4.17-105.07-24.51-141.46-29.41-3.42-.46-6.8,.37-8.65,3.52-.55,.94-.88,2.11-.98,3.32-.5-.06-1-.1-1.49-.13-.11,0-.22,0-.33-.02-1-3.09-4.12-4.85-7.66-5.27-49.53-5.87-91.51-35.56-122.12-70.92-16.12-18.63-29.54-39.28-41.71-60.32-11.81-20.42-22.38-41.48-31.5-63.07-18.36-43.48-31.57-88.83-39.28-135.01-7.69-46.09-9.65-93.09-6.2-139.62,3.45-46.6,12.97-92.58,27.05-137.37,1.75-5.57,2.89-11.31,4.31-16.97,.29-1.15,.22-2.25-.09-3.26,8.91-2.31,19.62,1.62,27.64,4.59,13.81,5.12,27.55,9.43,42.18,11.48,6.08,.85,12.32,1.41,18.49,1.19,7.15,6.74,16.83,11.53,24.85,16.7,10.05,6.47,20.09,12.95,30.14,19.42,9.66,6.23,19.33,12.43,29.27,18.2,4.65,2.7,9.62,5.36,14.84,6.75,5.88,1.57,10.13,.65,15.35-1.93,3.62-1.79,2.94-7.3-.42-8.85,.09-.11,.18-.2,.26-.31,2.4-3.21,2.64-8.48-.67-11.32-7.61-6.51-15.67-12.14-22.57-19.52-6.83-7.32-12.45-15.61-16.87-24.59-4.72-9.57-7.89-20.09-9.41-30.65-.8-5.58-.33-25.36-8.62-26.71,.52-1.52,1.06-3.04,1.63-4.54,1.49-3.89,3.41-7.72,3.51-11.95,.09-3.92-4.65-7.06-8.13-4.96-.33-3.01-1.17-5.9-2.81-8.31-3.81-5.63-13.66-3.94-13.46,3.64,.12,4.41,1.39,8.41,.36,12.85-1.01,4.37-3.1,8.44-6.11,11.77-6.19,6.84-14.74,11.02-23.45,13.7-8.69,2.67-19.22,4.29-27.54-.37-7.81-4.38-9.5-11.49-11.95-19.38-1.04-3.35-6.12-5.54-8.67-2.29-.88,1.12-1.57,2.27-2.12,3.46-3.94-1.43-8.47,.15-12.33,1.31-4.69,1.41-9.38,2.85-14.06,4.3-9.08,2.83-18.06,5.96-27.18,8.69-16.37,4.92-32.3,11.13-48.18,17.45-2.8,.4-5.61,1.02-8.04,2.32-.2-.97-.4-1.93-.62-2.89-1.55-6.95-13.49-5.59-12.66,1.71,3.42,30.26,4.06,60.74,5.2,91.15,1.14,30.54,2.1,61.1,2.45,91.66,.35,30.52,.02,61.06-1.47,91.55-1.44,29.27-3.08,59.15-8.3,88.03-2.34,12.97-6.1,26.8-15.58,36.48-8.19,8.36-20.2,13.42-31.68,9.46-2.89-1-6.08,.29-8.02,2.55-.39-.27-.77-.56-1.13-.9-1.98-1.84-2.88-4.28-4.28-6.44,1.74-4.06,2.93-8.4,3.58-12.86,2.16-14.88,1.76-30.21,2.27-45.21,.31-9.16,.85-18.34,.85-27.5,0-3.14-.24-6.28-.51-9.41-.3-3.45-.22-7.01-3.1-9.37-1.22-1-3.02-1.53-4.46-.58-5.07,3.36-5,11.64-5.64,17.16-.81,6.96-1.11,13.97-1.56,20.97-.88,13.9-1.58,27.83-2.71,41.71-.81,9.87-2.69,21.47-11.19,27.78-10.14,7.52-21.59,5.28-32.78,1.88-8.27-2.51-12.61,9.1-5.71,13.55,.07,.05,.15,.09,.23,.14-.62,5.64-.02,11.65,.08,17.19,.13,6.81-.27,13.64-1.04,20.41-1.19,10.35-3.7,20.61-7.36,30.4-2.39-4.98-6.47-8.97-12.57-9-8.25-.04-13.32,8.7-17.93,14.33-5.93,7.25-11.84,14.31-16.92,22.19-.64,.99-.85,1.97-.76,2.88-.39,.45-.77,.93-1.13,1.45-2.45,3.46,.86,8.86,4.6,8.64,5.96-.35,11.1-.86,15.94,3.8,5.16,4.96,7.81,12.52,9.45,19.56,4.26,18.23,3.53,37.88,1.41,56.4-2.03,17.76-5.7,35.45-10.78,52.48-4.67,15.65-11.45,30.83-22.12,42.77-10.74,12.02-25.04,20.43-40.72,21.2-4.51,.22-6.84,4.01-6.99,7.8-.43,.59-.79,1.28-1.07,2.07-4.16,12.01,1.05,25.15,10.58,32.94-3.06,.74-5.45,3.13-5.48,6.8-.04,4.01,2.01,5.77,3.65,9.06,1.13,2.27,1.58,4.64,1.55,7.16-.06,6.08-4.34,10.92-5.59,16.72-1.25,5.76-.52,12.31,4.05,16.48,4.66,4.24,12.64,3.77,15.82-1.5,1.13,.34,2.45,.28,3.83-.36,.09-.04,.18-.09,.27-.13-1.53,12.85-5.68,25.05-15.35,34.37-7.01,6.76-17.2,11.24-27.06,9.72-9.52-1.47-16.92-8.54-20.41-17.32-.19-.49-.45-.93-.74-1.34,1.49-4.9-1.56-11.65-7.76-11.46-28.52,.86-49.92,30.07-47.56,57.61,2.54,29.7,28.28,52.65,55.13,61.87,33.07,11.36,69.97,4.61,102.94-3.64,34.17-8.55,67.42-20.71,102.01-27.61,31.65-6.32,65.4-8.08,96.43,2.17,30.04,9.92,51.77,33.47,75.81,52.77,12.31,9.89,25.23,18.9,39.8,25.16,15.22,6.53,31.14,10.35,47.59,12.12,33.59,3.6,67.58-1.97,100-10.63,65.06-17.37,133.05-49.32,201.73-32.78,7.74,1.86,15.39,4.28,22.68,7.51,4.69,2.07,10.2,1.37,13-3.41,.36-.61,.63-1.3,.83-2.01,1.57,.49,3.25,.54,4.85-.05,10.31-3.81,20.88-9.32,27.18-18.68,6.12-9.09,5.25-21.54-2.75-29.25-1.18-1.14-2.46-2.13-3.79-3.01,.2-4.31,.05-8.64-.33-12.75-.39-4.18-.87-8.89-2.05-13.31,1.12-1.06,1.95-2.41,2.22-4.02,3.12-18.09,4.6-36.47,4.5-54.83-.05-8.9-.37-17.84-1.31-26.69-.22-2.03-.45-4.07-.7-6.1,.48-5.94,1.01-11.88,1.58-17.82,.29-3.03,.65-6.09,.98-9.17,.25-.84,.43-1.72,.5-2.63,1.98-23.52,3.34-47.09,5.19-70.62,.91-11.63,1.81-23.22,2.25-34.88,.22-5.8,.32-11.63,.13-17.44-.1-3.19,.05-6.77-1.07-9.74Zm-339.16,166.43c-3.1,3.45-3.97,9.78-2.92,16.98,1.85,12.69-9.69,23.36-22.22,20.6-7.39-1.63-13.87-3.67-18.15-5.21-21.17-7.6-41.95-16.33-62.84-24.65-42.11-16.77-84.41-33.09-126.37-50.25-9.94-4.07-20.74-8.14-29.1-15.06-3.92-3.24-7.85-6.49-11.22-10.32-3.29-3.74-5.75-8.02-9.31-11.51-4.19-4.11-12.11-1.23-11.91,4.93,0,.15,.03,.3,.03,.46-.89-.93-2.07-1.69-3.58-2.14-5.09-1.52-10.79-1.02-16.03-2.15-5.27-1.14-10.38-2.87-15.17-5.36-4.57-2.38-9.05-5.15-12.95-8.52-4.32-3.74-8.59-8.65-14.44-9.39-1.17-.15-2.28,.13-3.21,.69-1.81-1.63-3.69-3.18-5.53-4.65-.14-.11-.28-.21-.42-.31,1.34-11.94,1.68-23.99,1.96-35.99,.39-16.67,.81-33.34,.99-50.02,.18-16.68,.6-33.37,.77-50.05,.16-16.06,1.01-32.15,.41-48.21-.05-1.31-.12-2.63-.2-3.95,.63-.1,1.27-.3,1.89-.61,5-2.5,9.44-5.37,14.88-6.97,5.3-1.56,10.72-2.2,16.24-1.99,10.67,.42,20.43,4.72,29.22,10.55,1.69,1.13,3.5,1.15,5.07,.51,1.13,3.31,5,5.98,8.8,5.29,7.74-1.4,14.94-5.08,22.77-6.5,7.85-1.43,15.97-1.57,23.91-.95,15.66,1.23,30.89,6.37,44.57,14,28.06,15.65,48.94,40.58,66.4,67.05,5.41,8.2,10.48,16.61,15.39,25.11,5.07,8.79,9.68,17.78,15.86,25.81,3.08,3.99,11.59,1.9,11.62-4.46,5.94,1.75,9.34,6.59,12.17,11.91,.99,1.85,1.92,3.74,2.84,5.63-1.21,1-2.24,2.14-3.03,3.5-2.29-1.59-5.64-1.69-7.64,.59-5.44,6.19-3.83,15.76,.26,22.34,4.14,6.66,12.06,11.64,20.04,10.84,2.7-.27,5.22-1.66,6.18-4.29,4.73,9.45,9.58,18.85,14.51,28.2,11.58,21.97,23.58,43.7,36.07,65.16,.02,.44,.08,.89,.19,1.36,1.65,6.82,3.95,13.67,6.71,20.35-1.24,.01-2.47,.49-3.5,1.64Z"/>
            <path class="cls-6" d="M1570.59,625.74c-1.13-9.52-1.76-19.1-1.88-28.68-.11-9.29,.16-18.62,.82-27.88,.7-9.75,2.25-19.54,1.07-29.28-.28-2.31-2-4.12-3.96-4.69,1.01-3.77,2.11-7.52,3.32-11.24,3.53-10.88-13.61-15.55-17.1-4.72-8.71,26.97-12.65,55.49-10.88,83.79,.87,14,2.68,28.17,6.18,41.77,1.7,6.61,3.7,13.13,5.99,19.56,1.82,5.11,4.61,15.28,10.9,16.34,1.7,.29,2.87-.25,3.89-1.58,1.65-2.14,1.2-5.12,1.01-7.63-.24-3.12-1.39-6.24-2.24-9.24-.05-.16-.09-.33-.13-.49,3.67-.47,7.17-3.49,7.35-7.71,.21-4.83-1.41-9.9-2.26-14.66-.81-4.53-1.53-9.09-2.07-13.66Z"/>
            <path class="cls-6" d="M2277.24,950.16c3.31-2.27,5.26-6.03,4.08-10.33-1.3-4.74-6.8-8.28-11.68-6.63-42.42,14.33-87.2,20.31-131.67,12.94-21.16-3.51-42.01-9.87-60.1-21.65-14.74-9.6-26.82-23.01-35.63-38.18-5-8.6-8.84-17.71-11.5-27.3-2.85-10.3-3.5-21.01-6.33-31.25-1.96-7.09-12.44-7.11-14.39,0-1.89,6.87-1.83,14.2-.89,21.38-1.46,.96-2.53,2.57-2.63,4.73-.23,4.94-.22,9.86-.06,14.77-.85,1.18-1.38,2.68-1.41,4.52-1.06,75.47-1.73,150.94-2.61,226.41-.05,4.06,3,7.59,6.83,8.48,.79,1.46,2.22,2.59,4.38,3,27.57,5.27,56.6,4.84,84.59,5.19,27.61,.35,55.21-.09,82.81-.82,14.1-.38,28.19-.84,42.29-1.33,6.46-.22,12.92-.46,19.37-.69,6.69-.24,13.91,.18,20.06-2.91,10.05-5.06,12.44-16.99,12.52-27.22,.03-3.21-.03-6.41-.13-9.62,2.31-1.12,4.07-3.34,4.1-6.68,.38-37.9,.06-75.8-1.21-113.68-.04-1.17-.32-2.21-.78-3.13Z"/>
            <path class="cls-6" d="M2007.96,577.63c.47,14.57,.64,29.15,1.01,43.73,.76,29.44,.86,58.95,.16,88.39-.19,8.16-.45,16.33-.78,24.49-.32,7.78-1.61,16.92,.99,24.39,.25,.72,.78,1.31,1.41,1.69-.49,7.08-.99,14.17-1.46,21.25-.34,5.05,4.54,9.35,9.35,9.35,5.59,0,8.71-4.32,9.35-9.35,5.31-41.68,6.94-83.93,7.33-125.91,.39-42.11-1.33-84.08-5.05-126.03-1.03-11.56-2.04-23.15-3.58-34.66-1.64-12.27-3.23-24.26-7.33-35.99-2.02-5.79-9.94-4.61-10.47,1.42-1.81,20.68,1.38,41.66,2.82,62.3,.24,3.47,.45,6.95,.67,10.43-1.93-1.45-5.11-1.28-5.64,1.66-1.25,6.96-.26,14.01,.16,21.02,.44,7.28,.8,14.55,1.04,21.84Z"/>
            <path class="cls-6" d="M320.1,1165.13c29.94-2.85,61.24-7.24,85.26-26.96,11.06-9.08,19.51-21.94,20.88-36.4,1.28-13.54-4.83-28.86-17.46-35.16-11.95-5.97-32.95-4.29-36.82,11.19,0,.04-.01,.08-.02,.11-.02,.03-.04,.07-.06,.1-9.46,17.08-19.53,33.97-28.34,51.4-.74,1.47-1.05,2.9-1.04,4.25-5.01,3.91-11.8,8.25-15.22,14-2.42,.24-4.82,.47-7.19,.68-4.51,.41-8.38,3.56-8.38,8.38,0,4.2,3.85,8.82,8.38,8.38Z"/>
            <path class="cls-6" d="M417.26,1347.2c-2.75,.56-5.44,1.97-6.74,4.6-.15,.3-.27,.6-.37,.91-2.41,.37-4.61,1.23-5.95,2.88-.63,.78-1.09,1.6-1.34,2.46-3.09-.63-6.24,.24-8.02,3.29-1.87,3.2-.97,8.38,2.64,10.08,7.17,3.38,14.83,6.23,22.77,3.78,7.27-2.24,12.35-8.97,11.64-16.63-.67-7.28-7.27-12.84-14.63-11.35Z"/>
            <path class="cls-6" d="M416.43,1271.47c-21.91-16.24-51.1-16.78-77.16-14.83-29.49,2.2-58.61,7.65-86.98,15.92-26.67,7.78-55.22,17.24-83.31,12.06-14.89-2.75-30.22-8.41-45.39-3.99-14.28,4.16-25.24,16.98-21.95,32.33,.6,2.79,2.58,4.28,4.83,4.65,.59,.75,1.4,1.41,2.46,1.94,24.99,12.57,49.83,25.42,74.68,38.28,1.31,.68,2.6,.92,3.81,.84,3.36,2.74,6.83,5.32,10.72,7.28,.57,.29,1.14,.46,1.71,.56,.2,.67,.47,1.35,.84,2.05,.98,1.87,3.1,2.88,5.13,2.94,4.1,.12,7.31-2.97,11.16-4.07,4.49-1.29,9.1-1.94,13.76-1.87,4.61,.07,9.86,1.34,14.27-.41,4.17-1.66,5.18-5.79,2.45-9.29-1.24-1.59-3.19-2.83-5.61-3.76,2.3-9.87,1.02-20.5,3.22-30.48,1.07-4.87,2.43-9.75,4.35-14.36,.87-2.07,2.21-4.28,3.48-6.55,.41-.13,.82-.29,1.23-.5,28.38-14.43,60.13-20.82,91.89-18.6,14.71,1.03,30.25,5.56,43.25,12.62,10.08,5.47,23.01,16,20.36,28.91-1.62,7.88,4.75,14.53,12.74,12.74,15.55-3.48,20.44-21.36,16.2-34.99-3.78-12.15-12.05-21.95-22.13-29.42Z"/>
            <path class="cls-6" d="M669.82,1441.73c-10.64-8.86-26.17-11.75-39.4-14.49-30.13-6.23-60.93-6.51-91.26-1.57-16.52,2.69-33.25,6.92-48.62,13.65-12.43,5.44-26.57,16.57-24.54,31.81,.66,4.98,3.8,9.31,9.31,9.31,2.43,0,4.71-1.02,6.41-2.63,2.17,1.69,5.05,2.37,8.32,1.14,28.17-10.56,57.4-15.09,87.44-14.13,14.42,.46,28.69,2.3,42.74,5.56,7.44,1.73,14.69,4,22,6.18,7.4,2.2,15.24,3.15,22.53,.09,14.88-6.25,17.4-24.65,5.07-34.92Z"/>
            <path class="cls-6" d="M748.82,1465.73c-10.5-9.35-24.81-13.78-38.71-11.25-7.84,1.43-15.5,5.87-18.21,13.77-2.32,6.75,.76,15.64,8.18,16.91,.81,1.6,2.04,2.93,3.73,3.68,3.64,1.6,7.3,2.71,10.96,3.36,8.86,5.76,19.52,9.06,29.95,8.4,9.31-.6,17.34-7.31,15.32-17.41-1.34-6.69-6.21-13-11.21-17.45Z"/>
            <path class="cls-6" d="M1322.26,1315.85c-7.35-5.11-15.96-6.56-24.66-7.87-8.95-1.35-17.93-2.59-26.93-3.61-17.2-1.95-34.52-2.78-51.82-1.76-29.38,1.74-58.98,8.7-84.49,23.8-11.99,7.1-23.61,16.13-32.45,26.98-5.68,6.99-9.68,16.17-5.47,24.94,3.88,8.09,13.4,11.52,21.87,9.27,7.93-2.11,13.64-8.61,19.79-13.63,5.17-4.22,10.68-8.04,16.32-11.59,11.49-7.22,23.74-13.16,36.56-17.6,14.61-5.07,29.75-8.35,45.14-9.83,8.04-.77,16.09-.96,24.16-.78,8.08,.18,16.72,1.44,24.51-.68,2.97-.81,4.6-3.05,4.97-5.54,1.11,.14,2.21,.27,3.32,.41,9.3,1.19,18.42,2.67,27.56-.21,5.78-1.82,6.35-9.02,1.61-12.31Z"/>
            <path class="cls-6" d="M1065.25,1387.61c-9.87,3.75-17.81,13.19-22.69,22.33-2.81,5.26-3.59,11.92,.76,16.64,3.9,4.23,9.78,4.96,15.09,3.31,9.7-3.01,18.63-12.34,23.01-21.27,.62-1.26,.92-2.5,.98-3.68,.3,.1,.6,.2,.91,.29,5.13,1.56,9.38-3.45,8.29-8.29-2.51-11.11-17.44-12.72-26.35-9.34Z"/>
            <path class="cls-6" d="M1258.65,1479.8c-5.6-1.22-11.23,.4-16.74,1.38-10.5,1.87-21.14,2.85-31.81,3.09-10.62,.24-21.27-.25-31.82-1.52-10.28-1.24-21.55-5.63-31.9-3.71-10.5,1.94-19.69,13.92-13.47,24.3,4.16,6.94,14.09,8.75,19.51,4.33,.02,0,.03,0,.05,0,22.45,1.88,44.98,2.68,67.5,2.31,11.11-.18,22.23-.59,33.32-1.38,4.44-.32,8.86-.89,12.48-3.69,4.81-3.71,6.36-9.77,4.27-15.4-1.83-4.94-6.27-8.6-11.39-9.72Zm-3.74,10.88c.03-.11,.05-.19,.06-.18-.34-.4,3.25,.87-.06,.18Z"/>
            <path class="cls-6" d="M940.3,780.31c.52,2.13,1.01,4.27,1.47,6.42-.46,.38-.84,.95-1.04,1.65-1.77,6.27-1.15,13.49-1.08,20.07,.07,6.73,.14,13.45,.16,20.18,.02,6.73,.1,13.45-.05,20.18-.15,6.54-1.23,14.05-.17,20.44,.04,.23,.09,.44,.15,.64-.48,2.3-.73,4.64-.22,7.06,.71,3.37,3.44,4.6,5.65,3.1,3.12-2.12,4.27-7.07,5.49-11.18,1.21-4.05,2.17-8.16,2.93-12.4,1.63-9.03,2.56-18.35,2.8-27.63,.47-18.31-1.87-36.72-7.36-53.5-2.18-6.67-10.42-1.93-8.73,4.97Z"/>
          </g>
          <g>
            <path class="cls-4" d="M862.79,367.3c.64,9.86,.68,20.04,2.39,29.77,.6,3.41,3.12,4.79,5.76,4.67-.74,25.66-1.03,51.33-1.1,76.98-.09,28.69,.1,57.39,.23,86.08,.05,10.98,19.27,11,19.11,0-.7-49.18-1.27-98.37-.42-147.55,.42-23.99,1.2-47.97,2.48-71.94,1.3-24.26,2.18-48.83,5.72-72.93,1.68-11.41,4.27-22.88,10.29-33.15,5.46-9.32,13.43-15.83,23.98-20.4,6.88-2.98,4.89-10.38-.37-13.22,2.59-3.37,.37-7.89-3.35-9.36-7.2-2.85-16.25-2.53-23.91-2.57-7.12-.04-14.12,.97-20.67,3.84-7.13,3.12-12.38,8.67-15.25,15.89-2.92,7.34-3.08,15.56-3.75,23.35-1.45,16.9-2.38,33.81-2.81,50.76-.44,17.2-1.08,34.54-.34,51.73,.4,9.38,1.4,18.7,2.01,28.06Z"/>
            <path class="cls-4" d="M948.64,322.83c3.24,.39,7.53-1.03,8.98-4.3,2.33-5.28,2.28-10.58,2.72-16.24,.36-4.57,.82-9.14,1.51-13.67,1.52-10.04,3.69-19.98,6.5-29.73,2.69-9.34,5.8-18.61,9.53-27.59,1.85-4.44,3.85-8.83,5.84-13.21,2.27-4.99,4.87-9.89,5.37-15.41,.47-5.17-6.32-8.85-10.5-6.03-1.35,.91-2.6,1.99-3.79,3.18-.7-.97-1.57-1.78-2.55-2.32-6.06-3.35-13.23-2.17-18.18,2.66-5.23,5.11-5.47,12.77-6.09,19.56-.68,7.35-.91,14.88-1.11,22.27-.09,3.21-.56,10,2.32,12.57-2.64,9.2-4.73,18.57-6.21,28.03-.86,5.5-1.58,11.02-2.11,16.56-.52,5.51-1.69,11.89,.28,17.2,1.26,3.4,3.72,6.01,7.49,6.46Z"/>
            <path class="cls-4" d="M943.61,379.34c.47,3.76,3.83,7.93,8.23,6.27,8.94-3.37,11.59-15.29,11.81-23.9,.21-8.47-2.79-22.09-12.98-22.94-2.13-.18-4.63,1.34-5.6,3.21-2.38,4.62-.44,9.8,.69,14.82-.04,.12-.09,.24-.12,.38-.64,2.99-1.82,6.34-1.42,9.42,.15,1.14,.7,2.02,1.43,2.58-.01,.04-.02,.09-.03,.13-.77,3.14-2.42,6.81-2.01,10.03Z"/>
            <path class="cls-4" d="M795.37,755.73c-5.15,2.43-7.78,8.68-9.78,14.36-2.22-.71-5-.26-6.39,1.47-.25,.31-.48,.62-.72,.93-.05,.05-.12,.12-.23,.23-.59,.62-1.11,1.34-1.52,2.1-.89,1.65-1.27,3.54-1.02,5.4,.07,.49,.17,.97,.32,1.44-3.15,4.64-5.1,10.07-6.63,15.43-1.95,6.83-3.89,13.94-3.34,21.09,.27,3.52,2.72,5.68,5.43,6.15-.86,5.5-1.57,11.02-2.14,16.56-.36,3.56-.94,7.32-.57,10.88,.4,3.85,.16,8.46,3.44,11.07,2.37,1.89,5.35,2.09,7.97,.56,3.69-2.16,4.2-7.84,4.87-11.63,1.25-7.11,1.29-14.49,2.31-21.66,1.08-7.56,2.49-15.08,4.18-22.52,1.82-7.98,4.02-15.86,6.38-23.69,2.18-7.24,7.87-17.5,5.13-25.04-1.22-3.37-4.46-4.65-7.69-3.13Z"/>
            <path class="cls-4" d="M759.67,1023.32c1.07-6.58,.9-13.69-2.97-19.41-3.71-5.48-9.73-8.75-16.34-7.4-4.98,1.02-6.65,8.53-2.89,11.68-.53,.2-1.06,.45-1.56,.75-4.05,2.43-5.81,8.18-6.57,12.55-1.54,8.86,.32,18.56,5.46,26,2.39,3.46,5.33,7,9.15,8.9,1.94,.97,5.05,1.54,7.14,.49,4.19,3.48,11.41,5.22,13.42-1.53,1.79-6.02-5.21-9.04-6.85-14.16-1.84-5.73,1.1-12.22,2.02-17.87Z"/>
            <path class="cls-4" d="M925.66,773.99c-1.18-8.49-6.36-16.85-15.07-19.11-8.45-2.19-17.36,2.33-19.73,10.9-1.45,5.27-.68,11.03-.68,16.42,0,17.19-.69,30.82-.69,47.36,0,9.32-3.42,20.09,1.83,28.47,4.89,7.79,14.57,10.51,22.37,5.29,7.99-5.34,9.41-14.88,9.29-23.78-.15-11.23-.35-22.4,.38-33.61,.67-10.42,3.72-21.53,2.28-31.93Z"/>
            <path class="cls-4" d="M913.42,881.25c-2.76-1.29-5.61-1.78-8.54-2.53-2.91-.74-5.66-1.69-8.66-1.97-2.77-.26-5.51,2.18-6.21,4.73-.78,2.85,.57,5.69,2.96,7.27,2.42,1.6,5.48,2.41,8.24,3.28,2.85,.9,5.77,1.88,8.79,1.86,6.33-.03,9.77-9.68,3.42-12.64Z"/>
            <path class="cls-4" d="M1102.22,870.28c-3.61-6.47-7.32-12.88-11.26-19.16-14.76-23.51-33.98-45.4-59.17-57.99-11.09-5.54-25.35-11.06-37.97-9.63-13.92,1.58-19.44,14.34-18.97,27.04,.55,15.15,8.77,29.02,20.09,38.77,12.4,10.68,37.34,25.32,52.18,32.82,13.49,6.82,26.74,12.52,40.1,18.55,5.16,2.33,10.44,4.52,16.21,3.33,6.12-1.26,10.01-7.02,8.79-13.21-1.39-7.11-6.51-14.28-10.01-20.54Z"/>
            <path class="cls-4" d="M1022.91,888.53c-4.73-3.4-10.09-5.94-15.16-8.79-4.22-2.37-10.36-5.98-15.32-5.7-2.59,.15-3.93,2.22-3.55,4.66,.79,5.1,6.32,10.51,10.04,13.78,4.68,4.11,9.51,8.4,15.09,11.28,10.24,5.28,18.04-8.67,8.9-15.23Z"/>
            <path class="cls-4" d="M1059.02,909.74c-4.12-3.32-9.29-6.72-14.69-7-4.88-.25-7.92,5.61-5.52,9.63,2.61,4.37,8.21,7.28,13.06,8.46,3.37,.82,9.68,2.05,11.75-1.88,1.88-3.57-2.17-7.25-4.6-9.21Z"/>
            <path class="cls-4" d="M1294.59,806.77c-.75-1.22-1.3-3.17-1.32-4.38-.04-2.77,.85-4.78,.06-7.77-.91-3.45-3.77-6.7-7.64-6.58-9.42,.29-11.59,10.81-10.56,18.38,1.08,7.87,5.4,16.33,14.18,16.89,4.28,.27,8.64-4.05,8.34-8.34-.23-3.38-1.36-5.43-3.06-8.2Z"/>
            <path class="cls-4" d="M2279.4,805.24c-.28-6.45,.94-15.39-4.2-20.31-4.96-4.76-13.27-4.14-18.03,.57-5.06,5.01-4.97,12.47-4.88,19.1,.09,7.27,.66,14.57,1.77,21.75,2.02,13.07,5.12,29.36,13.47,39.97,3.19,4.06,10.63,.7,10.27-4.25-.22-3.01-.87-6.03-1.64-9.04,.75-.55,1.44-1.27,2.03-2.16,4.12-6.23,2.15-15.81,1.97-22.92-.19-7.57-.43-15.13-.75-22.7Z"/>
            <path class="cls-4" d="M1469.72,296.7c-6.01,.29-12.77,.73-18.37,3.08-6.51,2.73-10.2,9.4-7.85,16.28,2.86,8.38,11.27,9.38,18.91,9.72,7.02,.31,14.04,.51,21.07,.59,7.18,.08,14.69,.61,21.75-.88,1.42-.3,2.61-.94,3.57-1.81,2.07,.32,4.19,.36,6.44-.14,3.31-.74,5.51-4.73,4.5-7.93-3.74-11.85-20.88-15.98-31.7-17.72-6.07-.97-12.17-1.48-18.32-1.18Z"/>
            <path class="cls-4" d="M1566.12,375.83c.87-2.1,1.09-4.53,.63-6.92-1.52-7.85-3.57-15.98-8.36-22.54-6.41-8.79-15.76-12.35-26.39-12.82-20.61-.92-41.5,.24-62.12,.42-31.93,.28-64.09,1.55-96.09,.5-1.83-4.7-4.43-9.26-6.8-13.61,1.12,.37,2.24,.72,3.37,1.05,13.94,4.03,31.86,7.09,45.42,.71,5.89-2.77,4.33-12.56-1.82-13.91-5.9-1.29-11.76-1.15-17.77-1.53-5.85-.37-11.58-1.45-17.23-3.02-10.7-2.99-20.88-7.82-29.81-14.45-17.32-12.86-28.71-32.75-32.58-53.81-1.97-10.72-2.14-23.04,2.23-33.23,4.07-9.5,12.63-15.58,21.66-19.93,10.29-4.96,21.87-7.7,33-10.01,12.56-2.6,25.29-4,38.1-4.52,30.01-1.21,59.89,2.4,89.17,8.78,5.37,1.17,11.01-1.61,12.52-7.11,1.39-5.06-1.71-11.37-7.11-12.52-.85-.18-1.71-.35-2.56-.53,3.3-5.24,.75-13.44-7.33-14.68-.78-1.11-1.86-2.03-3.28-2.64-20.22-8.65-42.5-4.85-63.82-3.89-22.91,1.04-45.81,1.41-68.74,1.15-22.91-.26-45.85-.75-68.75-1.74-5.29-.23-10.57-.51-15.85-.77-6-.3-12.24,.18-16.82,4.61-9.69,9.37-2.13,23.35,1.38,33.86,1.11,3.31,2.21,6.63,3.32,9.94-.79,2.09-.97,4.49-.65,6.9,2.82,20.96,6.96,43.44,22.03,59.18,.08,8.57,1.78,17.2,3.06,25.64,1.52,10.08,3.49,20.02,6.16,29.86,1.97,7.26,4.14,14.45,6.5,21.59-.56-.13-1.12-.26-1.68-.39-2.48-.59-4.97-1.24-7.47-1.76-.65-.61-1.37-1.13-2.2-1.53-21.75-10.48-42.57-23-63.57-34.89-10.27-5.81-20.52-11.6-31-17.05-5.5-2.86-11.02-5.74-16.67-8.26-5.28-2.36-10.71-6.05-16.73-5.48-1.42,.13-2.54,.74-3.27,1.62-9.29-8.6-19.47-16.03-30.55-21.61-3.7-1.86-8.18-1.3-10.75,2.15-2.25,3.02-2.64,8.32,.65,10.95,12.5,9.97,24.63,20.23,35.45,32.04,10.48,11.43,19.45,24.05,27.45,37.31,18.29,30.31,30.25,63.78,40.19,97.61,21.14,71.99,36.21,145.86,45.05,220.37,2.48,20.87,4.49,41.79,6.02,62.75,1.57,21.51,1.66,43.23,3.93,64.67,1.23,11.55,17.73,12,18.32,0,.95-19.21-.82-38.71-2.18-57.87-.71-10.08-1.54-20.16-2.47-30.22,.04,.02,.08,.04,.13,.05,2.13,.83,4.23,1.53,6.31,1.9-.52,5.54-.99,11.09-1.4,16.63-.41,5.44,4.92,10.08,10.08,10.08,5.8,0,9.67-4.63,10.08-10.08,4.57-60.36,15.52-121.52,43.38-175.85,25-48.77,63.07-90.73,113.79-113.13,13.9-6.14,28.68-10.24,43.61-12.94,15.5-2.8,31.09-2.08,46.67-3.76,7.34-.79,9.62-9.46,4.16-13.33Z"/>
            <path class="cls-4" d="M2277.05,755.62c-1.01-2.35-2.02-4.69-3-7.04,4.17-1.24,7.53-4.55,6.89-9.57-1.32-10.33-2.93-20.56-3.88-30.94-.34-3.67-.61-7.35-.88-11.03,4.37-27.95,1.76-56.55-2.65-84.45-.18-1.16-.56-2.14-1.07-2.94,.07-5.98,.17-11.96,.29-17.94,1.02-49.41,2.49-98.81,3.9-148.21,.7-24.42,1.89-48.87,2.21-73.3,.11-9-.82-18.54-5.22-26.56-1.11-2.02-2.41-3.78-3.86-5.31-5.76-28.28-27.05-52.54-47.93-71.32-25.01-22.49-53.41-40.95-77.07-64.98-22.2-22.55-38.29-52.56-68.31-66.02-30.81-13.82-64.89-10.54-97.58-7.79l-31.64,2.65c-9.52,.8-20.37,.49-29.45,3.76-9.07,3.26-15.86,9.84-17.05,19.66-1.16,9.64,3.94,18.55,13.32,21.54,0,.61,.07,1.24,.24,1.89,.75,2.73,3.73,5.46,6.73,5.12,11.18-1.25,21.96-5.28,33.21-6.7,11.37-1.43,22.92-1.89,34.36-1.17,20.79,1.31,41.5,6.76,60.4,15.49,19.18,8.85,37.43,20.72,52.79,35.26,13.36,12.66,26.99,32.55,18.42,51.62-9.04,20.11-32.43,25.78-52.48,28.14-5.51,.65-10.27,4.26-10.27,10.27,0,3.87,2.4,7.54,5.8,9.25-.51,1.15-.97,2.32-1.37,3.54l-4.37-.03c-11.79-.09-24.19-.86-35.24,3.99-22.34,9.8-21.93,35.35-18.33,55.77,.12,.66,.32,1.24,.58,1.76-.77,6.12,3.87,12.3,11.78,10.94,84.12-14.43,164.89-7.56,194.21,35.08,30.57,44.47,26.1,172.93,28.01,209.46,1.06,20.41,2.79,40.78,5.8,61,2.89,19.38,6.85,41.17,18.4,57.47,6.26,8.84,18.51,1.36,14.31-8.37Z"/>
            <path class="cls-4" d="M740.61,979.09c0-5.48-4.93-11.21-10.76-10.76-17.14,1.32-34.28,2.57-51.43,3.78-.63-.91-1.47-1.75-2.52-2.48-4.2-2.9-8.84-2.59-13.71-2.45-4.62,.13-9.24,.28-13.86,.45-8.95,.33-17.9,.75-26.84,1.26-18.18,1.03-36.33,2.55-54.44,4.37-35.86,3.6-71.64,9.06-107.03,15.9-8.79,1.7-17.47,3.91-26.04,6.51-8.53,2.58-19.75,5.8-25.95,12.86-.2,.23-.36,.47-.49,.72-4.21,1.85-8.62,4.2-10.45,7.83-1.81,3.61-.21,7.37,3.55,8.72,5.2,1.87,12.53-1.33,17.69-2.73,5.28-1.43,10.54-2.96,15.83-4.36,11.4-3,22.79-6.03,34.35-8.35,7.26-1.45,14.55-2.66,21.87-3.64,9.51-1.27,18.1,5.76,18.9,15.32,.14,1.65,.39,3.3,.76,4.93,4.24,18.94,21.74,31.73,39.79,35.99,19.84,4.68,41.91,2.47,60.93-4.58,17.22-6.38,33.65-17.34,40.19-35.29,1.5-4.11,2.21-8.4,2.22-12.65,.01-8.72,6.96-15.87,15.67-16.48,20.34-1.42,40.68-2.83,61.03-4.12,5.8-.37,10.76-4.68,10.76-10.76Z"/>
            <path class="cls-4" d="M268.6,1206.93c5.5-5.26,11.62-11.42,13.57-19.01,2.12-8.29-1.12-17.56-8.89-21.59-7.41-3.85-16.34-1.23-24.06,.19-28.95,5.35-57.42,13.52-84.6,24.87-31.4,13.12-60.74,30.04-87.05,51.68-4.21,3.46-3.59,10.67,0,14.26,.52,.52,1.07,.96,1.63,1.34-1.58,2.99-2.9,6.14-4.05,9.56-2.85,8.51,10.14,13.88,14.44,6.09,13.78-25.03,44.21-31.18,70.26-32.83,16.91-1.07,33.92-1.22,50.62-4.44,14.42-2.78,28.51-8.42,40.82-16.44,6.15-4,12.01-8.6,17.31-13.68Z"/>
            <path class="cls-4" d="M405.59,1441.24c-12.04-7.03-25.88-6.23-39.28-7.38-10.02-.86-20.6-5.01-19.6-16.61,1.08-12.56,12.74-21.27,20.89-29.63,5.73-5.88-1.55-15.38-8.75-11.34-2.46,1.38-4.89,2.85-7.27,4.43-.28-.69-.69-1.32-1.24-1.85-4.57-4.36-10.44-2.13-16.08-1.49-5.37,.61-10.75,1.05-16.15,1.32-5.39,.27-10.8,.49-16.19,.58-3.33,.06-7.32-.19-10.67,.86-1.01-4.89-5.21-8.04-11.03-7.02-4.43,.77-7.43,4.87-11.13,7.22-3.22,2.04-6.47,3.56-10.15,4.58-3.47,.96-6.79,1.31-10.38,1.3-4.46-.01-9.14-1-13.49,.29-5.68,1.68-6.75,8.11-3.26,12.33,1.89,2.29,4.44,3.84,7.34,4.84,.22,.79,.54,1.59,1.01,2.4,7.21,12.54,14.42,25.08,21.63,37.63,6.73,11.71,12.45,24.25,20.45,35.18,8.32,11.36,19.15,18.15,32.73,21.69,13.48,3.5,27.64,6,41.54,6.77,23.95,1.32,58.57-5.21,64.34-33.3,2.76-13.42-3.57-25.95-15.25-32.78Z"/>
            <path class="cls-4" d="M952.79,1458.97c-16.89-7.34-35.1-10.36-53.36-7.2-17.08,2.95-32.91,12.48-43.24,26.38-5.97,8.03-10.2,18.31-7.74,28.4,2.31,9.46,10.05,15.66,19.59,16.48,2.79,.24,5.39-1.47,6.88-3.8,4.78,.93,9.84,.97,14.55,1.05,9.12,.15,18.19-.65,27.21-2.01,8.59-1.3,17.07-3.33,25.31-6.09,7.98-2.68,16.68-5.77,22.56-12.1,6.41-6.91,9.36-16.77,5.61-25.71-3.19-7.59-10.07-12.22-17.37-15.39Z"/>
            <path class="cls-4" d="M1466.31,1217c-18.62,19.2-41.23,34.53-66.3,44-13.35,5.04-27.76,10.84-32.4,25.75-1.98,6.35-1.14,13.75,2.74,19.2,4.12,5.78,11.65,10.2,18.54,6.27,1.46-.83,2.37-2,2.84-3.29,1.58-.31,3.12-.83,4.55-1.58,1.23-.64,2.4-1.42,3.53-2.29,2.32,.94,5.03,.91,7.22-.5,17.18-11.02,31.65-25.54,42.6-42.77,.99-1.56,1.37-3.1,1.3-4.54,2.24-2.44,4.3-5.02,6.68-7.37,.36-.35,.61-.73,.8-1.12,7.42-5.75,14.45-12,21-18.68,8.35-8.52-4.78-21.66-13.09-13.09Z"/>
            <path class="cls-4" d="M1264.4,1447.73c-10.86-4.42-21.8-4.79-32.78-3.8-4.81-2.57-8.93-3.88-14.57-4.61-5.67-.74-11.42-1.32-17.14-1.58-5.44-.24-10.83-.11-16.26,.27-5.84,.41-12.93,.28-18.43,2.32-1.76,.65-3.11,1.65-4.08,2.83-2.39-.6-4.81-1.09-7.32-1.35-6.47-.67-13.06,.27-19.28,2.1-3.36,.99-6.73,2.2-9.92,3.66-3.3,1.51-5.35,3.56-8.16,5.67-6.01,4.51-2.63,13.82,5.18,12.28,3.04-.6,5.92-.7,8.95-1.68,2.89-.93,5.74-1.98,8.7-2.73,5.26-1.34,10.77-1.98,16.11-.76,5.81,1.33,11.3,3.77,17.12,5.04,6.15,1.35,12.53,1.85,18.81,1.62,22.46-.83,46.32-10.39,68.25-1.81,4.56,1.78,9.95-1.96,11.15-6.33,1.43-5.19-1.78-9.29-6.33-11.15Z"/>
          </g>
          <path class="cls-8" d="M2005.07,355.49c.5-8.95-1.28-18.54-3.69-26.07-3.37-10.5-9.5-24.32-19.38-30.79,.6-1.31,.94-2.76,.94-4.32,0-5.61-4.78-10.76-10.5-10.75-13.75-25.93-28.86-51.22-45.85-75.17-8.66-12.2-17.71-24.13-27.11-35.77-4.67-5.78-9.48-11.44-14.36-17.03-4.21-4.82-8.57-10.98-14.04-14.61-1.16-3.76-4.73-6.66-8.82-6.61-25.14,.35-50.27-.05-75.38-1.36-.7-.04-1.36,0-1.97,.09-30.8-.81-61.59-1.68-92.4-2.17-8.16-.13-16.3,.49-24.46,.47-8.15-.02-16.3-.26-24.45-.32-16.26-.11-32.54,.35-48.76,1.55-8.6,.64-17.15,.67-25.73,1.56-8.02,.84-16.08,.32-24.09-.33-1.51-.12-2.87,.32-4,1.12-1.67-.54-3.44-.26-5.02,.57-.75-.08-1.58-.03-2.47,.17-3.45,.77-6.09,1.3-8.9,3.64-2.35,1.96-4.38,4.47-5.86,7.14-3.47,6.23-4.41,13.46-3.69,20.48,1.55,15.11,7.06,30.12,11.6,44.54,9.36,29.77,19.82,59.28,31.56,88.2,6.12,15.07,12.06,30.2,18.3,45.23-3.83,5.02-6.26,11.08-7.44,17.26-.75,3.94-1.37,8.09-1.4,12.11-.03,4.08,1.07,8.3,1.94,12.28,.36,1.64,1.33,2.84,2.57,3.61-.62,3.87,1.59,8.01,6.5,7.85,13.97-.46,27.21-5.11,40.75-8.14,13.1-2.94,26.34-5.27,39.64-7.06,27.42-3.68,55.12-5.22,82.75-6.1,26.94-.86,53.92-1.26,80.87-1.41,27.26-.14,54.56,.33,81.71,2.94,29.79,2.87,59.3,8.73,87.47,18.96,5.12,1.86,11.04-2.09,12.4-7.04,.42-1.55,.46-3.04,.19-4.43,1-1.52,1.63-3.36,1.84-5.31,.87-8.01,1.13-17.03-1.24-25Zm-388.03-194.25c7.66-.63,14.3-1.06,19.06-1.19,31-.86,62,.32,92.94,2.13,15.39,.9,30.79,1.87,46.17,2.99,14.24,1.04,28.46,2.44,42.35,5.91,25.64,6.41,46.55,20.95,63.32,41.16,.18,.22,.36,.43,.53,.65,24.12,29.39,3.5,73.72-34.51,74.41-34.54,.63-69.08,.61-103.64-.83-18.85-.79-37.7-1.93-56.5-3.6-14.54-1.29-28.92-3.11-43.09-6.79-13.81-3.58-27.03-8.87-38.58-17.42-10.91-8.08-18.7-18.92-24.79-30.93-.11-.22-.22-.44-.33-.66-14.37-28.88,4.9-63.2,37.06-65.83Z"/>
          <g>
            <path class="cls-1" d="M1932.85,1361.94c-5.35-3.98-12.1-4.68-18.83-4.67-5.6,0-10.71-3.22-13.04-8.31-6.49-14.2-31.51-18.23-44-19.17-13.17-.98-55.32-3.03-53.27,17.57,.44,4.42-2.94,8.28-7.38,8.42-10.22,.31-23.3,2-20.05,10.14,3.16,7.93,30.3,5.76,36.92,5.92,8.18,.2,36.49,4.89,41.41-5.35,4.7-9.79-13.66-10.96-23.9-11.02-3.43-.02-6.34-2.72-6.35-6.15,0-.46,.05-.88,.18-1.27,5.26-15.34,46.96-12.79,60.23,2.97,2.29,2.72,1.16,6.88-2.22,8-4.4,1.45-8.25,4.23-5.56,9.21,3.34,6.18,16.44,4.68,21.83,4.82,7.45,.18,15.54,.91,22.93-.4,2.98-.53,18.93-4.89,11.11-10.7Z"/>
            <path class="cls-1" d="M2260.68,1285.95c-7.9-.56-14.7-5.44-18.24-12.52-9.33-18.64-39.09-25.43-57.32-26.34-16.27-.81-36.08,10.69-33.25,24.97,1.29,6.5-2.66,12.86-9.16,14.19-5.39,1.1-10.06,2.96-10.97,6.16-2.89,10.16,27.88,9.22,33.37,9.15,9.82-.11,26.67,1.85,35.24-3.69,8.56-5.54,3.55-9.7-3.01-11.93-5.36-1.82-10.53-4.16-15.25-7.27-5.09-3.35-11.55-5.6-13.25-11.21-3.09-10.19,24.73-10.5,31.33-8.26,5.5,1.86,12.77,5.55,18.69,10.41,6.39,5.24,5.86,15.03-.87,19.84-2.54,1.81-3.71,4.44-1.27,8.15,3.78,5.76,17.33,5.41,23.16,5.79,8.87,.57,18.13,.32,26.99-.26,3.13-.2,23.69-3.58,16.66-10.17-5.05-4.73-14.11-6.38-22.84-7Z"/>
            <path class="cls-1" d="M1561.28,1495.5s-.04,0-.06,0c-3.1-.39-5.42-2.95-5.5-6.07-.78-31.31-51.89-37.54-58.09-16.72-1.35,4.55-3.3,8.91-6.3,12.58-5.05,6.17-9.08,15.41-2.68,20.01,3.85,2.77,5.93-.57,7.92-4.88,2.56-5.56,8.56-8.82,14.58-7.73,4.04,.73,6.99-.78,5.12-6.5-2.68-8.22-5.53-7.13,4.1-11.1,5.17-2.13,11.48-5.72,16.62-1.77,3.23,2.48,4.37,6.15,4.89,10.05,.83,6.27-1.85,12.36-6.6,16.53-2.73,2.39-3.35,5.56,1.99,8.6,6.75,3.84,18.79,2.23,25.94,1.3,4.37-.56,13.35-.88,13.32-7.25-.03-7.14-10.52-6.45-15.26-7.05Z"/>
            <path class="cls-1" d="M2133.18,1485.54c-12-5.36-28.62-4.65-41.4-4.52-5.81,.06-28.45,2.29-17.23,13.16,6.36,6.16,25.4,3.29,33.5,2.84,6.58-.37,13.8-.58,20.2-2.42,2.26-.65,12.71-5.59,4.93-9.07Z"/>
            <path class="cls-1" d="M1670.83,1279.48c-5.65-3.18-38.33-2.62-28.86,7.19,2.83,2.93,16.94,3.01,20.59,2.6,2.84-.32,17.01-4.88,8.27-9.79Z"/>
            <path class="cls-1" d="M255.53,1128.68c3.11-.22,10.03,.11,12.09-2.74,1.67-2.31,1.32-5.85-1.84-6.71-8.55-2.32-18.34-1.9-27.16-1.63-7.04,.21-20.42,5.1-8.16,10.67,6.43,2.92,18.26,.9,25.08,.42Z"/>
            <path class="cls-1" d="M143.91,1476.15c-8.13-.09-31.84,4.27-31.6,15.48,.29,13.86,18.23,3.6,23.88,2.02,6.09-1.71,12.31-2.22,18.62-2.16,2.24,.02,17.12,2.35,14.36-3.92-3.91-8.89-16.63-11.32-25.26-11.42Z"/>
            <path class="cls-1" d="M367.05,1276.07c-36.48-6.49-82.76-.88-114.03,20.33-34.63,23.49-21.15,70.59,15.34,83.73,12.92,4.65,26.47,4.21,39.97,4.87,12.48,.61,24.97,1.38,37.45,.46,25.5-1.88,58.52-8.38,71.74-33.13,19.77-36.99-16.2-70.15-50.48-76.25Zm29.42,67.38c-7.3,10.06-21.04,14.61-32.55,17.52-19.47,4.92-39.77,6.29-59.75,4.33-15.57-1.53-33.65-4.15-44.99-16.14-9.65-10.22-9.92-25.98,.33-35.78,8.76-8.37,21.8-11.74,33.21-14.66,28.07-7.19,72.87-11.81,96.78,9.25,9.86,8.69,15.33,23.95,6.97,35.47Z"/>
            <path class="cls-1" d="M1265.71,1438.32c-21.88-6.55-44.86-9.13-67.64-9.43-19.6-.26-40.88-.27-59.87,5.2-25.3,7.29-58.97,34.22-36.5,62.86,14.53,18.52,47.35,22.16,68.81,24.2,32.84,3.13,67.54,1,99.04-9.32,17.11-5.61,33.91-13.3,34.17-33.95,.27-21.91-19.28-33.96-38-39.57Zm7.97,57.83c-21.61,8.95-46.53,10.71-69.67,10.67-23.27-.04-48.47-1.85-70.24-10.78-16.28-6.68-28.26-21.2-11.31-36.22,10.7-9.48,25.9-11.68,39.59-12.88,19.99-1.75,40.29-1.39,60.3-.1,18.13,1.17,41.6,3.14,56.14,15.36,12.58,10.56,10.71,27.52-4.81,33.95Z"/>
            <path class="cls-1" d="M177.36,811.77c18.54,24.22,40.46,65.84,76.82,61.2,39.52-5.03,55.99-49.95,38.4-82.4-8.98-16.57-20.42-32.14-30.63-47.98-9.36-14.52-17.7-31.36-32.8-40.8-26.4-16.5-63.93-3.98-80.32,21.23-21.37,32.86,9.48,63.87,28.53,88.75Zm2.72-71.75c5.47-9.51,18.32-14.67,28.68-10.62,11.29,4.42,17.5,18.16,23.93,27.62,8.12,11.95,16.23,23.9,24.35,35.84,6.38,9.39,14.87,20.15,9.89,32.12-4.63,11.15-18.09,16.81-28.84,10.99-10.86-5.88-17.87-20.12-24.91-29.77-8.73-11.98-17.46-23.96-26.19-35.95-6.5-8.92-13.2-19.27-6.9-30.23Z"/>
            <path class="cls-1" d="M286.07,740.14c15.19,24.44,31.23,62.9,65.85,60.96,35.83-1.98,61.51-39.41,48.87-72.9-6.37-16.88-16.43-33.05-24.63-49.12-7.39-14.48-13.59-30.85-27.47-40.41-24.67-17-62.5-6.49-80.66,15.65-23.71,28.93,2.25,60.4,18.04,85.81Zm9.33-66.16c5.12-9.21,18.14-14.49,28.24-11.33,11.59,3.62,16.23,17.13,21.48,26.8,6.81,12.55,13.62,25.09,20.43,37.64,5.01,9.24,11.09,19.54,5.01,29.86-5.01,8.5-16.32,13.78-25.8,10.24-11.04-4.12-16.15-17.86-21.67-27.25-7.01-11.91-14.01-23.83-21.02-35.74-5.43-9.23-12.67-19.42-6.67-30.22Z"/>
            <path class="cls-1" d="M437.18,745.45c2.07,4.27,7.27,5.99,11.47,3.77,3.64-1.92,7.3-3.83,10.96-5.71,3.98-2.05,5.65-6.87,3.79-10.95-7.46-16.42-14.92-32.84-22.38-49.26,16.66-6.55,34.68-13.35,45.91-26.12,13.31-15.13,10.26-31.61,3.49-48.86-19.15-48.8-72.21-22.85-107.23-9.19,0,0,0,0,0,0-.05,.02-.1,.04-.14,.06-7.62,2.97-11.07,11.84-7.5,19.2,20.54,42.35,41.08,84.7,61.62,127.05Zm-15.77-131.66c5.23-2.04,10.49-3.91,15.78-5.44,11.7-3.38,18.43,2.04,22.97,12.53,4.37,10.07,6.04,19.65-4.94,25.73-5.22,2.89-10.82,5.34-16.52,7.64-5.15,2.07-11.01-.28-13.3-5.33l-9.63-21.19c-2.45-5.4,.11-11.78,5.64-13.93Z"/>
            <path class="cls-1" d="M518.98,617.63c20.75,19.06,53.8,3.35,73.25,11.99,6.53,2.9,10.62,13.13,8.76,20.2-4.27,16.21-25.75,17.77-39.11,10.64-5.27-2.81-11.74-2.14-16.24,1.79-2.06,1.8-4.1,3.61-6.13,5.43-4.71,4.22-4.6,11.7,.3,15.7,13.18,10.77,31.43,11.72,48.06,5.6,20.56-7.56,44.57-21.26,43.19-46.56-1.36-24.95-16.57-38.07-40.59-39.39-15.9-.88-47.08,6.85-51.52-14.36-2.31-11.04,6.65-16.58,16.55-18.94,7.78-1.85,15.25-.32,21.46,3.81,4.88,3.25,11.27,3.05,16.14-.22,1.76-1.18,3.53-2.36,5.3-3.53,6.02-3.97,6.24-12.78,.4-17.01-24.98-18.12-70.01-10.74-87.16,14.39-10.17,14.91-5.51,38.63,7.34,50.43Z"/>
            <path class="cls-1" d="M685.8,641.46c-1.05-5.01-6.05-8.14-11.02-6.91-3.83,.95-7.65,1.92-11.47,2.91-4.76,1.23-7.67,6.05-6.52,10.83,.49,2.05,.98,4.09,1.47,6.14,1.19,4.98,6.28,7.97,11.2,6.58,3.7-1.04,7.41-2.07,11.13-3.08,4.6-1.25,7.42-5.87,6.45-10.54-.41-1.98-.83-3.96-1.24-5.94Z"/>
            <path class="cls-1" d="M649.42,617.46c1.19,4.99,6.21,8.06,11.19,6.83,3.94-.97,7.88-1.92,11.83-2.85,4.88-1.15,7.94-5.98,6.92-10.89-5.34-25.57-10.68-51.14-16.01-76.71-1.01-4.83-5.62-8-10.5-7.25-4.81,.74-9.61,1.52-14.41,2.32-5.3,.88-8.74,6.06-7.49,11.28,6.16,25.76,12.32,51.51,18.48,77.27Z"/>
            <path class="cls-1" d="M710.12,635.33c.31,1.69,.62,3.38,.93,5.08,.92,5.05,5.88,8.32,10.89,7.16,3.78-.87,7.57-1.73,11.37-2.57,4.63-1.02,7.67-5.47,6.95-10.15-.25-1.62-.49-3.24-.74-4.86-.77-5.09-5.64-8.49-10.68-7.49-3.9,.77-7.79,1.56-11.67,2.38-4.8,1-7.93,5.64-7.04,10.46Z"/>
            <path class="cls-1" d="M704.52,604.76c.93,5.06,5.81,8.4,10.86,7.41,4.01-.79,8.03-1.55,12.05-2.3,4.9-.91,8.19-5.55,7.44-10.48-3.69-24.31-7.38-48.61-11.07-72.92-.74-4.9-5.22-8.33-10.15-7.81-4.86,.51-9.71,1.06-14.56,1.63-5.31,.62-9,5.6-8.04,10.86,4.49,24.54,8.98,49.07,13.47,73.61Z"/>
            <path class="cls-1" d="M2402.69,1032.33c-16.92-3.61-66.32-3.34-96.35-2.28-9.87,.35-18.1-7.51-18.19-17.39-.22-25.24-.27-50.48-.26-75.73,.06-141.41,.4-282.82,.73-424.23,.09-36.05,.16-72.1,.18-108.15,0-17.24,0-34.48,0-51.71,0-6.81,.46-13.71,.3-20.51-.21-9.33-4.48-13.04-10.69-19.39-46.25-47.35-91.23-95.05-142.37-137.3-12.41-10.26-25.02-20.28-37.76-30.13-10.69-8.27-23.33-22.72-37.48-23.54-14.79-.86-30.15,.56-45,.55-18.55-.01-37.1-.03-55.65-.03-72.14-.03-144.28-.04-216.41-.07-142.35-.06-284.7,.24-427.05,.2-34.15-.01-67.96-1.83-101.55,5.14-33.67,6.99-66.96,15.65-99.73,26.07-15.48,4.92-30.83,10.19-45.96,16.1-14.84,5.8-31.16,14.52-47.33,14.86-31.76,.66-63.71-.78-95.54-.21-16.96,.3-33.92,.7-50.88,1.11-5.79,.14-15.47-1.72-19.47,3.77-4.34,5.97-1.61,19.29-1.59,26.33,.12,35.69,.39,71.38,.8,107.07,.82,71.38,2.19,142.75,4.04,214.11,.51,19.54,1.09,39.09,1.77,58.63,.89,25.61-6.91,50.77-22.1,71.4-15.68,21.29-30.91,42.9-45.68,64.82-10.85,16.1-23.02,32.27-32.1,49.45-7.7,14.56-4.41,36.77-4.86,52.78-.8,28.43-1.3,56.91-.72,85.35,.37,18.45-14.88,33.38-33.32,32.62-85.02-3.51-173.37-4.31-254.8,19.53-24.63,7.21-51.64,18.19-72.38,35.37-17.86,14.79-40.32,22.9-63.51,22.9-11.75,0-23.19,.14-32.5,.21-21.74,.16-43.43,.46-65.16,1.22-21.62,.75-46.94-3.44-68.07,1.07-6.23,1.33-11.42,4.65-9.47,12.16,2.03,7.8,9.7,7.24,16.41,7.55,20.34,.92,40.77-.16,61.13,.55,35.27,1.22,70.86,2.29,106.25,1.24,11.75-.35,20.78,10.3,18.55,21.84-1.99,10.27-4.13,20.52-8.48,30.15-8.07,17.88-21.5,31.15-39.49,38.96-20.49,8.9-43.4,12.13-65.11,16.79-22.85,4.91-45.7,10.04-68.03,16.98-36.03,11.21-78.49,27.51-101.52,59.37-21.89,30.3-6.59,64.17,20.9,84.31,27.44,20.1,60.98,29.47,88.06,50.28,32.37,24.88,55.68,58.98,74.49,94.79,9.16,17.45,18.51,33.62,36.22,43.68,19.51,11.09,42.89,11.42,64.57,8.55,46.89-6.22,90.75-25.31,136.52-36.3,47.89-11.5,95.74-9.42,143.64,1,91.67,19.95,180.96,67.5,276.77,43.66,91.57-22.79,147.59-100.5,225.04-147.64,40.53-24.67,85.08-36.44,132.28-39.02,24.44-1.33,49.06,1.52,73.43-.79,21.53-2.04,41.62-9.74,59.74-21.41,38.5-24.79,66.21-62.92,96.76-96.25,1.9-2.07,3.9-4.19,5.99-6.33,56.62-58.1,134.63-90.36,215.75-90.37,110.11,0,220.22-.01,330.33-.02,70.59,0,141.19,.32,211.79-.08,6.09-.03,14.92,1.75,19.11-3.96,4.04-5.51,1.76-16.19,1.69-22.6-.11-9.38-.24-18.76-.39-28.15-.16-10.08,8.18-18.2,18.26-17.84,37.41,1.32,71.06-.61,88.54-1.4,6.71-.3,14.38,.26,16.41-7.55,1.95-7.5-3.23-10.83-9.47-12.16ZM1924.42,139.46c35.06-.02,70.12-.04,105.18-.06,11.91,0,28.58-3.26,38.67,3.85,10.61,7.47,20.73,16.02,30.93,24.07,20.89,16.47,41.27,33.61,60.98,51.48,25.35,22.99,49.59,47.13,73.27,71.82,8.84,9.22,2.4,24.54-10.38,24.68-21.17,.23-42.39,.95-63.34,.94-24.25,0-72.49-.01-107.9-.01-25.95,0-50.05-13.43-63.72-35.48-3.81-6.14-7.35-11.84-9.91-15.89-17.86-28.33-36.07-56.5-55.31-83.93-2.96-4.22-7.12-9.89-11.43-15.68-7.92-10.65-.32-25.77,12.95-25.78Zm-648.32-.2c39.88-.14,119.98,.13,158.41,.17,10.98,0,21.96,.02,32.95,.02,14.71,0,27.86,9.26,32.75,23.13,7.51,21.27,17.19,42.14,24.78,62.96,8.82,24.21,17.69,48.66,25.49,73.32,2.69,8.52-3.68,17.2-12.62,17.19-62.11-.02-124.21-.04-186.32-.07-8.16,0-16.31,0-24.47-.01-14.68,0-27.43-10.08-30.85-24.35-6.29-26.28-16.42-67.39-23.08-90.38-2.78-9.58-8.24-26.43-12.76-40.16-3.54-10.73,4.42-21.78,15.72-21.82Zm-32.72,34.09c5.54,18.94,12.24,37.72,17.37,56.38,4.54,16.53,9.63,33.5,14.11,50.57,2.45,9.34-7.65,16.95-15.94,12.01-8.46-5.05-16.97-10.02-25.53-14.91-23.28-13.31-32.56-42.16-21.43-66.55,1.82-3.99,3.41-7.51,4.57-10.16,2.98-6.78,7.83-18.11,12.13-28.22,2.88-6.77,12.65-6.18,14.72,.88Zm-144.23,4.59c17.28-5.93,35.44-11.99,46.08-15.12,13.23-3.89,37.66-9.99,56.59-14.53,10.46-2.51,19.14,8.25,14.48,17.94-5.92,12.31-12.54,26.01-16.06,32.95-.98,1.93-2.17,4.29-3.5,6.9-11.4,22.49-38.39,32.15-61.46,21.99-12.09-5.33-25.32-11.12-37.48-16.42-15.13-6.59-14.25-28.34,1.36-33.7Zm.25,576.6c-6.98-11.98-25.32-40.53-40.89-64.37-16.3-24.97-25-54.12-25.05-83.94-.09-60.84-.26-165.83-.25-217.56,0-27.13,.5-108.13,.64-152.25,.05-14.02,14.3-23.52,27.25-18.15,58.12,24.11,114.84,49.98,169.59,81.64,7.07,4.09,18.65,11.17,29.36,17.76,16.62,10.23,27.04,28.14,27.48,47.65,.45,20.06-.2,40.36,.1,59.87,.52,33.82,.77,67.64,1.01,101.46,.98,136.56-.23,273.08-3.32,409.62-.51,22.63-1.79,70.46-2.71,104.02-.26,9.35-12.79,12.23-17.1,3.92-18.31-35.35-47.33-90.88-62.84-119.78-12.56-23.4-25.03-46.94-38.48-69.85-6.56-11.18-14.05-21.77-20.72-32.88-3.14-5.23-6.13-10.58-9.66-15.57-.9-1.27-3.28-5.34-4.43-5.79-1.7-.67-5.37-.78-4.25,2.47,3.35,9.69,8.98,18.36,13.46,27.52,4.93,10.06,9.45,20.31,14.48,30.32,10.83,21.51,22.61,42.53,33.71,63.9,16.16,31.11,51.71,104.46,70.69,143.93,4.55,9.46-4.77,19.62-14.58,15.91-54.13-20.43-173.85-65.69-220.43-83.74-19.32-7.49-38.64-14.96-57.96-22.44-11.24-4.35-18.68-15.13-18.78-27.18-.08-10.59-.2-22.6-.24-28.89-.08-11.17-.36-22.34-1.02-33.49-.34-5.78-.65-11.65-1.63-17.37-.23-1.36-3.25-13.73-6.4-8.39-4.2,7.13-3.78,17.8-4.22,25.79-.53,9.72-.59,19.45-.65,29.18-.06,10.92-.08,21.84-.1,32.76-.01,7.13-7.16,12.05-13.82,9.5-6.6-2.52-14.59-5.58-21.71-8.3-11.21-4.28-18.49-15.17-18.15-27.17,.65-23.3,1.64-59.93,1.73-72.06,.44-62.09-.95-124.14,.66-186.2,.24-9.35,8.84-16.21,18.02-14.45,5.65,1.08,11.31,2.11,16.98,3.07,9.42,1.6,16.44,9.58,16.79,19.13,.8,21.31,2.11,57.04,2.48,69.49,.54,18.12,.09,36.26,.28,54.39,.1,9.06,.34,18.09,.6,27.15,.05,1.84,2.05,19.19,4.88,12.39,2.87-6.9,2.27-16.73,2.73-24.12,.56-9.1,.88-18.24,1.04-27.36,.32-18.31-.05-36.62,.59-54.93,.41-11.58,1.08-34.87,1.43-51.92,.22-10.49,9.26-18.62,19.72-17.71,7.35,.64,15.78,1.33,23.86,1.96,20.15,1.56,38.66,11.71,50.77,27.89,9.25,12.37,19.37,25.35,23.78,30.78,8.84,10.91,17.68,21.83,26.53,32.73,1.61,1.99,6.99,11.23,10.59,10.8,5.61-.66-.74-9.25-1.86-11.17ZM888.75,202.18c8.86-.19,17.72-.37,26.58-.53,9.96-.18,18.12,7.86,18.1,17.82-.06,28.89,1.9,78.57,2.49,94.55,.74,19.93,.24,39.93,.27,59.87,.02,10.15-.54,21.87,2.72,31.63,4.58,13.71,7.92-3.38,8.65-9.25,2.43-19.36,1.04-39.44,1.11-58.92,.08-19.96,1.6-39.84,1.91-59.79,.21-13.81,.52-40.81,.65-58.85,.07-9.77,8-17.64,17.77-17.64,9.94,0,20.89,.05,29.77,.11,9.77,.06,17.66,8,17.65,17.78-.04,43.99,.21,157.19,.23,187.92,.04,74.85,.13,149.7,.43,224.55,.04,9.86-8.17,17.7-18.02,17.3-12.58-.51-25.14-1.42-37.67-2.71-8.88-.91-15.58-8.47-15.46-17.39,.31-22.99,1-64.75,1.32-79.1,.44-19.84,.7-39.67,.77-59.51,.03-9.22-.09-18.41-.67-27.62-.21-3.4,.44-13.36-2.04-15.95-1.44-1.5-4.78-3.93-5.81,0-4.88,18.68-3.37,40.26-4.15,59.4-.81,20.01-1.49,40.02-2.18,60.03-.44,12.57-1.44,37.58-2.1,55.73-.39,10.76-10.43,18.55-20.95,16.23-5.28-1.16-10.8-2.38-15.7-3.44-7.74-1.66-13.37-8.36-13.64-16.28-1.04-30.58-4.18-102.68-5.22-136.58-2.68-87.17-4.1-174.38-4.24-261.59-.02-9.67,7.73-17.57,17.4-17.78Zm-3.96,764.95c4.91,2.14,9.87,4.18,14.86,6.17,6.62,2.64,7.29,11.72,1.14,15.32-7.85,4.59-13.76,8.77-13.15,10.68,.86,2.71,15.19-1.26,28.75-5.96,12.29-4.25,25.68-4.03,37.82,.62,25.41,9.73,68.16,26.14,89.01,34.02,36.9,13.95,98.86,36.89,141.22,52.53,4.59,1.69,2.67,8.57-2.13,7.64-34.26-6.6-79.04-15.33-106.37-21.12-55.24-11.71-110.25-24.49-165.18-37.59-19.17-4.57-63.76-15.65-90.1-22.12-7.41-1.82-8.9-11.7-2.35-15.62,12.16-7.28,27.05-16.24,37.76-22.72,8.7-5.26,19.4-5.92,28.73-1.87Zm-109.86-167.4c.57-15.75,14.89-30.84,23.43-43.76,6.85-10.37,26-37.71,42.26-60.55,7.26-10.2,23.33-5.04,23.29,7.48-.13,51.44-.28,140.97-1.65,205.21-.76,35.67-32.8,62.38-68.05,56.88-.23-.04-.47-.07-.7-.11-10.7-1.63-18.72-10.61-19.08-21.42-1.61-48.62-.77-108.33,.5-143.73Zm-11.88,184.79c4.3-1.97,8.86-3.13,13.5-3.55,7.99-.72,14.09,7.29,10.89,14.65-6.2,14.27-.34,31.25-6.69,46.86-7.38,18.13-40.02,17.98-45.16-1.74-5.45-20.89,8.27-47.43,27.47-56.23Zm792.43,165.83c-36.6,22.46-65.73,51.46-107.34,104.24-27.25,34.56-63.55,63.35-109.7,65.4-23.42,1.04-46.76-.78-70.2,.96-22.45,1.66-44.8,5.08-66.53,11.03-44.94,12.3-82.96,36.89-118.79,66-34.09,27.69-66.48,58.06-103.95,81.29-40.41,25.06-84.96,37.44-132.63,34.45-49.6-3.12-96.87-20.2-144.1-34.3-46.72-13.95-94.47-25.09-143.52-24.47-49.19,.63-95.28,17-141.88,30.9-37.02,11.04-93.58,31.14-124.77-2.6-15.05-16.28-22.83-39.78-34.39-58.54-11.61-18.84-25.93-36.21-42.12-51.31-16.3-15.2-34.83-28.22-54.69-38.34-18.48-9.42-38.12-16.16-54.65-29.05-12.99-10.13-26.12-25.09-23.19-42.82,3.1-18.76,21.16-32.53,36.39-41.73,40.05-24.21,86.81-35.39,132.16-44.76,42.3-8.74,88.64-16.46,110.45-58.56,10.84-20.93,11.02-43.57,18.61-65.27,5.86-16.75,18.6-29.62,33.35-38.96,36.32-23,83.56-29.58,125.46-34.1,42.2-4.55,116.52-7.62,177.67-5.68,11.22,.36,17.65,12.72,11.71,22.25-2.99,4.79-5.34,9.89-6.87,15.12-4.55,15.5-5.31,35.82,6.51,48.43,11.76,12.54,33.75,14.26,48.77,7.27,9.57-4.46,14.72-11.32,17.55-19.37,5.42-15.41,21.59-24.19,37.32-19.81,123.86,34.43,249.7,61.65,376.1,84.91,34.7,6.38,68.2,13.53,103.64,13.35,34.4-.18,68.8-.17,103.2-.17,44.52,0,89.05,0,133.57,0,13.21,0,18.12,17.35,6.86,24.26Zm4.26-218.38c-.55,24.65-3.35,99.93-4.77,143.39-.58,17.6-15,31.57-32.62,31.57-56.78,0-142.98,0-191.11-.04-18.32-.02-33.03-15.1-32.59-33.41,1.01-42.19,2.57-111.97,3.08-134.88,3.02-136.36,5.52-272.84,5.2-409.24-.09-37.31-.5-74.62-1.07-111.93-.24-15.64,.16-31.64,.04-47.63-.13-18.03,14.42-32.74,32.45-32.84,29.82-.16,71.98-.37,95.47-.38,31.48-.01,62.96-.02,94.44-.04,17.76,0,32.26,14.18,32.64,31.93,.38,17.54,.71,37.41,.87,47.03,.57,33.92,.85,67.85,1.1,101.77,1.03,138.26-.06,276.47-3.15,414.69Zm-23.92-733.46c-3.31-8.7-9-22.42-14.07-34.47-4.91-11.66,3.66-24.56,16.32-24.55,100.63,.05,201.26,.05,301.89,.01,18.99,0,36.76,9.3,47.63,24.87,4.49,6.43,9.13,12.77,13.57,19.18,10.78,15.58,21.31,31.33,31.74,47.15,14.07,21.33,27.8,42.86,41.37,64.51,5.72,9.13-.86,20.99-11.64,20.99-49.83-.01-99.65-.02-149.47-.04-71.56-.02-143.11-.05-214.67-.08-13.71,0-25.86-8.85-30.06-21.91-8.69-27.02-23.63-72.06-32.61-95.66Zm463.26,506.62c-.64,102.11-5.66,298.96-7.54,372.75-.41,15.95-13.44,28.67-29.4,28.69-98.6,.12-197.2,.37-295.79,.37-21.41,0-42.81,0-64.22,0-16.5,0-29.78-13.56-29.44-30.06,.27-12.87,.54-26.72,.77-34.87,1-35.9,1.9-71.81,2.68-107.71,3-136.58,5.52-273.29,5.09-409.91-.09-28.11-1.42-112.34-2.25-157.89-.3-16.47,12.96-29.97,29.43-29.98,95.36-.04,190.73-.07,286.1-.11,24.22,0,48.45-.02,72.67-.02,15.89,0,28.94,12.6,29.44,28.48,3.57,113.33,3.16,226.93,2.46,340.27Zm271.89,380.24c-.13,11.99-9.92,21.62-21.91,21.56-72.99-.37-145.99-.46-218.98-.43-12.33,0-22.21-10.2-21.8-22.52,.8-23.96,1.23-47.95,1.85-71.91,1.65-62.77,2.95-125.54,3.99-188.33,2.04-124.32,3.89-248.69,2.38-373.02-.28-23.31-.87-66.1-1.23-92.26-.17-12.16,9.64-22.1,21.8-22.1,52.14,.02,165.03,.1,212.55,.16,12.03,.01,21.76,9.77,21.76,21.8,.01,195.2,.76,390.41,.93,585.61,.04,47.15-.84,94.29-1.35,141.44Z"/>
          </g>
        </g>
      </g>
    </g>
  </g>
</svg>