<svg width="40" height="40" viewBox="0 0 40 40" fill="none" xmlns="http://www.w3.org/2000/svg">
<path fill-rule="evenodd" clip-rule="evenodd" d="M13.019 14.1076C12.6994 14.4617 12.443 14.8862 12.2671 15.3579C12.0912 15.8299 12 16.338 12 16.8523C12 17.3666 12.0911 17.8746 12.2671 18.3466C12.4421 18.8158 12.6967 19.2384 13.014 19.5913L19.9773 26.7824L26.9865 19.5908C27.3036 19.2379 27.558 18.8155 27.7329 18.3466C27.9089 17.8746 28 17.3666 28 16.8523C28 16.338 27.9088 15.8299 27.7329 15.3579C27.557 14.8862 27.3006 14.4617 26.9809 14.1076C26.3278 13.39 25.4618 13 24.573 13C23.6839 13 22.8176 13.3902 22.1644 14.1083L22.1629 14.1099L20.3684 16.0654C20.2737 16.1686 20.1401 16.2273 20 16.2273C19.86 16.2273 19.7263 16.1686 19.6316 16.0654L17.8357 14.1083C17.1825 13.3902 16.3162 13 15.4271 13C14.5382 13 13.6722 13.39 13.019 14.1076ZM12.2787 13.4353C13.1086 12.5232 14.2377 12 15.4271 12C16.616 12 17.7449 12.5228 18.5746 13.4345C18.5749 13.4348 18.5751 13.4351 18.5754 13.4353L20 14.9878L21.4247 13.4353C21.4249 13.4351 21.4252 13.4348 21.4254 13.4345C22.2552 12.5228 23.384 12 24.573 12C25.7624 12 26.8914 12.5232 27.7213 13.4353L27.7225 13.4367C28.1303 13.8883 28.4515 14.423 28.6698 15.0086C28.8882 15.5941 29 16.2207 29 16.8523C29 17.484 28.8882 18.1104 28.6698 18.696C28.4515 19.2815 28.1303 19.8162 27.7225 20.2678C27.7183 20.2725 27.7139 20.2772 27.7095 20.2817L20.3342 27.849C20.2398 27.9457 20.1104 28.0002 19.9753 28C19.8402 27.9998 19.7109 27.9449 19.6169 27.8478L12.2894 20.2805C12.2853 20.2764 12.2814 20.2721 12.2775 20.2678C11.8697 19.8162 11.5485 19.2815 11.3302 18.696C11.1118 18.1104 11 17.484 11 16.8523C11 16.2207 11.1118 15.5941 11.3302 15.0086C11.5485 14.423 11.8697 13.8883 12.2775 13.4367L12.2787 13.4353Z" fill="#0062E1"/>
<circle cx="20" cy="20" r="19.5" stroke="#0062E1"/>
</svg>
