<svg width="24" height="24" viewBox="0 0 24 24" fill="none" xmlns="http://www.w3.org/2000/svg">
<path d="M7.1998 4.7999C7.1998 4.16338 7.45266 3.55293 7.90275 3.10285C8.35284 2.65276 8.96329 2.3999 9.5998 2.3999H13.903C14.3802 2.40032 14.8378 2.59024 15.175 2.9279L19.873 7.6247C20.2102 7.96214 20.3997 8.41965 20.3998 8.8967V16.7999C20.3998 17.4364 20.1469 18.0469 19.6969 18.497C19.2468 18.947 18.6363 19.1999 17.9998 19.1999H9.5998C8.96329 19.1999 8.35284 18.947 7.90275 18.497C7.45266 18.0469 7.1998 17.4364 7.1998 16.7999V4.7999ZM9.5998 3.5999C9.28155 3.5999 8.97632 3.72633 8.75128 3.95137C8.52623 4.17642 8.3998 4.48164 8.3998 4.7999V16.7999C8.3998 17.1182 8.52623 17.4234 8.75128 17.6484C8.97632 17.8735 9.28155 17.9999 9.5998 17.9999H17.9998C18.3181 17.9999 18.6233 17.8735 18.8483 17.6484C19.0734 17.4234 19.1998 17.1182 19.1998 16.7999V9.5999H14.9998C14.5224 9.5999 14.0646 9.41026 13.727 9.0727C13.3894 8.73513 13.1998 8.27729 13.1998 7.7999V3.5999H9.5998ZM14.3998 3.8483V7.7999C14.3998 7.95903 14.463 8.11164 14.5755 8.22417C14.6881 8.33669 14.8407 8.3999 14.9998 8.3999H18.9514L14.3998 3.8483ZM4.7998 5.9999C4.7998 5.68164 4.92623 5.37642 5.15128 5.15137C5.37632 4.92633 5.68154 4.7999 5.9998 4.7999V16.7999C5.9998 17.7547 6.37909 18.6704 7.05422 19.3455C7.72935 20.0206 8.64503 20.3999 9.5998 20.3999H17.9998C17.9998 20.7182 17.8734 21.0234 17.6483 21.2484C17.4233 21.4735 17.1181 21.5999 16.7998 21.5999H9.5278C8.27386 21.5999 7.07128 21.1018 6.1846 20.2151C5.29793 19.3284 4.7998 18.1258 4.7998 16.8719V5.9999Z" fill="#0062E1"/>
</svg>
