<svg width="22" height="22" viewBox="0 0 22 22" fill="none" xmlns="http://www.w3.org/2000/svg">
<path d="M7.33333 0H1.83333C1.3471 0 0.880787 0.193154 0.536971 0.536971C0.193154 0.880787 0 1.3471 0 1.83333V7.33333C0 7.81956 0.193154 8.28588 0.536971 8.6297C0.880787 8.97351 1.3471 9.16667 1.83333 9.16667H7.33333C7.81956 9.16667 8.28588 8.97351 8.6297 8.6297C8.97351 8.28588 9.16667 7.81956 9.16667 7.33333V1.83333C9.16667 1.3471 8.97351 0.880787 8.6297 0.536971C8.28588 0.193154 7.81956 0 7.33333 0ZM7.33333 7.33333H1.83333V1.83333H7.33333V7.33333ZM20.1667 0H14.6667C14.1804 0 13.7141 0.193154 13.3703 0.536971C13.0265 0.880787 12.8333 1.3471 12.8333 1.83333V7.33333C12.8333 7.81956 13.0265 8.28588 13.3703 8.6297C13.7141 8.97351 14.1804 9.16667 14.6667 9.16667H20.1667C20.6529 9.16667 21.1192 8.97351 21.463 8.6297C21.8068 8.28588 22 7.81956 22 7.33333V1.83333C22 1.3471 21.8068 0.880787 21.463 0.536971C21.1192 0.193154 20.6529 0 20.1667 0ZM20.1667 7.33333H14.6667V1.83333H20.1667V7.33333ZM7.33333 12.8333H1.83333C1.3471 12.8333 0.880787 13.0265 0.536971 13.3703C0.193154 13.7141 0 14.1804 0 14.6667V20.1667C0 20.6529 0.193154 21.1192 0.536971 21.463C0.880787 21.8068 1.3471 22 1.83333 22H7.33333C7.81956 22 8.28588 21.8068 8.6297 21.463C8.97351 21.1192 9.16667 20.6529 9.16667 20.1667V14.6667C9.16667 14.1804 8.97351 13.7141 8.6297 13.3703C8.28588 13.0265 7.81956 12.8333 7.33333 12.8333ZM7.33333 20.1667H1.83333V14.6667H7.33333V20.1667ZM20.1667 12.8333H14.6667C14.1804 12.8333 13.7141 13.0265 13.3703 13.3703C13.0265 13.7141 12.8333 14.1804 12.8333 14.6667V20.1667C12.8333 20.6529 13.0265 21.1192 13.3703 21.463C13.7141 21.8068 14.1804 22 14.6667 22H20.1667C20.6529 22 21.1192 21.8068 21.463 21.463C21.8068 21.1192 22 20.6529 22 20.1667V14.6667C22 14.1804 21.8068 13.7141 21.463 13.3703C21.1192 13.0265 20.6529 12.8333 20.1667 12.8333ZM20.1667 20.1667H14.6667V14.6667H20.1667V20.1667Z" fill="#0062C4"/>
</svg>
