<svg width="60" height="60" viewBox="0 0 60 60" fill="none" xmlns="http://www.w3.org/2000/svg">
<path fill-rule="evenodd" clip-rule="evenodd" d="M16.2512 27.5C14.1801 27.5 12.5012 29.1789 12.5012 31.25C12.5012 33.3211 14.1801 35 16.2512 35C17.8839 35 19.273 33.9565 19.7878 32.5H40.2146C40.7293 33.9565 42.1184 35 43.7512 35C45.8222 35 47.5012 33.3211 47.5012 31.25C47.5012 29.1789 45.8222 27.5 43.7512 27.5C42.1184 27.5 40.7293 28.5435 40.2146 30H19.7878C19.273 28.5435 17.8839 27.5 16.2512 27.5ZM15.0012 31.25C15.0012 30.5596 15.5608 30 16.2512 30C16.9415 30 17.5012 30.5596 17.5012 31.25C17.5012 31.9404 16.9415 32.5 16.2512 32.5C15.5608 32.5 15.0012 31.9404 15.0012 31.25ZM43.7512 30C43.0608 30 42.5012 30.5596 42.5012 31.25C42.5012 31.9404 43.0608 32.5 43.7512 32.5C44.4415 32.5 45.0012 31.9404 45.0012 31.25C45.0012 30.5596 44.4415 30 43.7512 30Z" fill="url(#paint0_linear_304_663)"/>
<path fill-rule="evenodd" clip-rule="evenodd" d="M12.7675 14.3385C13.6623 10.3415 17.2101 7.5 21.3061 7.5H38.6962C42.7922 7.5 46.3401 10.3414 47.2349 14.3385L48.6084 20.4741C51.196 21.4426 53.125 23.8031 53.4372 26.695L54.6951 38.3475C54.8151 39.4594 54.4381 40.5004 53.7512 41.2619V46.25C53.7512 48.3211 52.0722 50 50.0012 50H45.0012C42.9301 50 41.2512 48.3211 41.2512 46.25V42.5H18.7512V46.25C18.7512 48.3211 17.0722 50 15.0012 50H10.0012C7.9301 50 6.25117 48.3211 6.25117 46.25V41.2619C5.5642 40.5004 5.1872 39.4594 5.30724 38.3475L6.56518 26.695C6.87738 23.8031 8.80635 21.4426 11.3939 20.4741L12.7675 14.3385ZM9.05074 26.9633C9.32483 24.4244 11.4681 22.5 14.0219 22.5H45.9805C48.5342 22.5 50.6775 24.4244 50.9516 26.9633L52.2095 38.6158C52.2893 39.355 51.7102 40 50.9668 40H9.03558C8.29212 40 7.713 39.355 7.7928 38.6158L9.05074 26.9633ZM44.7953 14.8846L45.9404 20H14.0619L15.2071 14.8846C15.8462 12.0296 18.3804 10 21.3061 10H38.6962C41.6219 10 44.1561 12.0296 44.7953 14.8846ZM50.0012 47.5C50.6915 47.5 51.2512 46.9404 51.2512 46.25V42.5H43.7512V46.25C43.7512 46.9404 44.3108 47.5 45.0012 47.5H50.0012ZM15.0012 47.5C15.6915 47.5 16.2512 46.9404 16.2512 46.25V42.5H8.75117V46.25C8.75117 46.9404 9.31081 47.5 10.0012 47.5H15.0012Z" fill="url(#paint1_linear_304_663)"/>
<defs>
<linearGradient id="paint0_linear_304_663" x1="5.93451" y1="7.5" x2="35.9648" y2="9.73835" gradientUnits="userSpaceOnUse">
<stop stop-color="#FFB81D"/>
<stop offset="1" stop-color="#FF681D"/>
</linearGradient>
<linearGradient id="paint1_linear_304_663" x1="5.93451" y1="7.5" x2="35.9648" y2="9.73835" gradientUnits="userSpaceOnUse">
<stop stop-color="#FFB81D"/>
<stop offset="1" stop-color="#FF681D"/>
</linearGradient>
</defs>
</svg>
