<svg width="30" height="30" viewBox="0 0 30 30" fill="none" xmlns="http://www.w3.org/2000/svg">
<path fill-rule="evenodd" clip-rule="evenodd" d="M6.875 6.25C5.83947 6.25 5 7.08947 5 8.125V19.375C5 20.4105 5.83947 21.25 6.875 21.25H12.4875V22.5H10.6C10.2548 22.5 9.97498 22.7798 9.97498 23.125C9.97498 23.4702 10.2548 23.75 10.6 23.75H19.35C19.6952 23.75 19.975 23.4702 19.975 23.125C19.975 22.7798 19.6952 22.5 19.35 22.5H17.5V21.25H23.125C24.1605 21.25 25 20.4105 25 19.375V8.125C25 7.08947 24.1605 6.25 23.125 6.25H6.875ZM6.25 19.375C6.25 19.7202 6.52982 20 6.875 20H23.125C23.4702 20 23.75 19.7202 23.75 19.375V8.125C23.75 7.77982 23.4702 7.5 23.125 7.5H6.875C6.52982 7.5 6.25 7.77982 6.25 8.125V19.375ZM13.7375 21.25H16.25V22.5H13.7375V21.25Z" fill="#001648"/>
</svg>
