<svg width="24" height="24" viewBox="0 0 24 24" fill="none" xmlns="http://www.w3.org/2000/svg">
<path fill-rule="evenodd" clip-rule="evenodd" d="M4 5.5C3.44772 5.5 3 5.94772 3 6.5V15.5C3 16.0523 3.44771 16.5 4 16.5H13C13.2761 16.5 13.5 16.2761 13.5 16C13.5 15.7239 13.2761 15.5 13 15.5H7C7 14.7044 6.68393 13.9413 6.12132 13.3787C5.55871 12.8161 4.79565 12.5 4 12.5V9.5C4.79565 9.5 5.55871 9.18393 6.12132 8.62132C6.68393 8.05871 7 7.29565 7 6.5H16C16 7.29565 16.3161 8.05871 16.8787 8.62132C17.4413 9.18393 18.2044 9.5 19 9.5V10C19 10.2761 19.2239 10.5 19.5 10.5C19.7761 10.5 20 10.2761 20 10V6.5C20 5.94772 19.5523 5.5 19 5.5H4ZM17.5858 7.91421C17.9609 8.28929 18.4696 8.5 19 8.5V6.5H17C17 7.03043 17.2107 7.53914 17.5858 7.91421ZM6 6.5L4 6.5V8.5C4.53043 8.5 5.03914 8.28929 5.41422 7.91421C5.78929 7.53914 6 7.03043 6 6.5ZM5.41422 14.0858C5.03914 13.7107 4.53043 13.5 4 13.5V15.5H6C6 14.9696 5.78929 14.4609 5.41422 14.0858Z" fill="#1A314D"/>
<path d="M7 10C7 9.72386 6.77614 9.5 6.5 9.5C6.22386 9.5 6 9.72386 6 10V12C6 12.2761 6.22386 12.5 6.5 12.5C6.77614 12.5 7 12.2761 7 12V10Z" fill="#1A314D"/>
<path d="M17 10C17 9.72386 16.7761 9.5 16.5 9.5C16.2239 9.5 16 9.72386 16 10V10.5C16 10.7761 16.2239 11 16.5 11C16.7761 11 17 10.7761 17 10.5V10Z" fill="#1A314D"/>
<path fill-rule="evenodd" clip-rule="evenodd" d="M9 11C9 9.61929 10.1193 8.5 11.5 8.5C12.8807 8.5 14 9.61929 14 11C14 12.3807 12.8807 13.5 11.5 13.5C10.1193 13.5 9 12.3807 9 11ZM11.5 9.5C10.6716 9.5 10 10.1716 10 11C10 11.8284 10.6716 12.5 11.5 12.5C12.3284 12.5 13 11.8284 13 11C13 10.1716 12.3284 9.5 11.5 9.5Z" fill="#1A314D"/>
<path d="M18.1464 17.8536L16.6464 16.3536C16.4512 16.1583 16.4512 15.8417 16.6464 15.6464C16.8417 15.4512 17.1583 15.4512 17.3536 15.6464L18 16.2929V13.5C18 13.2239 18.2239 13 18.5 13C18.7761 13 19 13.2239 19 13.5V16.2929L19.6464 15.6464C19.8417 15.4512 20.1583 15.4512 20.3536 15.6464C20.5488 15.8417 20.5488 16.1583 20.3536 16.3536L18.8536 17.8536C18.6583 18.0488 18.3417 18.0488 18.1464 17.8536Z" fill="#1A314D"/>
<path fill-rule="evenodd" clip-rule="evenodd" d="M18.5 11C16.0147 11 14 13.0147 14 15.5C14 17.9853 16.0147 20 18.5 20C20.9853 20 23 17.9853 23 15.5C23 13.0147 20.9853 11 18.5 11ZM15 15.5C15 13.567 16.567 12 18.5 12C20.433 12 22 13.567 22 15.5C22 17.433 20.433 19 18.5 19C16.567 19 15 17.433 15 15.5Z" fill="#1A314D"/>
</svg>
