<svg width="24" height="24" viewBox="0 0 24 24" fill="none" xmlns="http://www.w3.org/2000/svg">
<path d="M16.2252 4.032C14.3865 3.05434 12.2657 2.74456 10.2241 3.15547C8.18261 3.56638 6.34675 4.67254 5.02945 6.28543C3.85693 7.72104 3.15984 9.47903 3.02436 11.3166L1.85355 10.1458C1.65829 9.95057 1.34171 9.95057 1.14645 10.1458C0.951185 10.3411 0.951185 10.6577 1.14645 10.8529L3.14645 12.8529C3.34171 13.0482 3.65829 13.0482 3.85355 12.8529L5.85355 10.8529C6.04882 10.6577 6.04882 10.3411 5.85355 10.1458C5.65829 9.95057 5.34171 9.95057 5.14645 10.1458L4.03233 11.26C4.17535 9.6738 4.78945 8.16014 5.80395 6.91799C6.97489 5.48432 8.60677 4.50106 10.4215 4.13581C12.2362 3.77056 14.1214 4.04592 15.7558 4.91495C17.3902 5.78398 18.6727 7.19291 19.3846 8.90161C20.0966 10.6103 20.194 12.513 19.6602 14.2855C19.1264 16.0579 17.9944 17.5904 16.4573 18.6218C14.9201 19.6531 13.0729 20.1195 11.2304 19.9414C9.38788 19.7633 7.66415 18.9518 6.35296 17.6452C6.32542 17.6177 6.295 17.5938 6.26243 17.5737C6.10017 17.4073 5.94503 17.2337 5.797 17.0527C5.62214 16.839 5.30713 16.8075 5.09341 16.9824C4.87968 17.1572 4.84818 17.4722 5.02305 17.686C5.21352 17.9188 5.41467 18.1411 5.62647 18.3529C5.65565 18.3821 5.68807 18.4073 5.72288 18.4282C7.18828 19.8544 9.09668 20.7399 11.1342 20.9368C13.207 21.1371 15.2851 20.6124 17.0144 19.4522C18.7437 18.2919 20.0172 16.5678 20.6177 14.5738C21.2182 12.5798 21.1086 10.4393 20.3077 8.51699C19.5067 6.59471 18.064 5.00966 16.2252 4.032Z" fill="black"/>
<path d="M11.5 6.99939C11.7761 6.99939 12 7.22325 12 7.49939V11.8723L14.7636 14.6358C14.9588 14.8311 14.9588 15.1477 14.7636 15.3429C14.5683 15.5382 14.2517 15.5382 14.0564 15.3429L11.1464 12.4329C11.0527 12.3392 11 12.212 11 12.0794V7.49939C11 7.22325 11.2239 6.99939 11.5 6.99939Z" fill="black"/>
</svg>
