<svg width="14" height="14" viewBox="0 0 14 14" fill="none" xmlns="http://www.w3.org/2000/svg">
<path d="M3.79167 4.08333C3.79167 4.4055 3.5305 4.66667 3.20833 4.66667C2.88617 4.66667 2.625 4.4055 2.625 4.08333C2.625 3.76117 2.88617 3.5 3.20833 3.5C3.5305 3.5 3.79167 3.76117 3.79167 4.08333Z" fill="#3B82F6"/>
<path d="M5.25 3.79167C5.08892 3.79167 4.95833 3.92225 4.95833 4.08333C4.95833 4.24442 5.08892 4.375 5.25 4.375H11.0833C11.2444 4.375 11.375 4.24442 11.375 4.08333C11.375 3.92225 11.2444 3.79167 11.0833 3.79167H5.25Z" fill="#3B82F6"/>
<path d="M3.20833 7.58333C3.5305 7.58333 3.79167 7.32217 3.79167 7C3.79167 6.67783 3.5305 6.41667 3.20833 6.41667C2.88617 6.41667 2.625 6.67783 2.625 7C2.625 7.32217 2.88617 7.58333 3.20833 7.58333Z" fill="#3B82F6"/>
<path d="M5.25 6.70833C5.08892 6.70833 4.95833 6.83892 4.95833 7C4.95833 7.16108 5.08892 7.29167 5.25 7.29167H11.0833C11.2444 7.29167 11.375 7.16108 11.375 7C11.375 6.83892 11.2444 6.70833 11.0833 6.70833H5.25Z" fill="#3B82F6"/>
<path d="M4.95833 9.91667C4.95833 9.75558 5.08892 9.625 5.25 9.625H11.0833C11.2444 9.625 11.375 9.75558 11.375 9.91667C11.375 10.0777 11.2444 10.2083 11.0833 10.2083H5.25C5.08892 10.2083 4.95833 10.0777 4.95833 9.91667Z" fill="#3B82F6"/>
<path d="M3.79167 9.91667C3.79167 10.2388 3.5305 10.5 3.20833 10.5C2.88617 10.5 2.625 10.2388 2.625 9.91667C2.625 9.5945 2.88617 9.33333 3.20833 9.33333C3.5305 9.33333 3.79167 9.5945 3.79167 9.91667Z" fill="#3B82F6"/>
</svg>
