<svg width="30" height="30" viewBox="0 0 30 30" fill="none" xmlns="http://www.w3.org/2000/svg">
<path fill-rule="evenodd" clip-rule="evenodd" d="M14.9998 3.7374C14.9276 3.71159 14.8493 3.69874 14.768 3.70155C12.7886 3.77013 11.0588 4.61587 9.72538 6.00748C8.58358 7.18374 7.88707 8.84961 7.62335 10.4181C7.62054 10.4348 7.61841 10.4517 7.61696 10.4686L7.5017 11.8191L7.50037 11.8381L7.49624 11.9136C7.49248 11.9787 7.48645 12.0753 7.47772 12.1946C7.46013 12.4351 7.43164 12.7675 7.38822 13.1353C7.29636 13.9133 7.15369 14.6991 6.96836 15.1514C6.80392 15.5526 6.51458 16.0267 6.10845 16.6871C6.01694 16.836 5.9205 16.9928 5.82067 17.157C5.30856 17.9996 4.72104 19.0205 4.3107 20.1786C4.27981 20.2657 4.2473 20.3537 4.21305 20.4458C4.21305 20.4458 4.21305 20.4458 4.21305 20.4458C4.20816 20.459 4.20322 20.4722 4.19826 20.4856L4.1869 20.5161C3.98705 21.053 3.73876 21.7201 3.74987 22.5182C3.75939 23.2017 4.31618 23.7508 4.99975 23.7508H10.8066C11.3448 25.5573 13.0178 26.875 15 26.875C16.9822 26.875 18.6552 25.5573 19.1934 23.7508H24.9998C25.6833 23.7508 26.2401 23.2017 26.2496 22.5182C26.2607 21.7196 26.0123 21.0523 25.8122 20.515L25.8009 20.4845C25.7613 20.378 25.724 20.2777 25.6887 20.1783C25.2879 19.0479 24.738 18.0371 24.2332 17.181C24.0598 16.8869 23.894 16.6144 23.7409 16.3628L23.7401 16.3614C23.4293 15.8505 23.179 15.4382 22.993 15.0663C22.8079 14.6961 22.6949 13.9928 22.6578 13.2218C22.6535 13.1322 22.6305 13.0479 22.5929 12.9725C22.5597 12.67 22.5368 12.3991 22.5219 12.1946C22.5132 12.0754 22.5071 11.9787 22.5034 11.9136L22.4992 11.8381L22.4979 11.8191L22.3826 10.4686C22.3816 10.4559 22.3801 10.4432 22.3782 10.4307C22.3779 10.4286 22.3776 10.4265 22.3773 10.4244C22.3769 10.4223 22.3766 10.4202 22.3762 10.4181C22.1125 8.84965 21.4161 7.18383 20.2743 6.00758C18.9409 4.61591 17.211 3.77013 15.2316 3.70155C15.1503 3.69874 15.072 3.71159 14.9998 3.7374ZM12.1352 23.7508C12.6176 24.8542 13.7194 25.625 15 25.625C16.2806 25.625 17.3824 24.8542 17.8648 23.7508H12.1352ZM21.4192 13.462C21.3944 13.4061 21.3775 13.3457 21.37 13.2818C21.3239 12.8912 21.2938 12.5397 21.2752 12.2859C21.2659 12.1589 21.2595 12.0564 21.2554 11.9856L21.2553 11.9837L21.2516 11.9159L21.1394 10.6007C20.9032 9.22236 20.2943 7.82213 19.3761 6.87692L19.373 6.87372C18.2461 5.6969 16.8167 5.00722 15.1883 4.9508C15.1222 4.94852 15.0589 4.93605 14.9998 4.91496C14.9407 4.93605 14.8774 4.94852 14.8113 4.9508C13.1829 5.00722 11.7535 5.6969 10.6266 6.87372L10.6235 6.87692C9.70532 7.82213 9.09637 9.22236 8.86023 10.6007L8.74798 11.9159L8.74427 11.9837L8.74417 11.9856C8.74008 12.0564 8.73368 12.1589 8.72439 12.2859C8.70581 12.5397 8.67571 12.8912 8.6296 13.2818C8.53742 14.0626 8.38119 15.0002 8.12501 15.6253C7.91745 16.1319 7.57332 16.6914 7.19623 17.3045L7.17323 17.3419C7.0815 17.4911 6.98673 17.6452 6.88884 17.8063C6.38522 18.6349 5.85423 19.5651 5.48893 20.596C5.45019 20.7054 5.40948 20.8148 5.3707 20.9191L5.36981 20.9214C5.16065 21.4837 4.99213 21.9531 4.99975 22.5008L24.9998 22.5008C25.0074 21.9527 24.8387 21.4831 24.6294 20.9204L24.6285 20.918L24.628 20.9167C24.5894 20.813 24.5491 20.7048 24.5106 20.596C24.1496 19.578 23.6469 18.6478 23.1564 17.8159C22.9877 17.5297 22.826 17.2638 22.6722 17.0111L22.6622 16.9946C22.3633 16.5034 22.0866 16.0485 21.875 15.6253C21.5861 15.0475 21.4655 14.2028 21.4192 13.462Z" fill="#0062E1"/>
</svg>
