<svg width="40" height="40" viewBox="0 0 40 40" fill="none" xmlns="http://www.w3.org/2000/svg">
<circle cx="20" cy="20" r="19.5" stroke="#0062E1"/>
<path fill-rule="evenodd" clip-rule="evenodd" d="M20 10.9988C19.573 10.9988 19.1505 11.0867 18.759 11.2571C18.3675 11.4275 18.0151 11.6769 17.7241 11.9893L11.8341 18.2993C11.2977 18.8752 10.9997 19.6333 11 20.4203V27.19C11 27.6701 11.1907 28.1304 11.5301 28.4699C11.8696 28.8093 12.33 29 12.81 29H27.19C27.67 29 28.1304 28.8093 28.4699 28.4699C28.8093 28.1304 29 27.6701 29 27.19V20.42C29.0003 19.633 28.7019 18.8748 28.1655 18.2988L22.2757 11.989C21.9847 11.6766 21.6325 11.4275 21.241 11.2571C20.8495 11.0867 20.427 10.9988 20 10.9988ZM19.158 12.1741C19.4237 12.0584 19.7103 11.9988 20 11.9988C20.2897 11.9988 20.5763 12.0584 20.842 12.1741C21.1076 12.2897 21.347 12.4592 21.5445 12.6712L27.4343 18.981C27.7981 19.3718 28.0003 19.8861 28 20.42V27.19C28 27.4048 27.9147 27.6109 27.7628 27.7628C27.6109 27.9147 27.4048 28 27.19 28H23V22.5C23 22.1287 22.8779 21.7582 22.64 21.4728C22.4 21.1847 22.0528 21 21.6667 21H18.3333C17.9472 21 17.6 21.1847 17.36 21.4728C17.1221 21.7582 17 22.1287 17 22.5V28H12.81C12.5952 28 12.3891 27.9147 12.2372 27.7628C12.0853 27.6109 12 27.4048 12 27.19L12 20.4198C11.9997 19.8859 12.2021 19.3715 12.5659 18.9808L18.4559 12.6708C18.6534 12.4588 18.8924 12.2897 19.158 12.1741ZM18.1282 22.113C18.2007 22.026 18.2774 22 18.3333 22H21.6667C21.7226 22 21.7993 22.026 21.8718 22.113C21.9465 22.2027 22 22.3409 22 22.5V28H18V22.5C18 22.3409 18.0535 22.2027 18.1282 22.113Z" fill="#0062E1"/>
</svg>
