<svg width="24" height="24" viewBox="0 0 24 24" fill="none" xmlns="http://www.w3.org/2000/svg">
<path fill-rule="evenodd" clip-rule="evenodd" d="M5.5 3C4.11929 3 3 4.11929 3 5.5V18.5C3 19.8807 4.11929 21 5.5 21H18.5C19.8807 21 21 19.8807 21 18.5V5.5C21 4.11929 19.8807 3 18.5 3H5.5ZM14.6577 15.2488C14.7472 15.0948 14.9119 15 15.09 15H20V5.5C20 4.67157 19.3284 4 18.5 4H5.5C4.67157 4 4 4.67157 4 5.5V15H8.91C9.08814 15 9.25282 15.0948 9.34232 15.2488C9.61525 15.7185 10.004 16.1105 10.4714 16.3873C10.9353 16.662 11.4613 16.8143 12 16.8298C12.5387 16.8143 13.0647 16.662 13.5286 16.3873C13.996 16.1105 14.3847 15.7185 14.6577 15.2488ZM5.5 20C4.67157 20 4 19.3284 4 18.5V16H8.6342C8.97894 16.5075 9.4319 16.9339 9.96183 17.2477C10.5763 17.6116 11.2737 17.812 11.9875 17.8298L12.0001 17.83L12.0125 17.8298C12.7263 17.812 13.4237 17.6116 14.0382 17.2477C14.5681 16.9339 15.0211 16.5075 15.3658 16H20V18.5C20 19.3284 19.3284 20 18.5 20H5.5Z" fill="#5C6C80"/>
</svg>
