<svg width="24" height="24" viewBox="0 0 24 24" fill="none" xmlns="http://www.w3.org/2000/svg">
<path d="M6.5 4C5.83696 4 5.20107 4.26339 4.73223 4.73223C4.26339 5.20107 4 5.83696 4 6.5V17.5C4 18.163 4.26339 18.7989 4.73223 19.2678C5.20107 19.7366 5.83696 20 6.5 20H17.5C18.163 20 18.7989 19.7366 19.2678 19.2678C19.7366 18.7989 20 18.163 20 17.5V12.5C20 12.2239 19.7761 12 19.5 12C19.2239 12 19 12.2239 19 12.5V17.5C19 17.8978 18.842 18.2794 18.5607 18.5607C18.2794 18.842 17.8978 19 17.5 19H6.5C6.10218 19 5.72064 18.842 5.43934 18.5607C5.15803 18.2794 5 17.8978 5 17.5V6.5C5 6.10217 5.15803 5.72064 5.43934 5.43934C5.72064 5.15804 6.10217 5 6.5 5H11.5C11.7761 5 12 4.77614 12 4.5C12 4.22386 11.7761 4 11.5 4H6.5Z" fill="#0062E1"/>
<path d="M15.5 4C15.2239 4 15 4.22386 15 4.5C15 4.77614 15.2239 5 15.5 5H18.2929L11.1464 12.1464C10.9512 12.3417 10.9512 12.6583 11.1464 12.8536C11.3417 13.0488 11.6583 13.0488 11.8536 12.8536L19 5.70711V8.5C19 8.77614 19.2239 9 19.5 9C19.7761 9 20 8.77614 20 8.5V4H15.5Z" fill="#0062E1"/>
</svg>
