<svg width="14" height="14" viewBox="0 0 14 14" fill="none" xmlns="http://www.w3.org/2000/svg">
<path fill-rule="evenodd" clip-rule="evenodd" d="M1.16699 1.45835C1.16699 1.29727 1.29758 1.16669 1.45866 1.16669H6.12533C6.28641 1.16669 6.41699 1.29727 6.41699 1.45835V7.29169C6.41699 7.45277 6.28641 7.58335 6.12533 7.58335H1.45866C1.29758 7.58335 1.16699 7.45277 1.16699 7.29169V1.45835ZM1.75033 1.75002V7.00002H5.83366V1.75002H1.75033Z" fill="#3B82F6"/>
<path fill-rule="evenodd" clip-rule="evenodd" d="M7.58366 6.70835C7.58366 6.54727 7.71424 6.41669 7.87533 6.41669H12.542C12.7031 6.41669 12.8337 6.54727 12.8337 6.70835V12.5417C12.8337 12.7028 12.7031 12.8334 12.542 12.8334H7.87533C7.71424 12.8334 7.58366 12.7028 7.58366 12.5417V6.70835ZM8.16699 7.00002V12.25H12.2503V7.00002H8.16699Z" fill="#3B82F6"/>
<path fill-rule="evenodd" clip-rule="evenodd" d="M1.16699 9.03585C1.16699 8.87476 1.29758 8.74418 1.45866 8.74418H6.12533C6.28641 8.74418 6.41699 8.87476 6.41699 9.03585V12.5358C6.41699 12.6969 6.28641 12.8275 6.12533 12.8275H1.45866C1.29758 12.8275 1.16699 12.6969 1.16699 12.5358V9.03585ZM1.75033 9.32751V12.2442H5.83366V9.32751H1.75033Z" fill="#3B82F6"/>
<path d="M7.58366 1.45835C7.58366 1.29727 7.71424 1.16669 7.87533 1.16669H12.542C12.7031 1.16669 12.8337 1.29727 12.8337 1.45835V4.95835C12.8337 5.11944 12.7031 5.25002 12.542 5.25002H7.87533C7.71424 5.25002 7.58366 5.11944 7.58366 4.95835V1.45835Z" fill="#3B82F6"/>
</svg>
