<svg width="30" height="30" viewBox="0 0 30 30" fill="none" xmlns="http://www.w3.org/2000/svg">
<path fill-rule="evenodd" clip-rule="evenodd" d="M12.5 3.75C7.66751 3.75 3.75 7.66751 3.75 12.5C3.75 17.3325 7.66751 21.25 12.5 21.25C14.6948 21.25 16.7009 20.4419 18.2369 19.107C18.2577 19.1369 18.2814 19.1653 18.3081 19.1919L24.5581 25.4419C24.8021 25.686 25.1979 25.686 25.4419 25.4419C25.686 25.1979 25.686 24.8021 25.4419 24.5581L19.1919 18.3081C19.1653 18.2814 19.1369 18.2577 19.107 18.2369C20.4419 16.7009 21.25 14.6948 21.25 12.5C21.25 7.66751 17.3325 3.75 12.5 3.75ZM5 12.5C5 8.35786 8.35786 5 12.5 5C16.6421 5 20 8.35786 20 12.5C20 16.6421 16.6421 20 12.5 20C8.35786 20 5 16.6421 5 12.5Z" fill="#0062E1"/>
</svg>
