<svg width="40" height="40" viewBox="0 0 40 40" fill="none" xmlns="http://www.w3.org/2000/svg">
<path fill-rule="evenodd" clip-rule="evenodd" d="M3.33301 19.9997C3.33301 10.7949 10.7949 3.33301 19.9997 3.33301C29.2044 3.33301 36.6663 10.7949 36.6663 19.9997C36.6663 29.2044 29.2044 36.6663 19.9997 36.6663C10.7949 36.6663 3.33301 29.2044 3.33301 19.9997ZM19.9997 10.833C20.4599 10.833 20.833 11.2061 20.833 11.6663V19.1663H28.333C28.7932 19.1663 29.1663 19.5394 29.1663 19.9997C29.1663 20.4599 28.7932 20.833 28.333 20.833H20.833V28.333C20.833 28.7932 20.4599 29.1663 19.9997 29.1663C19.5394 29.1663 19.1663 28.7932 19.1663 28.333V20.833H11.6663C11.2061 20.833 10.833 20.4599 10.833 19.9997C10.833 19.5394 11.2061 19.1663 11.6663 19.1663H19.1663V11.6663C19.1663 11.2061 19.5394 10.833 19.9997 10.833Z" fill="#0062E1"/>
</svg>
