<svg width="24" height="24" viewBox="0 0 24 24" fill="none" xmlns="http://www.w3.org/2000/svg">
<path d="M17.5 18.03C17.2239 18.03 17 17.8061 17 17.53L17 14.53C17 14.2539 17.2239 14.03 17.5 14.03C17.7762 14.03 18 14.2539 18 14.53L18 17.53C18 17.8061 17.7762 18.03 17.5 18.03Z" fill="white"/>
<path fill-rule="evenodd" clip-rule="evenodd" d="M3.38137 12.581C2.95287 12.2618 2.60449 11.8467 2.36473 11.3692C2.12489 10.8915 2 10.3645 2 9.82999L2 2.53C2 2.25386 2.22386 2.03 2.5 2.03C2.77614 2.03 3 2.25386 3 2.53L3 9.83C3 10.2087 3.08848 10.5821 3.25839 10.9204C3.4283 11.2588 3.67494 11.5528 3.97864 11.779L10 16.2747L10 8.0194C9.96484 7.53191 10.1199 7.04939 10.4332 6.67347C10.7513 6.29176 11.2069 6.05066 11.7014 6.00237L11.8423 6.11062L11.8462 6.1132L11.8591 6.12205L15.9091 8.99204C15.928 9.0054 15.9459 9.02006 15.9627 9.03589C16.1427 9.20524 16.3784 9.3027 16.6252 9.30996C16.8926 9.30766 17.1486 9.2015 17.3392 9.01379C17.4293 8.92535 17.5016 8.81914 17.5505 8.70271C17.5994 8.58628 17.6245 8.46127 17.6245 8.335C17.6245 8.20872 17.5994 8.08371 17.5505 7.96728C17.5016 7.85085 17.43 7.74533 17.3399 7.65689L17.3361 7.6532L12.5761 2.88318C12.3811 2.68771 12.3814 2.37113 12.5769 2.17607C12.7723 1.98102 13.0889 1.98135 13.284 2.17681L17.0991 6L20.25 6C20.2662 6 20.2825 6.00079 20.2986 6.00237C20.7931 6.05066 21.2487 6.29176 21.5668 6.67347C21.8801 7.04939 22.0352 7.53191 22 8.01939L22 18.9806C22.0352 19.4681 21.8801 19.9506 21.5668 20.3265C21.2487 20.7082 20.7931 20.9493 20.2986 20.9976C20.2825 20.9992 20.2662 21 20.25 21L11.75 21C11.7338 21 11.7176 20.9992 11.7014 20.9976C11.2069 20.9493 10.7513 20.7082 10.4332 20.3265C10.1199 19.9506 9.96484 19.4681 10 18.9806L10 17.5227L3.38137 12.581ZM18.0959 7C18.2549 7.16926 18.3825 7.36572 18.4725 7.58021C18.5729 7.81921 18.6245 8.0758 18.6245 8.335C18.6245 8.59419 18.5729 8.85079 18.4725 9.08978C18.3723 9.32862 18.2254 9.54509 18.0406 9.72655C17.662 10.0992 17.1525 10.3087 16.6213 10.31L16.6085 10.3099C16.1251 10.2987 15.6623 10.1136 15.3047 9.78932L15 9.57343L15 20L20.2229 20C20.4475 19.9725 20.6535 19.8605 20.7986 19.6863C20.9484 19.5066 21.0214 19.2751 21.0018 19.0419C21.0006 19.028 21 19.014 21 19L21 8C21 7.986 21.0006 7.97201 21.0018 7.95806C21.0214 7.72491 20.9484 7.4934 20.7986 7.31365C20.6535 7.13946 20.4475 7.02745 20.2229 7L18.0959 7ZM13 8.15615L11.4899 7.08599C11.3799 7.14048 11.2814 7.21761 11.2014 7.31365C11.0516 7.4934 10.9786 7.72491 10.9982 7.95806C10.9994 7.97201 11 7.986 11 8L11 19C11 19.014 10.9994 19.028 10.9982 19.0419C10.9786 19.2751 11.0516 19.5066 11.2014 19.6863C11.3466 19.8605 11.5525 19.9725 11.7771 20L13 20L13 8.15615Z" fill="white"/>
<path d="M11.75 6C11.7338 6 11.7176 6.00079 11.7014 6.00237L11.75 6Z" fill="white"/>
</svg>
