<svg width="24" height="24" viewBox="0 0 24 24" fill="none" xmlns="http://www.w3.org/2000/svg">
<path fill-rule="evenodd" clip-rule="evenodd" d="M8 8C7.06808 8 6.28503 7.36261 6.06301 6.5H2.5C2.22386 6.5 2 6.27614 2 6C2 5.72386 2.22386 5.5 2.5 5.5H6.06301C6.28503 4.63739 7.06808 4 8 4C9.10457 4 10 4.89543 10 6C10 7.10457 9.10457 8 8 8ZM8 5C7.44772 5 7 5.44772 7 6C7 6.55228 7.44772 7 8 7C8.55228 7 9 6.55228 9 6C9 5.44772 8.55228 5 8 5Z" fill="#5C6C80"/>
<path d="M11 6C11 5.72386 11.2239 5.5 11.5 5.5H21.5C21.7761 5.5 22 5.72386 22 6C22 6.27614 21.7761 6.5 21.5 6.5H11.5C11.2239 6.5 11 6.27614 11 6Z" fill="#5C6C80"/>
<path d="M2.5 11.5C2.22386 11.5 2 11.7239 2 12C2 12.2761 2.22386 12.5 2.5 12.5H13.5C13.7761 12.5 14 12.2761 14 12C14 11.7239 13.7761 11.5 13.5 11.5H2.5Z" fill="#5C6C80"/>
<path fill-rule="evenodd" clip-rule="evenodd" d="M17 10C17.9319 10 18.715 10.6374 18.937 11.5H21.5C21.7761 11.5 22 11.7239 22 12C22 12.2761 21.7761 12.5 21.5 12.5H18.937C18.715 13.3626 17.9319 14 17 14C15.8954 14 15 13.1046 15 12C15 10.8954 15.8954 10 17 10ZM16 12C16 11.4477 16.4477 11 17 11C17.5523 11 18 11.4477 18 12C18 12.5523 17.5523 13 17 13C16.4477 13 16 12.5523 16 12Z" fill="#5C6C80"/>
<path d="M15.5 17.5C15.2239 17.5 15 17.7239 15 18C15 18.2761 15.2239 18.5 15.5 18.5H21.5C21.7761 18.5 22 18.2761 22 18C22 17.7239 21.7761 17.5 21.5 17.5H15.5Z" fill="#5C6C80"/>
<path fill-rule="evenodd" clip-rule="evenodd" d="M10.063 18.5C10.285 19.3626 11.0681 20 12 20C13.1046 20 14 19.1046 14 18C14 16.8954 13.1046 16 12 16C11.0681 16 10.285 16.6374 10.063 17.5H2.5C2.22386 17.5 2 17.7239 2 18C2 18.2761 2.22386 18.5 2.5 18.5H10.063ZM12 17C11.4477 17 11 17.4477 11 18C11 18.5523 11.4477 19 12 19C12.5523 19 13 18.5523 13 18C13 17.4477 12.5523 17 12 17Z" fill="#5C6C80"/>
</svg>
