<svg width="40" height="40" viewBox="0 0 40 40" fill="none" xmlns="http://www.w3.org/2000/svg">
<circle cx="20" cy="20" r="19.5" stroke="#0062E1"/>
<path d="M14.5 12C13.837 12 13.2011 12.2634 12.7322 12.7322C12.2634 13.2011 12 13.837 12 14.5V25.5C12 26.163 12.2634 26.7989 12.7322 27.2678C13.2011 27.7366 13.837 28 14.5 28H25.5C26.163 28 26.7989 27.7366 27.2678 27.2678C27.7366 26.7989 28 26.163 28 25.5V20.5C28 20.2239 27.7761 20 27.5 20C27.2239 20 27 20.2239 27 20.5V25.5C27 25.8978 26.842 26.2794 26.5607 26.5607C26.2794 26.842 25.8978 27 25.5 27H14.5C14.1022 27 13.7206 26.842 13.4393 26.5607C13.158 26.2794 13 25.8978 13 25.5V14.5C13 14.1022 13.158 13.7206 13.4393 13.4393C13.7206 13.158 14.1022 13 14.5 13H19.5C19.7761 13 20 12.7761 20 12.5C20 12.2239 19.7761 12 19.5 12H14.5Z" fill="#0062E1"/>
<path d="M23.5 12C23.2239 12 23 12.2239 23 12.5C23 12.7761 23.2239 13 23.5 13H26.2929L19.1464 20.1464C18.9512 20.3417 18.9512 20.6583 19.1464 20.8536C19.3417 21.0488 19.6583 21.0488 19.8536 20.8536L27 13.7071V16.5C27 16.7761 27.2239 17 27.5 17C27.7761 17 28 16.7761 28 16.5V12H23.5Z" fill="#0062E1"/>
</svg>
