<svg width="24" height="24" viewBox="0 0 24 24" fill="none" xmlns="http://www.w3.org/2000/svg">
<path fill-rule="evenodd" clip-rule="evenodd" d="M12.0002 2.98992C11.9424 2.96927 11.8799 2.95899 11.8148 2.96124C10.2313 3.0161 8.84739 3.69269 7.7807 4.80599C6.86725 5.74699 6.31004 7.07969 6.09907 8.33447C6.09682 8.34786 6.09512 8.36133 6.09396 8.37486L6.00175 9.45529L6.00068 9.4705L5.99738 9.5309C5.99438 9.58296 5.98955 9.66026 5.98257 9.75571C5.96849 9.94806 5.9457 10.214 5.91097 10.5082C5.83748 11.1307 5.72334 11.7593 5.57508 12.1211C5.44352 12.4421 5.21205 12.8214 4.88715 13.3497C4.81394 13.4688 4.73679 13.5942 4.65692 13.7256C4.24724 14.3997 3.77722 15.2164 3.44895 16.1428C3.42424 16.2126 3.39823 16.2829 3.37083 16.3567C3.37083 16.3567 3.37083 16.3567 3.37083 16.3567C3.36692 16.3672 3.36297 16.3778 3.359 16.3885L3.34991 16.4129C3.19003 16.8424 2.9914 17.376 3.00029 18.0145C3.0079 18.5613 3.45333 19.0006 4.00019 19.0006H8.64567C9.07624 20.4459 10.4147 21.5 12.0004 21.5C13.5861 21.5 14.9246 20.4459 15.3551 19.0006H20.0002C20.5471 19.0006 20.9925 18.5613 21.0001 18.0145C21.009 17.3757 20.8102 16.8419 20.6502 16.412L20.6411 16.3876C20.6094 16.3024 20.5796 16.2222 20.5514 16.1426C20.2307 15.2383 19.7908 14.4297 19.3869 13.7448C19.2482 13.5095 19.1156 13.2916 18.9931 13.0902L18.9925 13.0891C18.7438 12.6804 18.5436 12.3506 18.3948 12.0531C18.2467 11.7569 18.1563 11.1943 18.1266 10.5774C18.1232 10.5057 18.1048 10.4383 18.0747 10.378C18.0481 10.136 18.0299 9.91924 18.0179 9.75571C18.0109 9.66035 18.0061 9.58296 18.0031 9.5309L17.9998 9.4705L17.9987 9.45529L17.9065 8.37486C17.9056 8.36471 17.9045 8.3546 17.903 8.34453C17.9027 8.34285 17.9025 8.34117 17.9022 8.3395C17.9019 8.33782 17.9017 8.33614 17.9014 8.33447C17.6904 7.07972 17.1332 5.74706 16.2198 4.80606C15.1531 3.69273 13.7692 3.0161 12.1857 2.96124C12.1206 2.95899 12.058 2.96927 12.0002 2.98992ZM9.70854 19.0006C10.0945 19.8834 10.9759 20.5 12.0004 20.5C13.0249 20.5 13.9063 19.8834 14.2923 19.0006H9.70854ZM17.1358 10.7696C17.116 10.7249 17.1024 10.6765 17.0964 10.6254C17.0595 10.313 17.0354 10.0318 17.0206 9.82869C17.0131 9.72714 17.008 9.64512 17.0047 9.58849L17.0047 9.587L17.0017 9.53272L16.9119 8.48057C16.723 7.37789 16.2358 6.2577 15.5013 5.50153L15.4988 5.49897C14.5972 4.55752 13.4537 4.00577 12.151 3.96064C12.0982 3.95881 12.0475 3.94884 12.0002 3.93197C11.9529 3.94884 11.9023 3.95881 11.8494 3.96064C10.5467 4.00577 9.40322 4.55752 8.50167 5.49897L8.49918 5.50153C7.76464 6.2577 7.27749 7.37789 7.08857 8.48057L6.99878 9.53272L6.99581 9.587L6.99572 9.58849C6.99246 9.64512 6.98733 9.72714 6.9799 9.82869C6.96504 10.0318 6.94096 10.313 6.90407 10.6254C6.83033 11.2501 6.70534 12.0002 6.5004 12.5003C6.33435 12.9055 6.05904 13.3531 5.75737 13.8436L5.73898 13.8735C5.66559 13.9929 5.58977 14.1162 5.51147 14.245C5.10856 14.9079 4.68377 15.6521 4.39153 16.4768C4.36054 16.5643 4.32797 16.6518 4.29695 16.7352L4.29624 16.7371C4.12891 17.1869 3.99409 17.5625 4.00019 18.0006L20.0002 18.0006C20.0063 17.5622 19.8714 17.1865 19.7039 16.7363L19.7032 16.7344L19.7028 16.7334C19.6719 16.6504 19.6397 16.5639 19.6089 16.4768C19.3201 15.6624 18.9179 14.9182 18.5255 14.2527C18.3906 14.0238 18.2612 13.8111 18.1381 13.6089L18.1301 13.5957C17.8911 13.2027 17.6697 12.8388 17.5004 12.5003C17.2693 12.038 17.1728 11.3622 17.1358 10.7696Z" fill="#E8EBEF"/>
</svg>
