<svg width="40" height="40" viewBox="0 0 40 40" fill="none" xmlns="http://www.w3.org/2000/svg">
<path fill-rule="evenodd" clip-rule="evenodd" d="M14.0187 24.6941L15.8406 26.516L19.2203 23.1546V34.9972H21.771V23.2275L25.1051 26.5434L26.9271 24.7214L20.4501 18.2991L14.0187 24.6941ZM30.8078 17.133V16.9873C30.8078 14.25 29.7204 11.6248 27.7848 9.68915C25.8492 7.75354 23.2239 6.66602 20.4865 6.66602C17.7492 6.66602 15.1239 7.75354 13.1883 9.68915C11.2527 11.6248 10.1653 14.25 10.1653 16.9873V17.1148C8.92963 17.3693 7.79579 17.9807 6.90405 18.8731C6.29699 19.4655 5.81551 20.174 5.48839 20.9566C5.16127 21.7392 4.9952 22.5797 5.00011 23.4279C5.01692 25.1266 5.70413 26.7497 6.91211 27.9441C8.1201 29.1384 9.75104 29.8072 11.4498 29.8047V27.2448C10.4261 27.2448 9.44408 26.8394 8.71853 26.1172C7.99299 25.3951 7.58297 24.4151 7.57816 23.3915C7.5751 22.8812 7.67609 22.3757 7.87501 21.9058C8.07393 21.4359 8.36656 21.0115 8.73505 20.6586C9.10275 20.2856 9.54317 19.9919 10.0289 19.7961C10.5147 19.6002 11.0355 19.5063 11.5591 19.5198H13.1168L12.8253 17.9984C12.7653 17.6525 12.7378 17.3019 12.7433 16.9509C12.7433 14.8972 13.5591 12.9276 15.0112 11.4755C16.4634 10.0234 18.4329 9.20765 20.4865 9.20765C22.5402 9.20765 24.5097 10.0234 25.9618 11.4755C27.414 12.9276 28.2297 14.8972 28.2297 16.9509C28.2352 17.3019 28.2078 17.6525 28.1477 17.9984L27.9656 19.5198H29.5233C30.5453 19.5198 31.5254 19.9257 32.2481 20.6483C32.9707 21.371 33.3767 22.3512 33.3767 23.3732C33.3767 24.3952 32.9707 25.3752 32.2481 26.0979C31.5254 26.8205 30.5453 27.2266 29.5233 27.2266V29.7865C31.2061 29.9568 32.8876 29.4517 34.198 28.3822C35.5083 27.3127 36.3401 25.7666 36.5105 24.0838C36.6808 22.401 36.1757 20.7194 35.1062 19.4091C34.0367 18.0988 32.4906 17.2669 30.8078 17.0965V17.133Z" fill="#666666"/>
</svg>
