<svg width="26" height="26" viewBox="0 0 26 26" fill="none" xmlns="http://www.w3.org/2000/svg">
<path fill-rule="evenodd" clip-rule="evenodd" d="M13.3162 15.8327C12.8187 15.8316 12.3327 15.6829 11.9197 15.4057C11.5066 15.1285 11.185 14.7351 10.9954 14.2752C10.8058 13.8153 10.7569 13.3093 10.8546 12.8215C10.9524 12.3337 11.1925 11.8859 11.5447 11.5346C11.8969 11.1832 12.3453 10.9443 12.8333 10.8476C13.3213 10.751 13.827 10.8013 14.2865 10.9919C14.746 11.1825 15.1387 11.5048 15.4149 11.9185C15.6912 12.3323 15.8387 12.8187 15.8387 13.3162C15.8371 13.9842 15.5706 14.6243 15.0977 15.096C14.6248 15.5678 13.9842 15.8327 13.3162 15.8327ZM13.3162 9.12387C12.4873 9.12504 11.6773 9.37202 10.9887 9.83338C10.3001 10.2947 9.76365 10.9497 9.44725 11.7159C9.13086 12.482 9.04868 13.3248 9.21111 14.1376C9.37354 14.9504 9.77327 15.6969 10.3598 16.2826C10.9463 16.8683 11.6934 17.2671 12.5064 17.4284C13.3195 17.5897 14.1621 17.5062 14.9278 17.1887C15.6935 16.8712 16.3479 16.3341 16.8083 15.6448C17.2687 14.9555 17.5144 14.1451 17.5144 13.3162C17.5113 12.2043 17.0677 11.1389 16.2809 10.3532C15.4941 9.56753 14.4281 9.12543 13.3162 9.12387ZM21.2625 16.3537L19.9243 18.669L18.2782 18.1775L15.0511 20.0369L14.6544 21.7066H11.978L11.5812 20.0369L8.35414 18.1775L6.70805 18.669L5.36983 16.3537L6.61921 15.1695V11.451L5.36983 10.2668L6.70805 7.95146L8.35414 8.44298L11.5812 6.58361L11.978 4.91392H14.6544L15.1755 7.12254L17.7512 8.60286L19.9243 7.95146L21.2625 10.2668L20.0131 11.451V15.1695L21.2625 16.3537ZM21.6948 12.1793L23.3824 10.5923L20.7119 5.97385L17.9644 6.79699L16.6439 6.0389L15.9867 3.25H10.6575L10.1246 5.50604L8.15284 6.64288L5.93236 5.97385L3.26185 10.5923L4.94941 12.1793V14.453L3.25 16.04L5.9205 20.6585L8.14099 19.9895L10.1128 21.1263L10.6457 23.3824H15.9748L16.5078 21.1263L18.4795 19.9895L20.7 20.6585L23.3705 16.04L21.683 14.453L21.6948 12.1793Z" fill="black"/>
</svg>
