<svg width="616" height="27" viewBox="0 0 616 27" fill="none" xmlns="http://www.w3.org/2000/svg">
<path d="M413.579 18.0394H0L6.6694 5.54883H413.503L413.579 18.0394Z" fill="white"/>
<path d="M611.09 16.1102H610.399V15.4551H612.624V16.1102H611.934V18.0393H611.09V16.1102ZM612.97 15.4551H614.12L614.466 16.9838L614.849 15.4551H616V18.0029H615.194V16.4742L614.811 18.0029H614.12L613.737 16.4742V18.0029H613.008V15.4551H612.97Z" fill="white"/>
<path d="M529.407 18.0394L531.608 5.97949H535.007L532.806 18.0394H529.407Z" fill="white"/>
<path d="M537.658 18.0394L539.332 8.68832H535.869L536.364 5.97949H546.639L546.145 8.68832H542.681L541.007 18.0394H537.658Z" fill="white"/>
<path d="M548.694 13.1993C548.694 8.39613 551.44 5.53711 555.214 5.53711C559.104 5.53711 560.019 7.7862 560.209 9.99718L556.892 10.264C556.816 9.23477 556.435 8.28177 555.062 8.28177C552.965 8.28177 552.088 10.6833 552.088 13.123C552.088 14.6478 552.698 15.7152 554.147 15.7152C555.291 15.7152 556.13 14.9147 556.701 13.3518L559.676 14.4191C558.608 16.8588 557.045 18.3836 553.994 18.3836C550.791 18.3836 548.694 16.592 548.694 13.1993Z" fill="white"/>
<path d="M558.837 18.1547L565.319 5.72754H568.446L570.543 18.1547H567.263L566.958 15.8294H563.146L561.964 18.1547H558.837ZM564.404 13.4659H566.653L566.196 10.0351H566.158L564.404 13.4659Z" fill="white"/>
<path d="M571.496 18.1547L573.669 5.76562H576.986L580.113 12.7035H580.151L581.371 5.76562H584.421L582.248 18.1547H579.16L575.804 11.2168H575.766L574.546 18.1547H571.496Z" fill="white"/>
<path d="M586.633 18.1547L588.806 5.76562H593.191C595.517 5.76562 597.729 6.29931 597.729 8.51028C597.729 10.8356 596.356 11.4837 594.983 11.7505V11.7886C596.242 12.0173 597.157 12.7416 597.157 14.3046C597.157 17.7354 594.068 18.1928 592.391 18.1928H586.633V18.1547ZM590.332 15.6388H592.162C593.153 15.6388 593.916 15.1813 593.916 14.1521C593.916 13.3897 593.382 13.0466 591.933 13.0466H590.789L590.332 15.6388ZM591.209 10.6831H592.734C593.763 10.6831 594.373 10.2638 594.373 9.34893C594.373 8.66276 593.916 8.31968 592.581 8.31968H591.59L591.209 10.6831Z" fill="white"/>
<path d="M598.034 18.1547L600.207 5.76562H608.862L608.367 8.5484H603.067L602.724 10.5688H606.46L606.003 13.161H602.266L601.847 15.4482H607.452L606.956 18.1547H598.034Z" fill="white"/>
<path d="M436.563 18.182C439.241 18.182 440.411 16.804 440.411 15.257C440.411 13.268 438.617 12.735 436.927 12.28C435.666 11.929 434.951 11.656 434.951 10.889C434.951 10.317 435.445 9.927 436.342 9.927C437.278 9.927 438.201 10.473 438.708 11.292L440.177 10.174C439.501 9.147 438.331 8.198 436.355 8.198C434.288 8.198 432.884 9.277 432.884 11.071C432.884 13.086 434.678 13.528 436.394 14.009C437.655 14.36 438.344 14.672 438.344 15.4C438.344 16.141 437.642 16.505 436.667 16.505C435.562 16.505 434.6 15.92 434.067 14.867L432.468 15.816C433.183 17.194 434.483 18.182 436.563 18.182ZM444.706 18.091C445.161 18.091 445.928 18.026 446.084 17.987V16.492C445.941 16.544 445.629 16.57 445.395 16.57C444.641 16.57 444.433 16.336 444.433 15.595V12.592H446.214V11.071H444.433V8.692H442.353V11.071H441.196V12.592H442.353V16.05C442.353 17.35 442.652 18.091 444.706 18.091ZM449.682 16.531C449.227 16.531 448.915 16.31 448.915 15.868C448.915 15.231 449.617 14.815 451.268 14.646V15.933C450.917 16.284 450.41 16.531 449.682 16.531ZM448.85 18.104C449.877 18.104 450.631 17.701 451.268 16.986C451.268 17.376 451.333 17.714 451.424 18H453.504C453.361 17.649 453.309 17.142 453.309 16.31V13.645C453.309 11.864 452.529 10.928 450.631 10.928C448.902 10.928 447.862 11.539 447.173 12.163L448.057 13.359C448.694 12.865 449.448 12.501 450.332 12.501C451.008 12.501 451.268 12.826 451.268 13.333V13.502C448.226 13.749 446.874 14.633 446.874 16.232C446.874 17.415 447.784 18.104 448.85 18.104ZM456.938 18V13.346C457.406 12.943 457.887 12.657 458.446 12.657C459.031 12.657 459.265 12.982 459.265 13.606V18H461.345V12.943C461.345 11.513 460.5 10.928 459.33 10.928C458.121 10.928 457.354 11.617 456.938 12.163V11.071H454.845V18H456.938ZM467.067 18.104C468.653 18.104 469.758 16.921 469.758 14.529C469.758 12.137 468.666 10.928 467.093 10.928C466.066 10.928 465.416 11.5 464.961 12.137V8.38H462.868V18H464.961V17.181C465.481 17.766 466.131 18.104 467.067 18.104ZM466.352 16.531C465.793 16.531 465.416 16.323 464.961 15.894V13.333C465.312 12.982 465.793 12.657 466.326 12.657C467.262 12.657 467.665 13.385 467.665 14.542C467.665 15.803 467.223 16.531 466.352 16.531ZM473.152 10.122V8.445H471.045V10.122H473.152ZM473.139 18V11.071H471.059V18H473.139ZM477.831 18.143C479.664 18.143 480.522 17.116 480.964 16.037L479.235 15.439C478.936 16.375 478.429 16.674 477.87 16.674C476.908 16.674 476.518 15.79 476.518 14.555C476.518 13.177 477.051 12.462 477.896 12.462C478.507 12.462 478.91 12.748 479.183 13.632L480.938 13.047C480.535 11.929 479.807 10.928 477.922 10.928C476.388 10.928 474.425 11.773 474.425 14.542C474.425 17.233 476.206 18.143 477.831 18.143ZM489.742 18C491.536 18 493.239 17.285 493.239 15.348C493.239 13.814 492.316 13.203 491.146 12.995V12.969C492.121 12.774 492.979 12.124 492.979 10.759C492.979 8.809 491.315 8.38 489.547 8.38H485.699V18H489.742ZM487.779 10.018H489.365C490.496 10.018 490.951 10.434 490.951 11.188C490.951 11.929 490.444 12.345 489.339 12.345H487.779V10.018ZM487.779 13.84H489.391C490.561 13.84 491.172 14.256 491.172 15.101C491.172 15.92 490.652 16.388 489.482 16.388H487.779V13.84ZM497.023 16.531C496.568 16.531 496.256 16.31 496.256 15.868C496.256 15.231 496.958 14.815 498.609 14.646V15.933C498.258 16.284 497.751 16.531 497.023 16.531ZM496.191 18.104C497.218 18.104 497.972 17.701 498.609 16.986C498.609 17.376 498.674 17.714 498.765 18H500.845C500.702 17.649 500.65 17.142 500.65 16.31V13.645C500.65 11.864 499.87 10.928 497.972 10.928C496.243 10.928 495.203 11.539 494.514 12.163L495.398 13.359C496.035 12.865 496.789 12.501 497.673 12.501C498.349 12.501 498.609 12.826 498.609 13.333V13.502C495.567 13.749 494.215 14.633 494.215 16.232C494.215 17.415 495.125 18.104 496.191 18.104ZM504.279 18V13.346C504.747 12.943 505.228 12.657 505.787 12.657C506.372 12.657 506.606 12.982 506.606 13.606V18H508.686V12.943C508.686 11.513 507.841 10.928 506.671 10.928C505.462 10.928 504.695 11.617 504.279 12.163V11.071H502.186V18H504.279ZM512.302 18V16.128L513.147 15.179L514.681 18H516.839L514.447 13.658L516.709 11.071H514.46L512.302 13.658V8.38H510.209V18H512.302Z" fill="white"/>
</svg>
