<svg width="27" height="22" viewBox="0 0 27 22" fill="none" xmlns="http://www.w3.org/2000/svg">
<path d="M6.6 1.73684C6.6 1.42975 6.71589 1.13523 6.92218 0.918087C7.12847 0.70094 7.40826 0.578947 7.7 0.578947H25.3C25.5917 0.578947 25.8715 0.70094 26.0778 0.918087C26.2841 1.13523 26.4 1.42975 26.4 1.73684C26.4 2.04393 26.2841 2.33845 26.0778 2.5556C25.8715 2.77274 25.5917 2.89474 25.3 2.89474H7.7C7.40826 2.89474 7.12847 2.77274 6.92218 2.5556C6.71589 2.33845 6.6 2.04393 6.6 1.73684ZM25.3 9.84211H7.7C7.40826 9.84211 7.12847 9.9641 6.92218 10.1812C6.71589 10.3984 6.6 10.6929 6.6 11C6.6 11.3071 6.71589 11.6016 6.92218 11.8188C7.12847 12.0359 7.40826 12.1579 7.7 12.1579H25.3C25.5917 12.1579 25.8715 12.0359 26.0778 11.8188C26.2841 11.6016 26.4 11.3071 26.4 11C26.4 10.6929 26.2841 10.3984 26.0778 10.1812C25.8715 9.9641 25.5917 9.84211 25.3 9.84211ZM25.3 19.1053H7.7C7.40826 19.1053 7.12847 19.2273 6.92218 19.4444C6.71589 19.6616 6.6 19.9561 6.6 20.2632C6.6 20.5703 6.71589 20.8648 6.92218 21.0819C7.12847 21.2991 7.40826 21.4211 7.7 21.4211H25.3C25.5917 21.4211 25.8715 21.2991 26.0778 21.0819C26.2841 20.8648 26.4 20.5703 26.4 20.2632C26.4 19.9561 26.2841 19.6616 26.0778 19.4444C25.8715 19.2273 25.5917 19.1053 25.3 19.1053ZM1.65 0C1.32366 0 1.00465 0.101864 0.73331 0.292711C0.461969 0.483557 0.250484 0.754815 0.1256 1.07218C0.00071491 1.38955 -0.0319606 1.73877 0.031705 2.07568C0.0953706 2.4126 0.252518 2.72207 0.483274 2.96498C0.714031 3.20788 1.00803 3.3733 1.3281 3.44031C1.64817 3.50733 1.97993 3.47293 2.28143 3.34148C2.58293 3.21002 2.84062 2.9874 3.02193 2.70178C3.20323 2.41616 3.3 2.08036 3.3 1.73684C3.3 1.2762 3.12616 0.83443 2.81673 0.508709C2.50729 0.182988 2.08761 0 1.65 0ZM1.65 9.26316C1.32366 9.26316 1.00465 9.36502 0.73331 9.55587C0.461969 9.74672 0.250484 10.018 0.1256 10.3353C0.00071491 10.6527 -0.0319606 11.0019 0.031705 11.3388C0.0953706 11.6758 0.252518 11.9852 0.483274 12.2281C0.714031 12.471 1.00803 12.6365 1.3281 12.7035C1.64817 12.7705 1.97993 12.7361 2.28143 12.6046C2.58293 12.4732 2.84062 12.2506 3.02193 11.9649C3.20323 11.6793 3.3 11.3435 3.3 11C3.3 10.5394 3.12616 10.0976 2.81673 9.77187C2.50729 9.44615 2.08761 9.26316 1.65 9.26316ZM1.65 18.5263C1.32366 18.5263 1.00465 18.6282 0.73331 18.819C0.461969 19.0099 0.250484 19.2811 0.1256 19.5985C0.00071491 19.9159 -0.0319606 20.2651 0.031705 20.602C0.0953706 20.9389 0.252518 21.2484 0.483274 21.4913C0.714031 21.7342 1.00803 21.8996 1.3281 21.9666C1.64817 22.0336 1.97993 21.9992 2.28143 21.8678C2.58293 21.7363 2.84062 21.5137 3.02193 21.2281C3.20323 20.9425 3.3 20.6067 3.3 20.2632C3.3 19.8025 3.12616 19.3607 2.81673 19.035C2.50729 18.7093 2.08761 18.5263 1.65 18.5263Z" fill="#001C5D"/>
</svg>
