<svg width="40" height="40" viewBox="0 0 40 40" fill="none" xmlns="http://www.w3.org/2000/svg">
<path fill-rule="evenodd" clip-rule="evenodd" d="M20.0002 10.9899C19.9424 10.9693 19.8799 10.959 19.8148 10.9612C18.2313 11.0161 16.8474 11.6927 15.7807 12.806C14.8673 13.747 14.31 15.0797 14.0991 16.3345C14.0968 16.3479 14.0951 16.3613 14.094 16.3749L14.0017 17.4553L14.0007 17.4705L13.9974 17.5309C13.9944 17.583 13.9896 17.6603 13.9826 17.7557C13.9685 17.9481 13.9457 18.214 13.911 18.5082C13.8375 19.1307 13.7233 19.7593 13.5751 20.1211C13.4435 20.4421 13.2121 20.8214 12.8872 21.3497C12.8139 21.4688 12.7368 21.5942 12.6569 21.7256C12.2472 22.3997 11.7772 23.2164 11.449 24.1428C11.4242 24.2126 11.3982 24.2829 11.3708 24.3567C11.3708 24.3567 11.3708 24.3567 11.3708 24.3567C11.3669 24.3672 11.363 24.3778 11.359 24.3885L11.3499 24.4129C11.19 24.8424 10.9914 25.376 11.0003 26.0145C11.0079 26.5613 11.4533 27.0006 12.0002 27.0006H16.6457C17.0762 28.4459 18.4147 29.5 20.0004 29.5C21.5861 29.5 22.9246 28.4459 23.3551 27.0006H28.0002C28.5471 27.0006 28.9925 26.5613 29.0001 26.0145C29.009 25.3757 28.8102 24.8419 28.6502 24.412L28.6411 24.3876C28.6094 24.3024 28.5796 24.2222 28.5514 24.1426C28.2307 23.2383 27.7908 22.4297 27.3869 21.7448C27.2482 21.5095 27.1156 21.2916 26.9931 21.0902L26.9925 21.0891C26.7438 20.6804 26.5436 20.3506 26.3948 20.0531C26.2467 19.7569 26.1563 19.1943 26.1266 18.5774C26.1232 18.5057 26.1048 18.4383 26.0747 18.378C26.0481 18.136 26.0299 17.9192 26.0179 17.7557C26.0109 17.6604 26.0061 17.583 26.0031 17.5309L25.9998 17.4705L25.9987 17.4553L25.9065 16.3749C25.9056 16.3647 25.9045 16.3546 25.903 16.3445C25.9027 16.3428 25.9025 16.3412 25.9022 16.3395C25.9019 16.3378 25.9017 16.3361 25.9014 16.3345C25.6904 15.0797 25.1332 13.7471 24.2198 12.8061C23.1531 11.6927 21.7692 11.0161 20.1857 10.9612C20.1206 10.959 20.058 10.9693 20.0002 10.9899ZM17.7085 27.0006C18.0945 27.8834 18.9759 28.5 20.0004 28.5C21.0249 28.5 21.9063 27.8834 22.2923 27.0006H17.7085ZM25.1358 18.7696C25.116 18.7249 25.1024 18.6765 25.0964 18.6254C25.0595 18.313 25.0354 18.0318 25.0206 17.8287C25.0131 17.7271 25.008 17.6451 25.0047 17.5885L25.0047 17.587L25.0017 17.5327L24.9119 16.4806C24.723 15.3779 24.2358 14.2577 23.5013 13.5015L23.4988 13.499C22.5972 12.5575 21.4537 12.0058 20.151 11.9606C20.0982 11.9588 20.0475 11.9488 20.0002 11.932C19.9529 11.9488 19.9023 11.9588 19.8494 11.9606C18.5467 12.0058 17.4032 12.5575 16.5017 13.499L16.4992 13.5015C15.7646 14.2577 15.2775 15.3779 15.0886 16.4806L14.9988 17.5327L14.9958 17.587L14.9957 17.5885C14.9925 17.6451 14.9873 17.7271 14.9799 17.8287C14.965 18.0318 14.941 18.313 14.9041 18.6254C14.8303 19.2501 14.7053 20.0002 14.5004 20.5003C14.3343 20.9055 14.059 21.3531 13.7574 21.8436L13.739 21.8735C13.6656 21.9929 13.5898 22.1162 13.5115 22.245C13.1086 22.9079 12.6838 23.6521 12.3915 24.4768C12.3605 24.5643 12.328 24.6518 12.297 24.7352L12.2962 24.7371C12.1289 25.1869 11.9941 25.5625 12.0002 26.0006L28.0002 26.0006C28.0063 25.5622 27.8714 25.1865 27.7039 24.7363L27.7032 24.7344L27.7028 24.7334C27.6719 24.6504 27.6397 24.5639 27.6089 24.4768C27.3201 23.6624 26.9179 22.9182 26.5255 22.2527C26.3906 22.0238 26.2612 21.8111 26.1381 21.6089L26.1301 21.5957C25.8911 21.2027 25.6697 20.8388 25.5004 20.5003C25.2693 20.038 25.1728 19.3622 25.1358 18.7696Z" fill="#0062E1"/>
<circle cx="20" cy="20" r="19.5" stroke="#0062E1"/>
</svg>
