<?xml version="1.0" encoding="UTF-8"?><svg xmlns="http://www.w3.org/2000/svg" version="1.1" viewBox="0 0 1600 1200" width="1600" height="1200" x="0px" y="0px" xmlns:xlink="http://www.w3.org/1999/xlink">
<defs/><!--ITEM: Illustration component 1--><g transform="translate(262.0 140.0) rotate(0.0 360.0 243.0)  scale(0.35505409643663766 0.3555131605705181)"><svg width="2027.86" height="1367.038" viewBox="0.0 0.0 2027.86 1367.038"><g>
	<path style="fill:#FFB400;" d="M1103.745,324.18H670.441V197.354c0-27.56,22.341-49.901,49.901-49.901h333.502   c27.56,0,49.901,22.341,49.901,49.901V324.18z"/>
	<path style="fill:#FFB400;" d="M1571.569,324.18h-433.304V197.354c0-27.56,22.341-49.901,49.901-49.901h333.502   c27.56,0,49.901,22.341,49.901,49.901V324.18z"/>
	<path style="fill:#FFB400;" d="M1013.93,1367.038c-260.234,0-524.133-10.392-784.365-30.888   c-43.389-3.599-87.227-23.792-123.521-56.868c-36.56-33.316-60.632-75.396-67.782-118.49l-0.018-0.108   C12.867,1002.379,0,841.837,0,683.519s12.867-318.86,38.243-477.166l0.018-0.108c7.15-43.093,31.223-85.173,67.782-118.489   c36.294-33.074,80.132-53.268,123.438-56.861C489.797,10.392,753.695,0,1013.93,0s524.134,10.392,784.366,30.888   c43.39,3.6,87.228,23.794,123.521,56.87c36.558,33.315,60.63,75.395,67.782,118.487l0.018,0.109   c25.376,158.305,38.243,318.847,38.243,477.166s-12.867,318.86-38.243,477.166l-0.018,0.108   c-7.149,43.093-31.222,85.174-67.782,118.491c-36.295,33.074-80.132,53.267-123.438,56.861l-0.084,0.006   C1538.063,1356.646,1274.164,1367.038,1013.93,1367.038z M77.729,1154.296c11.807,70.975,82.801,135.991,155.059,141.985   c259.118,20.408,520.146,30.615,781.12,30.615c261.006,0,522.007-10.207,781.199-30.618   c72.242-6.016,143.213-71.011,155.021-141.966c50.069-312.385,50.074-629.168,0.005-941.554   c-11.802-70.979-82.802-136.005-155.061-142c-259.118-20.408-520.146-30.615-781.12-30.615   c-261.038,0-522.024,10.205-781.247,30.621c-72.174,5.99-143.169,71.005-154.976,141.978   C27.66,525.128,27.66,841.911,77.729,1154.296z"/>
	<path style="fill:#04294f;" d="M1907.564,421.264c-9.388-57.607-57.585-100.891-115.85-104.348   c-370.847-22.004-741.695-28.247-1112.542-18.775c-25.409,0.649-46.356-19.767-46.356-45.184v-58.726   c0-26.563-21.533-48.096-48.096-48.096H321.364c-77.853,0-146.325,51.339-168.306,126.025   c-5.152,17.506-9.993,34.936-13.943,50.872c-59.848,271.631-54.858,544.374,9.108,818.18   c10.833,45.578,57.181,84.217,102.391,86.953c508.877,29.632,1017.754,29.632,1526.632,0   c45.211-2.735,91.557-41.376,102.391-86.953C1935.895,900.396,1946.534,660.402,1907.564,421.264z"/>
	<g>
		<g id="Layer_23cNQLXmVay5v6Su_4zXIV_1_-i1">
			<g id="cross_shape_2_copy_33cNQLXmVay5v6Su_4zXIV_1_-i1">
				<path style="fill:#10294C;" d="M1763.375,122.279c-12.298-2.741-37.131,34.597-36.284,39.663      c0.847,5.067,28.721,21.97,27.036,28.724c-1.685,6.754-26.161,23.626-25.736,29.115s28.729,35.48,36.751,36.751      c8.022,1.271,23.203-28.272,27.425-27.425c4.222,0.847,24.083,30.833,31.68,28.305c7.598-2.529,38.822-30.374,37.13-37.13      c-1.693-6.756-32.101-26.194-29.993-29.993c2.109-3.798,29.537-26.158,29.112-30.802s-29.573-34.636-35.484-35.484      c-5.911-0.848-26.581,28.27-32.07,27C1787.455,149.735,1770.975,123.972,1763.375,122.279z"/>
			</g>
		</g>
	</g>
</g>
</svg></g><!--ITEM: Illustration component 2--><g transform="translate(1337.0 638.0) rotate(0.0 -142.5 228.0)  scale(-0.6550519444699826 0.6527639399457176)"><svg width="435.08" height="698.568" viewBox="0.0 0.0 435.08 698.568"><path style="fill:#04294F;" d="M421.738,374.035c-1.234-7.16-7.045-12.645-14.264-13.466c-24.423-2.776-48.914-5.007-73.445-6.707  c10.813-108.749,9.929-218.716-2.668-327.264c-0.838-7.223-6.347-13.025-13.517-14.235c-97.595-16.484-196.566-16.484-294.161,0  c-7.17,1.21-12.679,7.012-13.517,14.235c-13.555,116.818-13.555,235.281,0,352.099c0.218,1.876,0.759,3.633,1.539,5.241  c-16.12,99.955-15.57,201.185,1.651,301.054c1.372,7.958,8.281,13.573,16.091,13.573c0.922,0,1.858-0.078,2.798-0.241  c8.898-1.534,14.867-9.99,13.332-18.888c-16.458-95.444-17.126-192.179-2.004-287.727c17.519-1.858,35.071-3.429,52.645-4.724  c-15.62,98.966-14.919,199.152,2.127,298.006c1.372,7.958,8.281,13.573,16.091,13.573c0.922,0,1.858-0.078,2.798-0.241  c8.898-1.534,14.867-9.99,13.332-18.888c-16.851-97.725-17.136-196.803-0.88-294.575c56.965-3.032,114.104-3.106,171.078-0.235  c0.865,1.586,1.987,3.02,3.318,4.241c15.588,96.472,15.072,194.179-1.549,290.569c-1.535,8.898,4.435,17.354,13.332,18.888  c0.94,0.163,1.874,0.241,2.798,0.241c7.809,0,14.719-5.615,16.091-13.573c17.054-98.904,17.748-199.142,2.103-298.157  c18.249,1.321,36.474,2.945,54.663,4.874c15.121,95.548,14.454,192.283-2.004,287.727c-1.535,8.898,4.435,17.354,13.332,18.888  c8.89,1.543,17.355-4.433,18.888-13.332C439.527,581.824,439.527,477.204,421.738,374.035z M40.905,359.117  c-6.842-65.023-9.403-130.516-7.682-195.892c91.694,5.69,183.387,5.69,275.081,0c1.657,62.962-0.654,126.033-6.939,188.688  C214.532,347.59,127.332,349.993,40.905,359.117z"/>
</svg></g><!--ITEM: Illustration component 3--><g transform="translate(762.0 315.0) rotate(0.0 356.5 386.5)  scale(0.7600306996972669 0.7598291219992648)"><svg width="938.12" height="1017.334" viewBox="0.0 0.0 938.12 1017.334"><g id="Слой_1-i3">
</g>
<g id="Слой_11-i3">
</g>
<g id="Слой_9-i3">
</g>
<g id="Слой_3-i3">
</g>
<g id="Слой_8-i3">
</g>
<g id="Слой_7-i3">
</g>
<g id="Слой_10-i3">
</g>
<g id="Слой_2-i3">
</g>
<g id="Слой_5-i3">
</g>
<g id="Слой_12-i3">
</g>
<g id="Слой_4-i3">
	<g>
		<path fill="#1A2B4A" d="M541.36,295.215c0.232-0.05,0.674,1.032,1.308,3.152c0.298,1.063,0.72,2.372,1.049,3.953    c0.334,1.58,0.722,3.407,1.106,5.476c0.628,4.154,1.369,9.278,1.461,15.296c0.141,6.007-0.188,12.91-1.588,20.418    c-0.182,0.936-0.336,1.891-0.55,2.845c-0.231,0.95-0.465,1.912-0.701,2.883c-0.426,1.958-1.106,3.892-1.686,5.901    c-1.357,3.948-2.884,8.043-4.935,12.063c-3.961,8.108-9.495,16.119-16.31,23.58c-6.819,7.468-14.952,14.315-23.877,20.552    c-2.23,1.563-4.516,3.081-6.839,4.575c-1.159,0.752-2.341,1.472-3.518,2.213l-1.782,1.085l-0.895,0.542    c-0.34,0.19-0.459,0.313-1.168,0.671c-1.424,0.614-2.649,1.188-4.02,1.736c-1.364,0.507-2.691,1.094-4.104,1.528l-2.1,0.696    c-0.704,0.225-1.433,0.401-2.151,0.603c-1.426,0.426-2.92,0.704-4.405,1.012c-3.006,0.497-6.061,0.881-9.193,0.681    c-3.105-0.182-6.286-0.664-9.253-1.935c-2.956-1.229-5.715-2.999-7.943-5.233c-0.575-0.539-1.044-1.161-1.565-1.74l-0.757-0.885    l-0.65-0.944l-1.269-1.893l-1.014-1.78c-5.469-9.42-9.929-19.03-13.158-28.58c-3.148-9.572-5.088-19.07-5.598-28.074    c-0.296-4.5-0.152-8.866,0.146-13.04c0.423-4.168,1.013-8.149,1.92-11.877c0.915-3.721,1.961-7.223,3.25-10.421    c0.584-1.621,1.318-3.129,1.955-4.617c0.732-1.447,1.373-2.879,2.134-4.191c2.903-5.322,6-9.537,8.796-12.724    c5.615-6.391,9.732-8.814,9.969-8.49c0.354,0.412-3.1,3.489-7.87,10.147c-2.38,3.322-5.024,7.577-7.469,12.802    c-0.646,1.288-1.172,2.688-1.79,4.093c-0.522,1.447-1.144,2.905-1.616,4.467c-1.066,3.079-1.896,6.427-2.611,9.959    c-0.708,3.539-1.115,7.301-1.38,11.223c-0.141,3.932-0.153,8.03,0.247,12.256c0.718,8.453,2.75,17.377,5.903,26.431    c3.236,9.035,7.623,18.187,12.977,27.231l0.991,1.708l0.998,1.451l0.498,0.726l0.575,0.648c0.392,0.421,0.736,0.899,1.16,1.283    c1.636,1.617,3.589,2.832,5.724,3.724c4.316,1.743,9.501,1.773,14.657,0.835c5.156-0.976,10.314-2.827,15.056-4.982    c1.084-0.65,2.165-1.297,3.241-1.942c1.149-0.714,2.293-1.424,3.434-2.132c2.265-1.436,4.489-2.889,6.654-4.379    c8.665-5.947,16.5-12.382,23.078-19.335c6.572-6.948,11.933-14.346,15.867-21.855c2.037-3.722,3.584-7.522,4.996-11.2    c0.606-1.874,1.322-3.676,1.791-5.511c0.26-0.911,0.517-1.812,0.77-2.702c0.24-0.895,0.42-1.794,0.631-2.675    c1.626-7.066,2.281-13.653,2.503-19.454c0.272-5.81-0.064-10.836-0.275-14.953c-0.176-2.058-0.333-3.886-0.468-5.47    c-0.113-1.592-0.316-2.926-0.393-4.02C541.117,296.443,541.128,295.265,541.36,295.215z"/>
		<path fill="#F04E23" d="M154.396,347.622c-0.912,0.745-3.18-0.103-5.066-1.895c-1.886-1.792-2.676-3.848-1.764-4.593    c0.912-0.745,3.18,0.103,5.066,1.895C154.518,344.82,155.308,346.877,154.396,347.622z"/>
		<g>
			<path fill-rule="evenodd" clip-rule="evenodd" fill="#F9B71B" d="M61.821,285.444c-12.956-3.01-24.318,1.629-34.07,8.498     c-6.256,4.407-17.397,12.262-24.822,4.012c-10.473-11.638,9.772-28.244,19.305-32.18c11.956-4.936,26.013-7.241,39.47-7.112     c18.335,0.175,36.825,4.103,54.073,10.564c11.87,4.447,23.942,12.305,30.964,22.865c2.278,3.425,3.48,7.537,2.457,11.247     c-2.123,7.703-10.834,5.639-16.001,10.104c-2.242,1.938-2.908,4.992-4.994,7.066c-3.624,3.605-10.106,3.172-15.68,2.475     c-5.883-0.736-15.21-1.383-19.899-5.412c-3.257-2.799-2.592-7.919-4.361-11.616c-4.735-9.732-14.127-17.218-25.414-20.256     C62.507,285.609,62.163,285.524,61.821,285.444z"/>
			<path fill-rule="evenodd" clip-rule="evenodd" fill="#F9B71B" d="M152.199,270.349c10.707-2.036,22.107-0.582,32.205,4.107     c2.59,1.091,4.909,2.675,6.786,4.635c1.771,2.022,2.728,4.742,1.893,7.073c-1.39,3.884-6.794,5.082-11.436,4.976     c-4.642-0.106-9.651-0.894-13.596,1.079c-5.041,2.52-6.274,8.439-9.711,12.573c-3.807,4.579-11.852,10.417-18.054,12.021     c-4.287,1.109-10.555-0.123-14.895-1.57c-12.901-4.299-7.378-21.993-1.494-29.483     C129.76,278.298,142.355,272.254,152.199,270.349z"/>
			<path fill-rule="evenodd" clip-rule="evenodd" fill="#F9B71B" d="M32.353,291.49c-2.265,2.162-4.287,4.676-4.898,7.648     c-0.611,2.972,0.486,6.473,3.355,8.293c4.054,2.571,9.36,0.901,13.756-0.644c12.583-4.419,25.951-7.087,39.661-7.915     c4.424-0.266,9.895-1.029,10.947-4.845c0.963-3.493-2.69-6.863-6.258-8.836C70.97,275.268,45.76,278.689,32.353,291.49z"/>
			<path fill-rule="evenodd" clip-rule="evenodd" fill="#F9B71B" d="M60.978,297.718c-3.135,2.568-6.343,5.323-7.808,9.155     c-1.465,3.832-0.579,9.049,3.073,11.425c2.651,1.725,6.06,1.536,8.798,0.389c2.738-1.148,4.983-3.124,7.32-4.913     c6.882-5.304,15.043-9.158,23.938-11.305c5.448-1.293,12.851-3.087,11.899-10.297c-0.691-5.232-6.357-10.794-11.437-11.764     C84.116,277.994,69.445,290.783,60.978,297.718z"/>
			<path fill="#F04E23" d="M83.634,297.487c-0.268,0.049-0.554-0.025-0.765-0.198c-0.409-0.276-0.792-0.583-1.145-0.916     c-0.45-0.407-0.965-0.907-1.57-1.468c-0.6-0.562-1.28-1.19-2.055-1.848c-0.766-0.665-1.642-1.347-2.59-2.05     c-1.017-0.73-2.073-1.414-3.165-2.048c-2.459-1.43-5.114-2.546-7.883-3.316c-1.43-0.376-2.881-0.661-4.344-0.852     c-1.377-0.176-2.761-0.268-4.14-0.274c-1.264-0.005-2.523,0.05-3.772,0.166c-1.176,0.127-2.279,0.271-3.278,0.457     c-1.004,0.175-1.91,0.373-2.714,0.554c-0.807,0.178-1.507,0.348-2.102,0.472c-0.474,0.109-0.961,0.179-1.455,0.211     c-0.374,0.005-0.635-0.063-0.76-0.216c-0.125-0.153-0.107-0.385,0.051-0.69c0.231-0.413,0.533-0.789,0.897-1.113     c0.543-0.51,1.143-0.97,1.789-1.375c0.852-0.543,1.758-1.018,2.708-1.422c1.157-0.495,2.363-0.903,3.605-1.221     c1.44-0.358,2.918-0.604,4.42-0.736c1.672-0.147,3.366-0.15,5.059-0.008c3.674,0.291,7.287,1.271,10.6,2.877     c1.531,0.733,2.988,1.591,4.354,2.563c1.226,0.872,2.374,1.831,3.431,2.867c0.908,0.901,1.738,1.862,2.482,2.873     c0.612,0.827,1.15,1.694,1.607,2.592c0.351,0.675,0.632,1.374,0.839,2.088c0.148,0.463,0.217,0.939,0.205,1.412     C83.922,297.21,83.819,297.418,83.634,297.487z"/>
			<path fill="#F04E23" d="M75.242,296.508c0.489,1.432-3.247,3.513-8.345,4.648c-5.098,1.135-9.628,0.894-10.117-0.539     c-0.489-1.432,3.247-3.513,8.346-4.648C70.224,294.834,74.753,295.076,75.242,296.508z"/>
			<path fill="#F04E23" d="M32.398,287.879c-0.751-0.064-1.448-0.433-1.89-1.001c-0.726-0.729-1.407-1.493-2.039-2.287     c-0.665-0.773-1.283-1.577-1.849-2.408c-0.464-0.724-0.755-1.389-0.502-1.887c0.243-0.482,1.066-0.685,2.223-0.389     c0.661,0.18,1.289,0.461,1.855,0.83c0.332,0.214,0.646,0.452,0.937,0.71c0.633,0.551,1.162,1.189,1.564,1.888     c0.19,0.323,0.351,0.658,0.481,1.002c0.226,0.586,0.336,1.197,0.327,1.805C33.47,287.201,32.995,287.824,32.398,287.879z"/>
			<path fill="#F04E23" d="M59.7,295.112c-0.969,0.63-2.963-0.293-4.452-2.063s-1.911-3.714-0.942-4.344     c0.969-0.63,2.962,0.294,4.452,2.063C60.247,292.537,60.669,294.482,59.7,295.112z"/>
			<path fill="#F04E23" d="M16.757,289.908L16.757,289.908c1.516-0.543,3.532-0.438,4.644,0.738     c1.057,1.118,0.908,2.779,0.224,4.022c-0.763,1.474-2.258,2.515-4.061,2.826C10.885,298.409,12.639,291.384,16.757,289.908z"/>
			<path fill="#F04E23" d="M39.891,297.858L39.891,297.858c1.785-0.638,4.291-0.154,5.154,1.472     c0.573,1.369,0.175,2.862-1.003,3.767c-1.171,0.864-2.543,1.493-4.031,1.849c-1.159,0.356-2.448,0.71-3.628,0.272     c-0.953-0.368-1.621-1.178-1.72-2.087C34.485,301.197,38.149,298.481,39.891,297.858z"/>
			<path fill="#F04E23" d="M64.107,308.727L64.107,308.727c1.278-0.73,3.236-1.007,4.263,0.1c0.515,0.627,0.685,1.416,0.459,2.13     c-0.23,0.702-0.586,1.36-1.053,1.949c-0.573,0.934-1.33,1.762-2.236,2.447c-1.679,1.118-4.807,0.823-5.123-1.498     C60.165,312.001,62.592,309.593,64.107,308.727z"/>
			<path fill="#F04E23" d="M181.337,282.814L181.337,282.814c1.539,0.268,3.053,1.499,2.933,2.876     c-0.151,0.915-0.808,1.674-1.751,2.024c-0.932,0.335-1.93,0.524-2.952,0.561c-1.044,0.152-2.123,0.117-3.177-0.102     c-1.074-0.24-1.931-1.012-2.193-1.974C173.687,283.312,179.077,282.42,181.337,282.814z"/>
		</g>
		<path fill="#00AEE0" d="M159.724,315.984c-5.047-4.325-19.999-12.656-43.729-14.658c-23.741-2.003-46.794,5.217-47.166,9.632    l1.666,28.419c-1.219,14.308,1.496,46.686,11.046,76.261c17.129,53.049,68.649,102.484,133.368,107.944    c38.92,3.284,89.237-3.965,118.635-32.283c16.78-16.15,16.744-5.725,29.393-25.758c-2.456-16.342-4.869-44.429-7.124-53.618    c-5.34-21.76,114.811-142.869,97.261-133.683c-85.635,6.189-126.205,69.985-143.516,101.018    c-17.311,31.033-54.549,56.827-80.993,54.595c-30.708-2.591-59.077-40.495-64.678-61.007    C158.284,352.334,161.5,334.134,159.724,315.984z"/>
		<g>
			<g>
				<path fill-rule="evenodd" clip-rule="evenodd" fill="#E84E27" d="M356.678,766.163c-26.962,2.163-37.825,58.294-38.848,61.508      c13.848,10.833-16.25,59.46,27.216,100.161c3.23,3.024,7.956,3.595,10.946,1.024c18.378-15.8,38.276-44.568,49.957-78.287      c1.93-5.572,0.027-12.168-4.77-16.616c-4.059-3.799-7.87-7.854-11.412-12.139c-2.436-2.919-2.627-7.018-0.231-9.419      c2.887-2.892,7.903-2.273,10.741,1.136c2.576,3.095,5.013,5.774,7.339,8.112c2.186,2.197,5.694,1.399,6.173-1.396      c0.638-3.728,1.153-7.482,1.544-11.262c-11.998-12.758-13.819-15.695-18.848-22.482      C391.454,779.717,382.128,764.121,356.678,766.163z"/>
				<path fill-rule="evenodd" clip-rule="evenodd" fill="#F9B71B" d="M347.784,753.47c8.018,6.87,23.386,8.278,24.121,18.268      c0.887,29.351-15.013,78.079-37.308,103.266c-2.31,2.609-6.784,1.996-8.935-1.238c-14.084-21.18-4.458-51.291-10.236-64.269      L347.784,753.47z"/>
			</g>
			<path fill-rule="evenodd" clip-rule="evenodd" fill="#F9B61B" d="M438.793,572.315c0,0-209.078-77.966-245.793-5.476     C140.021,671.443,268.714,785.5,317.83,821.033c31.737-2.835,39.023-18.66,36.696-62.45     c-24.623-55.184-25.254-69.329-65.865-105.086c38.066-21.66,106.074,11.756,155.504,31.483     C517.54,704.855,438.793,572.315,438.793,572.315z"/>
		</g>
		<g>
			<path fill-rule="evenodd" clip-rule="evenodd" fill="#E84E27" d="M333.945,911.045c-17.886-18.22-65.569,1.274-65.569,1.274     c0.567,17.573-63.358,34.899-66.719,94.352c-0.25,4.418,2.343,8.41,6.233,9.056c23.908,3.971,58.743,0.793,92.107-11.866     c5.514-2.092,9.354-7.781,9.691-14.315c0.313-5.551,0.98-11.075,1.997-16.541c0.678-3.741,3.7-6.516,7.079-6.216     c4.071,0.361,6.812,4.607,6.015,8.971c-0.723,3.961-1.216,7.549-1.519,10.833c-0.284,3.086,2.578,5.267,5.029,3.841     c3.27-1.901,6.481-3.913,9.632-6.037c2.097-17.387,3.182-20.668,5.166-28.88S351.831,929.265,333.945,911.045z"/>
			<path fill-rule="evenodd" clip-rule="evenodd" fill="#F9B61B" d="M332.116,901.222c-0.131,10.558,9.415,22.368,2.221,29.339     c-21.953,19.501-70.313,39.43-103.936,38.473c-3.484-0.099-5.882-3.926-4.779-7.65c7.222-24.389,41.84-35.485,42.753-49.065     L332.116,901.222z"/>
		</g>
		<path fill-rule="evenodd" clip-rule="evenodd" fill="#F9B61B" d="M553.242,749.824c-52.598,5.635-212.889-10.311-218.559-3.625    c5.818,60.517,5.908,94.935-1.537,162.052c-12.192,28.887-69.983,13.211-69.983,13.211s-52.176-156.077-24.245-225.043    c41.362-102.128,221.63-91.492,268.653-74.665C554.593,638.58,599.636,744.853,553.242,749.824z"/>
		<path fill-rule="evenodd" clip-rule="evenodd" fill="#1A2B4A" d="M644.199,569.837c18.77,51.972,33.908,109.179-15.698,154.388    c-51.628,47.052-163.527,35.273-288.957,28.491c-3.17-0.171-5.919-2.734-4.825-5.715c30.293-82.498-16.889-125.647-32.622-113.018    c-5.705,4.579-12.277-6.629-10.766-14.18c5.576-27.864,4.474-64.921-25.202-83.436c-3.921-2.446-1.165-7.814,3.388-8.602    c90.643-15.687,205.922,8.217,205.922,8.217L644.199,569.837z"/>
		<path fill-rule="evenodd" clip-rule="evenodd" fill="#0DADDD" d="M338.945,522.432c-24.511-58.404-6.953-62.515-1.939-93.823    c4.521-34.432,54.19-92.03,61.962-130.233c24.278-7.274,44.897-23.268,134.577-21.73c64.923,2.223,78.334,27.458,100.707,35.389    c46.485,92.022,41.925,227.798,9.947,257.802c-7.5,7.037-9.136,7.812-19.455,13.771c-80.275,46.354-229.86,14.218-270.456-18.25    C338.845,551.322,326.98,536.985,338.945,522.432z"/>
		<path fill="#1A2B4A" d="M556.111,526.902c0.061,0.468-1.139,1.082-3.377,1.765c-2.238,0.682-5.518,1.423-9.629,2.067    c-4.112,0.637-9.063,1.177-14.625,1.277c-2.779,0.059-5.71,0.003-8.75-0.227c-3.039-0.219-6.19-0.59-9.388-1.204    c-3.203-0.613-6.316-1.392-9.242-2.383c-2.924-1.001-5.695-2.12-8.239-3.405c-2.536-1.296-4.888-2.651-6.953-4.14    c-2.093-1.438-3.891-3-5.468-4.472c-0.755-0.781-1.482-1.507-2.127-2.236c-0.624-0.753-1.217-1.451-1.733-2.134    c-0.495-0.705-0.945-1.364-1.347-1.973c-0.387-0.623-0.693-1.226-0.975-1.756c-0.579-1.05-0.844-1.977-1.005-2.601    c-0.147-0.636-0.121-1.021,0.083-1.143c0.204-0.122,0.575,0.025,1.086,0.401c0.527,0.366,1.124,1.01,1.984,1.75    c0.407,0.381,0.859,0.804,1.354,1.268c0.516,0.441,1.063,0.925,1.639,1.447c0.603,0.494,1.248,1.022,1.931,1.582    c0.703,0.528,1.446,1.085,2.227,1.671c1.616,1.099,3.381,2.287,5.396,3.383c1.98,1.143,4.204,2.185,6.565,3.209    c2.37,1.014,4.934,1.907,7.619,2.736c2.693,0.82,5.528,1.481,8.47,2.045c2.949,0.567,5.87,0.958,8.708,1.251    c2.838,0.304,5.599,0.488,8.242,0.602c5.285,0.246,10.097,0.221,14.16,0.211c4.064-0.017,7.383-0.017,9.699,0.12    C554.735,526.147,556.05,526.429,556.111,526.902z"/>
		<path fill="#1A2B4A" d="M152.632,343.029c-0.186,0.147-0.543,0.097-1.021-0.098c-0.455-0.213-1.128-0.501-1.915-0.896    c-0.408-0.18-0.861-0.381-1.357-0.601c-0.52-0.19-1.036-0.439-1.641-0.649c-1.195-0.434-2.552-0.916-4.116-1.345    c-1.546-0.454-3.277-0.878-5.148-1.29c-1.873-0.412-3.897-0.787-6.038-1.148c-4.288-0.694-9.052-1.294-14.084-1.695    c-10.066-0.834-19.237-0.828-25.859-0.574c-1.661,0.07-3.164,0.133-4.483,0.188c-1.324,0.063-2.472,0.108-3.42,0.132    c-0.957-0.003-1.699,0.009-2.238-0.084c-0.536-0.085-0.854-0.238-0.922-0.465c-0.068-0.227,0.119-0.519,0.546-0.868    c0.428-0.341,1.091-0.778,1.989-1.184c0.894-0.433,2.015-0.873,3.34-1.308c1.325-0.427,2.854-0.855,4.559-1.229    c6.82-1.535,16.476-2.333,27.051-1.456c5.287,0.421,10.299,1.25,14.8,2.342c2.249,0.561,4.371,1.178,6.331,1.873    c1.96,0.695,3.761,1.438,5.363,2.249c1.607,0.78,3.009,1.657,4.185,2.499c0.592,0.411,1.108,0.88,1.583,1.275    c0.466,0.423,0.861,0.859,1.21,1.235c0.665,0.822,1.112,1.499,1.286,2.066C152.824,342.542,152.818,342.882,152.632,343.029z"/>
		<g>
			<path fill="#00AEE0" d="M801.99,682.624l22.33-91.774c-53.214-14.512-86.911-34.098-103.016-59.879     c-14.101-22.573-15.919-50.626-18.024-83.11c-2.885-51.569-17.657-148.325-148.016-169.622l21.563,67.751     c35.831,31.385,38.198,67.908,41.195,114.147c2.42,37.333,3.593,90.179,27.84,128.993c13.361,21.388,40.116,39.757,63.998,55.01     C734.429,659.83,764.565,672.418,801.99,682.624z"/>
			<path fill="#04294F" d="M824.32,590.85c-11.848-3.231-28.315,16.823-33.837,37.071c-5.522,20.247-0.341,51.472,11.507,54.703     c11.848,3.231,24.412-16.11,29.934-36.357C837.446,626.019,836.167,594.081,824.32,590.85z"/>
			<g>
				<path fill="#F9B71B" d="M922.633,643.982c0.565,0.308,1.422,1.097,2.371,2.37c0.815,1.114,1.511,2.31,2.076,3.569      c1.398,3.101,2.101,6.47,2.062,9.871c-0.014,1.38-0.173,2.755-0.474,4.102c-0.448,1.923-1.066,3.112-1.495,3.391      c-0.084,1.313-0.213,2.622-0.393,3.921c-0.168,1.875-0.602,3.71-1.283,5.453c2.215,0.757,4.654,0.783,6.731-0.252      c4.493-2.239,5.6-8.075,5.817-13.09c0.181-4.181,0.112-8.443-1.133-12.439c-1.244-3.996-3.804-7.736-7.549-9.604      c-3.796-1.893-6.666-1.912-8.805-0.746c0.533,0.779,1.043,1.573,1.507,2.392C922.264,643.27,922.447,643.627,922.633,643.982z       M930.706,669.263c0.501-1.164,1.29-2.182,2.293-2.958c0.312-0.266,0.681-0.456,1.079-0.555c0.405-0.096,0.831,0.029,1.12,0.329      c0.636,0.749-0.319,3.509-0.641,4.323c-0.286,0.817-0.901,1.477-1.697,1.819c-0.821,0.323-1.756,0.035-2.254-0.694      C930.289,670.797,930.326,669.961,930.706,669.263z"/>
				<path fill="#F9B71B" d="M825.672,668.945c1.18,0.324,2.388,0.627,3.603,0.909c-0.677-0.198-1.356-0.4-2.053-0.625      C826.684,669.141,826.17,669.046,825.672,668.945z"/>
				<path fill="#F9B71B" d="M841.894,671.999c2.421,0.215,3.971,0.134,4.949-0.169C845.186,671.986,843.543,672.045,841.894,671.999      z"/>
				<path fill="#F9B71B" d="M825.672,668.945c-1.704-0.468-3.345-0.977-4.869-1.519C822.191,668.063,823.784,668.56,825.672,668.945      z"/>
				<path fill="#F9B71B" d="M829.275,669.853c0.424,0.124,0.842,0.238,1.258,0.351c-0.013-0.025-0.026-0.051-0.039-0.076      C830.087,670.04,829.682,669.947,829.275,669.853z"/>
				<path fill="#F9B71B" d="M844.929,625.13c-0.562,0.066-1.126,0.138-1.69,0.216c0.048,0.03,0.097,0.06,0.146,0.091      C843.896,625.335,844.411,625.232,844.929,625.13z"/>
				<path fill="#F9B71B" d="M833.352,670.712c-0.946-0.178-1.902-0.375-2.857-0.584c0.013,0.025,0.026,0.051,0.039,0.076      c4.011,1.09,7.712,1.691,11.36,1.794C839.779,671.811,837.008,671.402,833.352,670.712z"/>
				<path fill="#F9B71B" d="M851.894,668.709c-1.06-1.541-1.912-3.2-2.566-4.931c-2.506,3.299,0.896,7.002-2.486,8.051      c2.275-0.215,4.586-0.623,6.987-1.223C853.368,670.425,852.671,669.77,851.894,668.709z"/>
				<path fill="#F9B71B" d="M813.937,610.871c-1.268-0.529-2.68-0.509-3.924,0.011c-0.287,0.12-0.568,0.258-0.833,0.432      c-0.302,0.229-0.603,0.475-0.902,0.726c-5.389,4.514-10.239,12.499-12.895,22.237c-1.581,5.611-2.206,11.449-1.851,17.268      c0.049,0.718,0.269,1.396,0.613,2c0.435,0.765,1.079,1.401,1.877,1.826c7.796,3.025,13.048,6.269,16.826,7.788      c1.939,0.779,4.355,2.986,7.955,4.266c1.524,0.542,3.165,1.051,4.869,1.519c0.498,0.101,1.011,0.197,1.55,0.284      c0.697,0.225,1.376,0.427,2.053,0.625c0.406,0.094,0.812,0.187,1.219,0.276c0.956,0.209,1.911,0.405,2.857,0.584      c3.656,0.689,6.427,1.099,8.542,1.286c1.649,0.047,3.293-0.012,4.949-0.169c3.382-1.05-0.02-4.752,2.486-8.051      c-0.11-0.293-0.215-0.587-0.313-0.884c-4.804-0.303-16.021-3.163-17.216-3.828c-5.916-3.292-10.38-8.941-11.125-15.791      c-0.51-4.683,0.455-7.964,2.412-10.352c2.108-2.573,5.378-4.099,9.266-5.158c3.364-1.12,8.946-2.116,12.699-2.634      c-2.386-1.495-4.93-2.793-7.182-4.592L813.937,610.871z"/>
				<path fill="#F9B71B" d="M836.297,626.853c2.265-0.442,4.638-0.927,7.088-1.416c-0.048-0.031-0.097-0.061-0.146-0.091      c-3.753,0.518-7.523,1.298-10.887,2.418C833.612,627.421,834.928,627.12,836.297,626.853z"/>
				<path fill="#F9B71B" d="M906.508,641.29c0.387,0.846,0.727,1.707,1.032,2.579c1.73,3.784,2.748,7.868,2.983,12.047      c0.065,1.217,0.057,2.437-0.024,3.653c-0.044,0.57-0.059,1.121-0.134,1.647c-0.083,0.523-0.162,1.025-0.238,1.505      c-0.367,1.996-0.865,3.514-1.311,4.506c-0.299,1.998-0.718,4.016-1.31,5.957c0.294,1.182,0.623,2.353,1.064,3.488      c1.365,3.514,4.224,6.88,7.986,7.129c2.979,0.197,5.811-1.674,7.475-4.153c0.573-0.956,1.063-1.956,1.466-2.988      c-1.096-0.374-2.138-0.924-3.053-1.619c-0.549-0.417-1.047-0.886-1.519-1.38c-0.403,0.86-1.023,1.601-1.799,2.04      c-0.93,0.585-2.099,0.639-3.08,0.144c-0.961-0.716-1.513-1.857-1.478-3.055c-0.092-1.774,1.046-4.203,2.749-4.873      c-0.197-0.471-0.383-0.946-0.553-1.424c-2.354-6.638-2.968-22.278,3.794-25.964c-4.975-7.278-12.819-12.703-21.548-13.736      c-1.806-0.214-3.625-0.227-5.417-0.065C898.878,629.748,903.348,634.392,906.508,641.29z"/>
				<path fill="#F9B71B" d="M916.765,666.493c0.17,0.478,0.356,0.953,0.553,1.424c0.744-0.293,1.595-0.253,2.5,0.331      c1.824,1.178,1.97,3.57,1.108,5.412c0.472,0.494,0.97,0.963,1.519,1.38c0.915,0.695,1.957,1.245,3.053,1.619      c0.681-1.743,1.115-3.578,1.283-5.453c0.18-1.299,0.309-2.608,0.393-3.921c-0.083,0.054-0.162,0.086-0.228,0.069      c-0.904-0.233-0.056-5.618-1.439-11.953c-1.268-6.359-4.201-10.954-3.465-11.53c0.108-0.084,0.318-0.038,0.592,0.111      c-0.186-0.355-0.369-0.712-0.567-1.061c-0.464-0.819-0.974-1.613-1.507-2.392C913.798,644.215,914.412,659.854,916.765,666.493z      "/>
				<path fill="#F9B71B" d="M897.725,658.436c-4.957-0.517-8.781,4.154-13.342,5.13c-0.009,0.139-0.005,0.278-0.016,0.417      c-0.402,4.712-1.863,7.306-2.214,7.173c-0.485-0.136,0.142-2.875-0.056-7.214c-0.002-0.082-0.013-0.162-0.016-0.243      c-0.269-0.026-0.537-0.05-0.813-0.109c-1.528-0.328-2.748-1.048-3.748-2.009c-2.129,0.967-4.344,1.895-6.561,2.803      c1.478,1.517,2.723,4.086,2.481,5.932c-0.141,1.313-1.023,2.429-2.268,2.869c-0.984,0.244-2.025,0.05-2.856-0.531      c-0.818-0.581-1.495-1.339-1.98-2.218c-0.717-1.103-1.113-2.383-1.142-3.698l0,0c-3.93,1.627-7.483,2.865-10.847,3.739      c-0.031,0.061-0.071,0.11-0.122,0.142c-0.044,0.026-0.097,0.038-0.155,0.039c0.144,0.221,0.286,0.444,0.44,0.659      c5.864,8.188,17.255,10.072,25.443,4.209c1.755,8.185,12.453,12.941,19.706,8.761c4.079-2.351,6.448-6.506,7.849-11.104      c-0.617-2.478-1.064-5.01-1.958-7.401C904.228,662.251,901.476,658.828,897.725,658.436z M895.822,677.856      c-0.327,0.229-0.68,0.421-1.051,0.571c-2.264,0.921-4.846-0.168-5.767-2.432c-0.318-0.781-0.406-1.637-0.253-2.467      c0.61-3.851,5.616-6.671,8.362-3.011C898.783,672.9,898.205,676.186,895.822,677.856z"/>
				<path fill="#F9B71B" d="M858.784,624.497c7.822,0.248,15.794,2.448,22.381,6.757c3.515-2.544,7.884-4.117,12.429-4.527      c-13.599-7.771-32.604-4.768-48.665-1.598C850.086,624.52,855.081,624.38,858.784,624.497z"/>
				<path fill="#F9B71B" d="M832.352,627.764c-3.888,1.059-7.158,2.585-9.266,5.158c0.402-0.346,0.804-0.687,1.203-1.017      C826.373,630.175,829.183,628.819,832.352,627.764z"/>
				<path fill="#F9B71B" d="M848.458,629.706c8.732,10.773,9.531,20.508,3.153,30.77c0.109,0.357,0.221,0.718,0.337,1.085      c1.368,4.44,2.838,8.061,2.398,8.917c3.364-0.875,6.917-2.112,10.847-3.739l0,0v0c0.05-2.456,2.524-4.72,4.885-3.122      c0.298,0.201,0.592,0.472,0.88,0.768c2.218-0.908,4.433-1.836,6.561-2.803c-3.623-3.483-4.158-10.331-4.249-14.968      c-0.016-0.835,0.021-1.649,0.108-2.442c-2.662-2.572-5.834-4.659-9.416-6.062c-4.013-1.661-6.802-2.002-6.766-2.504      c-0.005-0.376,2.931-0.868,7.499,0.355c2.671,0.736,5.209,1.889,7.521,3.416c0.653,0.424,1.282,0.878,1.891,1.353      c1.241-3.892,3.777-7.103,7.055-9.475c-6.588-4.309-14.559-6.51-22.381-6.757c-3.703-0.117-8.698,0.023-13.854,0.633      c-0.518,0.102-1.033,0.204-1.544,0.307C845.252,626.617,847.016,627.927,848.458,629.706z"/>
				<path fill="#F9B71B" d="M820.674,643.274c0.746,6.85,5.21,12.499,11.125,15.791c1.195,0.665,12.412,3.526,17.216,3.828      c-0.764-2.303-1.176-4.722-1.186-7.176c0.006-0.245,0.019-0.474,0.036-0.692c-0.556-0.105-1.207-0.275-1.95-0.537      c-1.297-0.471-2.541-1.077-3.712-1.808c-2.888-1.797-5.349-4.203-7.211-7.049c-0.757-1.154-1.391-2.384-1.891-3.67      c-0.835-2.205-0.892-3.693-0.496-3.833c0.881-0.31,3.177,4.634,7.854,9.125c2.897,2.884,5.95,4.815,7.741,6.073      c0.13-0.315,0.286-0.495,0.456-0.506c0.841-0.039,1.652,3.4,2.956,7.656c6.378-10.262,5.578-19.996-3.153-30.77      c-1.442-1.779-3.206-3.089-5.073-4.269c-2.449,0.489-4.823,0.975-7.088,1.416c-1.369,0.267-2.685,0.568-3.945,0.911      c-3.169,1.055-5.978,2.411-8.063,4.141c-0.398,0.331-0.8,0.671-1.203,1.017C821.129,635.31,820.165,638.592,820.674,643.274z"/>
				<path fill="#F9B71B" d="M882.081,663.699c-0.048-1.395-0.194-2.77-0.439-4.117c-1.316,0.688-2.698,1.352-4.121,1.999      c0.999,0.961,2.22,1.68,3.748,2.009C881.544,663.65,881.812,663.673,882.081,663.699z"/>
				<path fill="#F9B71B" d="M890.388,640.117c5.583,8.031,1.328,13.576-6.223,18.062c0.257,1.782,0.33,3.587,0.218,5.387      c4.56-0.976,8.385-5.648,13.342-5.13c3.75,0.392,6.502,3.814,7.823,7.346c0.894,2.391,1.341,4.923,1.958,7.401      c0.591-1.941,1.01-3.959,1.31-5.957c-0.41,0.91-0.776,1.378-0.953,1.319c-0.473-0.14-0.088-2.431,0.005-6.054      c0.008-0.452,0.015-0.925,0.023-1.42c0.007-0.492-0.041-1.006-0.055-1.535c-0.007-1.059-0.155-2.183-0.261-3.363      c-0.61-5.117-2.18-10.073-4.627-14.608c-0.592-1.026-1.118-2.031-1.723-2.9c-0.293-0.44-0.55-0.889-0.839-1.287      c-0.291-0.399-0.57-0.781-0.836-1.147c-2.161-2.909-3.796-4.561-3.489-4.948c0.232-0.313,2.426,0.735,5.205,3.459      c0.338,0.349,0.692,0.713,1.062,1.094c0.363,0.387,0.692,0.828,1.057,1.269c0.766,0.948,1.475,1.941,2.123,2.973      c0.761,1.222,1.438,2.488,2.033,3.79c-0.305-0.872-0.645-1.733-1.032-2.579c-3.16-6.898-7.63-11.542-12.914-14.562      c-4.545,0.41-8.914,1.983-12.429,4.527C884.725,633.583,887.887,636.518,890.388,640.117z"/>
				<path fill="#F9B71B" d="M873.38,644.172c-0.087,0.792-0.125,1.607-0.108,2.442c0.091,4.637,0.626,11.485,4.249,14.968      c1.424-0.647,2.805-1.311,4.121-1.999C880.564,653.655,877.635,648.284,873.38,644.172z"/>
				<path fill="#F9B71B" d="M883.711,655.75c0.194,0.803,0.337,1.614,0.455,2.43c7.551-4.486,11.806-10.032,6.223-18.062      c-2.501-3.598-5.664-6.533-9.224-8.862c-3.278,2.372-5.814,5.583-7.055,9.475C878.915,644.477,882.32,649.768,883.711,655.75z"/>
				<path fill="#F04E23" d="M910.365,661.215c0.075-0.526,0.089-1.076,0.134-1.647c0.081-1.216,0.089-2.436,0.024-3.653      c-0.235-4.179-1.253-8.263-2.983-12.047c2.376,6.786,2.368,14.297,1.528,21.488c-0.072,0.619-0.159,1.243-0.252,1.87      c0.446-0.991,0.944-2.51,1.311-4.506C910.203,662.24,910.282,661.738,910.365,661.215z"/>
				<path fill="#F04E23" d="M907.54,643.868c-0.595-1.301-1.271-2.568-2.033-3.79c-0.648-1.032-1.357-2.025-2.123-2.973      c-0.365-0.441-0.694-0.883-1.057-1.269c-0.37-0.381-0.723-0.745-1.062-1.094c-2.779-2.725-4.973-3.772-5.205-3.459      c-0.307,0.387,1.328,2.039,3.489,4.948c0.267,0.366,0.545,0.748,0.836,1.147c0.289,0.398,0.545,0.847,0.839,1.287      c0.604,0.87,1.13,1.874,1.723,2.9c2.447,4.535,4.017,9.491,4.627,14.608c0.106,1.18,0.254,2.304,0.261,3.363      c0.014,0.529,0.062,1.043,0.055,1.535c-0.008,0.494-0.016,0.967-0.023,1.42c-0.092,3.623-0.478,5.914-0.005,6.054      c0.177,0.059,0.543-0.409,0.953-1.319c0.094-0.626,0.18-1.251,0.252-1.87C909.908,658.165,909.916,650.655,907.54,643.868z"/>
				<path fill="#F04E23" d="M882.081,663.699c0.003,0.082,0.013,0.162,0.016,0.243c0.199,4.339-0.429,7.078,0.056,7.214      c0.351,0.133,1.812-2.461,2.214-7.173c0.011-0.139,0.008-0.278,0.016-0.417C883.639,663.726,882.873,663.776,882.081,663.699z"/>
				<path fill="#F04E23" d="M872.218,639.377c-2.312-1.527-4.85-2.68-7.521-3.416c-4.569-1.223-7.504-0.73-7.499-0.355      c-0.036,0.503,2.752,0.843,6.766,2.504c3.583,1.402,6.754,3.489,9.416,6.062c0.132-1.199,0.38-2.348,0.729-3.443      C873.5,640.254,872.871,639.8,872.218,639.377z"/>
				<path fill="#F04E23" d="M882.081,663.699c0.792,0.077,1.558,0.026,2.303-0.133c0.112-1.801,0.039-3.605-0.218-5.387      c-0.807,0.479-1.65,0.947-2.524,1.404C881.886,660.93,882.033,662.305,882.081,663.699z"/>
				<path fill="#F04E23" d="M881.642,659.583c0.874-0.457,1.717-0.924,2.524-1.404c-0.117-0.815-0.261-1.627-0.455-2.43      c-1.391-5.981-4.796-11.273-9.602-15.02c-0.349,1.095-0.597,2.244-0.729,3.443C877.635,648.284,880.564,653.655,881.642,659.583      z"/>
				<path fill="#F04E23" d="M853.83,670.607c0.089,0.035,0.169,0.053,0.239,0.052c-0.021-0.032-0.043-0.063-0.064-0.096      C853.947,670.578,853.889,670.592,853.83,670.607z"/>
				<path fill="#F04E23" d="M851.182,662.429c0.03,0.319-0.429,0.465-1.216,0.487c-0.208,0.287-0.417,0.574-0.636,0.861      c0,0-0.001,0.001-0.001,0.001c0.654,1.731,1.506,3.39,2.566,4.931c0.776,1.06,1.474,1.716,1.936,1.897      c0.059-0.015,0.117-0.029,0.176-0.044C852.432,668.118,851.458,665.332,851.182,662.429z"/>
				<path fill="#F04E23" d="M849.015,662.894c0.099,0.297,0.203,0.592,0.313,0.884c0,0,0.001-0.001,0.001-0.001      c0.219-0.288,0.428-0.575,0.636-0.861C849.687,662.923,849.371,662.916,849.015,662.894z"/>
				<path fill="#F04E23" d="M854.347,670.478c-0.114,0.03-0.227,0.056-0.341,0.085c0.021,0.032,0.043,0.064,0.064,0.096      c0.059-0.001,0.111-0.012,0.155-0.039C854.276,670.588,854.315,670.539,854.347,670.478z"/>
				<path fill="#F04E23" d="M851.182,662.429c0.276,2.903,1.251,5.689,2.824,8.134c0.114-0.029,0.227-0.055,0.341-0.085      c0.44-0.856-1.03-4.477-2.398-8.917c-0.116-0.367-0.228-0.728-0.337-1.085c-0.503,0.81-1.053,1.623-1.645,2.439      C850.753,662.894,851.212,662.748,851.182,662.429z"/>
				<path fill="#F04E23" d="M848.655,652.82c-0.17,0.011-0.325,0.191-0.456,0.506c1.049,0.737,1.667,1.244,1.56,1.572      c-0.087,0.265-0.786,0.337-1.894,0.128c-0.017,0.218-0.03,0.447-0.036,0.692c0.01,2.454,0.422,4.872,1.186,7.176      c0.356,0.022,0.672,0.029,0.95,0.022c0.592-0.817,1.142-1.63,1.645-2.439C850.307,656.219,849.496,652.781,848.655,652.82z"/>
				<path fill="#F04E23" d="M840.459,647.253c-4.677-4.491-6.973-9.435-7.854-9.125c-0.396,0.14-0.339,1.628,0.496,3.833      c0.501,1.286,1.135,2.516,1.891,3.67c1.862,2.847,4.323,5.253,7.211,7.049c1.171,0.731,2.415,1.336,3.712,1.808      c0.743,0.262,1.394,0.433,1.95,0.537c0.059-0.743,0.177-1.322,0.333-1.7C846.409,652.068,843.356,650.137,840.459,647.253z"/>
				<path fill="#F04E23" d="M849.76,654.898c0.107-0.328-0.511-0.835-1.56-1.572c-0.156,0.378-0.275,0.957-0.333,1.7      C848.973,655.235,849.672,655.163,849.76,654.898z"/>
				<path fill="#F04E23" d="M914.569,672.789c-0.035,1.199,0.516,2.339,1.478,3.055c0.981,0.495,2.149,0.44,3.08-0.144      c0.775-0.439,1.396-1.18,1.799-2.04c-1.559-1.63-2.727-3.632-3.607-5.743C915.616,668.586,914.477,671.015,914.569,672.789z"/>
				<path fill="#F04E23" d="M919.818,668.248c-0.905-0.584-1.755-0.624-2.5-0.331c0.88,2.111,2.048,4.113,3.607,5.743      C921.787,671.819,921.642,669.426,919.818,668.248z"/>
				<path fill="#F04E23" d="M888.751,673.528c-0.152,0.83-0.064,1.685,0.253,2.467c0.921,2.264,3.503,3.353,5.767,2.432      c0.371-0.15,0.723-0.341,1.051-0.571c2.383-1.67,2.961-4.956,1.291-7.339C894.367,666.857,889.361,669.677,888.751,673.528z"/>
				<path fill="#F04E23" d="M868.315,672.655c0.831,0.581,1.872,0.775,2.856,0.531c1.245-0.44,2.128-1.556,2.268-2.869      c0.242-1.845-1.002-4.415-2.481-5.932c-1.943,0.795-3.885,1.576-5.766,2.354c0.029,1.315,0.425,2.596,1.142,3.698      C866.82,671.316,867.497,672.074,868.315,672.655z"/>
				<path fill="#F04E23" d="M870.078,663.617c-2.361-1.598-4.836,0.666-4.885,3.122v0c1.88-0.778,3.823-1.559,5.766-2.354      C870.67,664.088,870.376,663.818,870.078,663.617z"/>
				<path fill="#F04E23" d="M928.668,663.894c0.301-1.347,0.46-2.722,0.474-4.102c0.04-3.401-0.664-6.77-2.062-9.871      c-0.565-1.259-1.261-2.455-2.076-3.569c-0.949-1.273-1.807-2.062-2.371-2.37c3.714,7.089,5.052,15.274,4.54,23.303      C927.602,667.006,928.22,665.818,928.668,663.894z"/>
				<path fill="#F04E23" d="M922.633,643.982c-0.274-0.149-0.484-0.195-0.592-0.111c-0.735,0.576,2.197,5.171,3.465,11.53      c1.383,6.335,0.535,11.72,1.439,11.953c0.066,0.017,0.145-0.015,0.228-0.069C927.686,659.256,926.348,651.071,922.633,643.982z"/>
				<path fill="#F04E23" d="M932.86,672.22c0.795-0.342,1.411-1.002,1.697-1.819c0.323-0.814,1.278-3.573,0.641-4.323      c-0.289-0.3-0.715-0.425-1.12-0.329c-0.398,0.099-0.767,0.29-1.079,0.555c-1.003,0.776-1.792,1.794-2.293,2.958      c-0.381,0.699-0.418,1.534-0.1,2.263C931.104,672.255,932.039,672.543,932.86,672.22z"/>
			</g>
		</g>
		<path fill="#1A2B4A" d="M567.608,285.296c0.23-0.057,0.711,1.024,1.418,3.151c0.333,1.068,0.809,2.378,1.183,3.972    c0.381,1.592,0.836,3.43,1.271,5.518c0.736,4.195,1.625,9.374,1.778,15.485c0.203,6.095-0.13,13.121-1.705,20.73    c-1.516,7.614-4.498,15.731-9.026,23.71c-2.308,3.963-5.008,7.87-8.065,11.665c-3.051,3.803-6.538,7.41-10.285,10.893    c-7.509,6.966-16.261,13.203-25.719,18.83c-4.728,2.822-9.633,5.502-14.657,8.09l-0.943,0.488l-0.378,0.196    c-0.167,0.072-0.309,0.118-0.404,0.156l-0.508,0.191l-2.039,0.764c-1.349,0.533-2.762,0.958-4.157,1.424    c-1.386,0.488-2.85,0.824-4.28,1.239c-1.444,0.386-2.936,0.673-4.413,0.999l-2.262,0.358c-0.75,0.129-1.504,0.235-2.273,0.288    l-2.29,0.205c-0.77,0.031-1.543,0.033-2.313,0.048l-1.154,0.016l-1.162-0.072c-0.774-0.057-1.547-0.082-2.318-0.172    c-1.542-0.231-3.083-0.427-4.59-0.856c-1.525-0.322-2.98-0.913-4.437-1.437c-1.411-0.646-2.833-1.264-4.13-2.083    c-1.359-0.727-2.542-1.677-3.782-2.54c-1.126-0.981-2.331-1.889-3.333-2.958l-0.78-0.777l-0.389-0.388l-0.27-0.27    c-0.125-0.104-0.221-0.268-0.302-0.378l-1.223-1.753c-0.781-1.12-1.558-2.234-2.331-3.344c-1.537-2.225-2.938-4.52-4.386-6.741    c-1.356-2.287-2.716-4.539-3.98-6.814c-1.202-2.314-2.5-4.537-3.554-6.863c-0.549-1.15-1.095-2.293-1.637-3.428    c-0.512-1.151-0.986-2.312-1.474-3.456c-1.015-2.27-1.795-4.611-2.644-6.88c-1.52-4.607-2.857-9.144-3.653-13.657    c-0.111-0.561-0.221-1.119-0.331-1.675c-0.081-0.562-0.162-1.122-0.242-1.679c-0.151-1.116-0.33-2.216-0.45-3.315    c-0.184-2.207-0.408-4.366-0.415-6.501c-0.107-2.128,0.028-4.22,0.086-6.261c0.188-2.038,0.318-4.033,0.652-5.962    c0.243-1.938,0.691-3.797,1.065-5.613c0.485-1.793,0.912-3.549,1.499-5.206c0.511-1.68,1.177-3.252,1.769-4.791    c0.686-1.501,1.293-2.979,2.028-4.335c2.787-5.505,5.946-9.782,8.735-13.04c2.8-3.26,5.261-5.505,7.001-6.926    c1.742-1.423,2.782-2.015,2.932-1.851c0.17,0.186-0.556,1.119-1.955,2.832c-1.397,1.711-3.487,4.195-5.868,7.588    c-2.373,3.39-5.066,7.691-7.372,13.037c-0.616,1.317-1.104,2.743-1.67,4.183c-0.473,1.476-1.021,2.975-1.418,4.569    c-0.473,1.571-0.788,3.231-1.167,4.917c-0.268,1.71-0.614,3.449-0.762,5.262c-0.24,1.8-0.282,3.663-0.389,5.558    c0.022,1.902-0.041,3.843,0.13,5.823c0.07,1.981,0.351,3.992,0.582,6.04c0.144,1.022,0.345,2.047,0.516,3.084    c0.089,0.518,0.179,1.038,0.269,1.561c0.118,0.518,0.237,1.039,0.356,1.562c0.857,4.2,2.231,8.446,3.761,12.766    c0.856,2.133,1.633,4.328,2.646,6.472c0.485,1.08,0.973,2.166,1.464,3.26c0.538,1.075,1.079,2.156,1.623,3.245    c1.04,2.198,2.328,4.317,3.508,6.514c1.247,2.166,2.588,4.315,3.918,6.498c1.429,2.128,2.8,4.321,4.311,6.459    c0.76,1.066,1.523,2.138,2.29,3.214l1.103,1.549l1.101,1.077c0.857,0.912,1.856,1.625,2.788,2.443    c1.016,0.679,1.979,1.466,3.067,2.024c1.039,0.658,2.17,1.123,3.284,1.639c1.161,0.394,2.298,0.875,3.522,1.116    c4.808,1.263,10.122,0.998,15.428,0.061c1.327-0.299,2.656-0.548,3.972-0.899c1.312-0.383,2.633-0.675,3.928-1.131    c1.297-0.432,2.6-0.815,3.875-1.316l1.917-0.711l0.479-0.177c0.166-0.065,0.002,0.01,0.177-0.077l0.926-0.475    c4.942-2.519,9.741-5.104,14.349-7.801c9.218-5.379,17.664-11.25,24.887-17.721c3.604-3.236,6.958-6.568,9.896-10.068    c2.944-3.493,5.557-7.078,7.814-10.714c4.422-7.321,7.469-14.781,9.189-21.888c1.777-7.097,2.436-13.759,2.599-19.623    c0.214-5.876-0.266-10.956-0.582-15.115c-0.238-2.077-0.449-3.922-0.632-5.521c-0.157-1.608-0.415-2.951-0.528-4.056    C567.408,286.546,567.378,285.354,567.608,285.296z"/>
		<path fill="#1A2B4A" d="M337.023,516.601c-0.429,0.196-1.617-1.371-3.388-4.417c-0.821-1.551-1.861-3.441-2.875-5.725    c-0.506-1.142-1.062-2.36-1.603-3.673c-0.513-1.326-1.055-2.727-1.624-4.198c-0.503-1.499-1.031-3.069-1.58-4.705    c-0.472-1.662-1.006-3.383-1.462-5.192c-0.428-1.817-0.927-3.686-1.274-5.652c-0.185-0.98-0.395-1.971-0.561-2.985    c-0.15-1.017-0.302-2.048-0.457-3.092c-0.529-4.187-0.926-8.628-0.845-13.256c0.057-4.623,0.463-9.422,1.334-14.27    c0.858-4.85,2.162-9.508,3.813-13.85c1.64-4.348,3.598-8.387,5.715-12.076c2.168-3.661,4.476-6.974,6.81-9.924    c2.373-2.917,4.708-5.519,6.999-7.723c1.135-1.112,2.227-2.156,3.318-3.079c1.072-0.942,2.085-1.824,3.087-2.585    c1.955-1.577,3.736-2.803,5.21-3.77c1.47-0.973,2.702-1.6,3.552-2c0.86-0.388,1.377-0.498,1.52-0.309s-0.096,0.669-0.674,1.405    c-0.569,0.747-1.519,1.702-2.697,2.967c-1.183,1.259-2.665,2.744-4.308,4.531c-0.848,0.867-1.702,1.841-2.614,2.864    c-0.931,1.004-1.859,2.113-2.829,3.275c-1.961,2.307-3.957,4.945-5.996,7.828c-1.999,2.913-3.976,6.116-5.842,9.591    c-1.814,3.502-3.5,7.279-4.925,11.307c-1.438,4.024-2.589,8.307-3.378,12.771c-0.801,4.462-1.223,8.885-1.365,13.177    c-0.167,4.293,0.077,8.454,0.405,12.41c0.1,0.989,0.199,1.966,0.297,2.93c0.11,0.963,0.262,1.91,0.385,2.846    c0.225,1.876,0.593,3.679,0.881,5.435c0.316,1.751,0.704,3.43,1.022,5.057c0.383,1.616,0.751,3.167,1.102,4.647    c0.391,1.475,0.763,2.881,1.114,4.21c0.378,1.327,0.735,2.578,1.068,3.748c0.648,2.352,1.311,4.35,1.741,6.032    C337.093,514.464,337.457,516.403,337.023,516.601z"/>
		<path fill-rule="evenodd" clip-rule="evenodd" fill="#F9B71B" d="M464.038,279.385c-12.861,10.723-38.037,53.799-2.534,110.48    c8.429,10.468,19.923,8.936,36.014,1.532c28.863-17.106,71.262-47.745,58.473-107.739    C541.962,236.418,476.899,268.661,464.038,279.385z"/>
		<path fill="#1A2B4A" d="M634.252,565.358c-0.182,0.151-0.648-0.087-1.384-0.701c-0.368-0.307-0.803-0.708-1.302-1.2    c-0.506-0.489-0.964-1.134-1.532-1.839c-0.556-0.712-1.181-1.51-1.731-2.451c-0.556-0.936-1.251-1.929-1.809-3.07    c-0.563-1.137-1.237-2.341-1.799-3.666c-0.547-1.327-1.208-2.719-1.731-4.221c-1.11-2.991-2.194-6.315-3.122-9.924    c-0.981-3.603-1.792-7.488-2.578-11.584c-0.743-4.099-1.432-8.413-2.002-12.888c-0.597-4.476-1.08-9.112-1.537-13.857    c-0.886-9.489-1.481-18.516-2.067-26.684c-0.28-4.089-0.585-7.954-0.878-11.57c-0.317-3.606-0.627-6.961-1.003-9.994    c-0.179-1.52-0.359-2.964-0.575-4.315c-0.178-1.367-0.415-2.626-0.628-3.812c-0.426-2.37-0.915-4.363-1.369-5.978    c-0.095-0.416-0.209-0.793-0.34-1.133c-0.117-0.352-0.226-0.682-0.327-0.988c-0.102-0.307-0.177-0.608-0.271-0.865    c-0.104-0.247-0.196-0.477-0.273-0.688c-0.309-0.844-0.399-1.386-0.215-1.536c0.184-0.149,0.638,0.101,1.367,0.767    c0.182,0.166,0.381,0.359,0.596,0.577c0.202,0.224,0.381,0.489,0.593,0.773c0.388,0.577,0.939,1.234,1.33,2.044    c0.892,1.592,1.806,3.626,2.622,6.04c0.409,1.206,0.835,2.504,1.19,3.889c0.396,1.384,0.748,2.854,1.088,4.4    c0.701,3.093,1.301,6.493,1.873,10.146c0.546,3.651,1.069,7.557,1.525,11.659c0.938,8.209,1.725,17.215,2.604,26.626    c0.453,4.702,0.882,9.289,1.379,13.696c0.471,4.414,1.012,8.646,1.566,12.668c0.595,4.01,1.176,7.82,1.884,11.334    c0.657,3.532,1.427,6.771,2.193,9.709c0.353,1.483,0.827,2.834,1.191,4.156c0.377,1.316,0.852,2.498,1.22,3.648    c0.364,1.154,0.848,2.146,1.204,3.119c0.35,0.978,0.766,1.812,1.117,2.585c0.363,0.763,0.625,1.494,0.93,2.07    c0.3,0.582,0.541,1.09,0.72,1.518C634.326,564.673,634.434,565.207,634.252,565.358z"/>
		<path fill="#04294F" d="M770.135,664.5c-0.217,0.095-0.536-0.079-0.952-0.513c-0.408-0.436-0.954-1.121-1.465-2.086    c-0.56-0.952-1.093-2.174-1.663-3.625c-0.243-0.737-0.502-1.524-0.777-2.36c-0.231-0.845-0.463-1.745-0.693-2.694    c-0.402-1.903-0.773-4.009-0.986-6.282c-0.251-2.274-0.323-4.709-0.32-7.271c0.053-2.557,0.176-5.245,0.52-8.005    c0.324-2.762,0.782-5.608,1.44-8.482c0.643-2.878,1.414-5.657,2.32-8.292c0.884-2.642,1.897-5.141,2.992-7.467    c1.066-2.337,2.29-4.472,3.482-6.431c1.253-1.933,2.485-3.691,3.78-5.183c0.62-0.761,1.268-1.445,1.894-2.077    c0.603-0.648,1.251-1.197,1.838-1.716c0.575-0.529,1.186-0.952,1.728-1.35c0.535-0.405,1.064-0.728,1.555-0.995    c0.952-0.566,1.773-0.876,2.365-1.015c0.588-0.144,0.95-0.117,1.079,0.081c0.129,0.199,0.021,0.56-0.285,1.053    c-0.311,0.488-0.818,1.105-1.431,1.922c-0.319,0.391-0.669,0.823-1.024,1.325c-0.361,0.494-0.779,0.992-1.169,1.59    c-0.4,0.586-0.853,1.179-1.27,1.868c-0.437,0.669-0.896,1.373-1.334,2.149c-0.925,1.509-1.813,3.25-2.746,5.117    c-0.879,1.904-1.815,3.935-2.642,6.155c-0.854,2.203-1.667,4.554-2.402,7.03c-0.757,2.467-1.428,5.06-2.024,7.736    c-0.613,2.673-1.083,5.312-1.473,7.868c-0.409,2.556-0.649,5.037-0.868,7.402c-0.168,2.365-0.31,4.621-0.313,6.727    c-0.041,2.111,0.033,4.069,0.106,5.865c0.062,0.895,0.12,1.748,0.176,2.554c0.078,0.807,0.151,1.568,0.219,2.28    c0.18,1.43,0.335,2.662,0.461,3.669c0.1,1.032,0.225,1.825,0.212,2.413C770.457,664.044,770.352,664.404,770.135,664.5z"/>
		<path fill="#E84E27" d="M338.7,859.557c-0.469-0.07-0.714-1.584-0.758-4.246c-0.012-1.33,0.004-2.95,0.032-4.826    c0.056-1.87,0.12-3.998,0.191-6.351c0.044-1.173,0.091-2.402,0.14-3.682c0.036-1.28,0.074-2.611,0.113-3.989    c0.118-2.752,0.13-5.696,0.229-8.786c0.013-3.093,0.104-6.336,0.066-9.697c0.024-3.361-0.063-6.838-0.12-10.4    c-0.055-1.78-0.109-3.538-0.162-5.272c-0.078-1.732-0.155-3.439-0.231-5.116c-0.058-1.679-0.173-3.323-0.276-4.936    c-0.113-1.611-0.163-3.195-0.307-4.731c-0.24-3.078-0.445-6.008-0.72-8.743c-0.216-2.744-0.504-5.289-0.728-7.624    c-0.193-2.34-0.473-4.442-0.628-6.309c-0.151-1.868-0.306-3.476-0.393-4.801c-0.163-2.653-0.037-4.183,0.425-4.292    c0.461-0.109,1.216,1.216,2.189,3.726c0.492,1.253,1.034,2.804,1.55,4.631c0.52,1.826,1.142,3.906,1.649,6.241    c0.537,2.33,1.112,4.889,1.582,7.661c0.528,2.765,0.953,5.74,1.373,8.876c0.233,1.566,0.364,3.181,0.547,4.828    c0.172,1.647,0.347,3.33,0.453,5.048c0.117,1.717,0.257,3.464,0.342,5.24c0.066,1.776,0.134,3.579,0.202,5.403    c0.059,3.649,0.098,7.213-0.018,10.651c-0.055,3.44-0.283,6.751-0.472,9.903c-0.275,3.147-0.503,6.139-0.872,8.924    c-0.177,1.392-0.348,2.736-0.513,4.029c-0.204,1.287-0.4,2.522-0.587,3.701c-0.369,2.357-0.807,4.473-1.211,6.327    c-0.394,1.855-0.799,3.441-1.196,4.726C339.818,858.246,339.169,859.628,338.7,859.557z"/>
		<path fill="#E84E27" d="M230.694,729.738c-0.451,0.011-0.991-1.669-1.316-4.761c-0.167-1.545-0.291-3.444-0.3-5.649    c-0.035-2.207,0.071-4.718,0.275-7.495c0.474-5.542,1.476-12.151,3.729-19.299c1.128-3.563,2.602-7.284,4.592-10.934    c1.926-3.548,4.15-7.122,6.685-10.602c5.083-6.971,10.922-12.759,16.429-17.549c1.382-1.203,2.73-2.343,4.077-3.448    c1.369-1.117,2.728-2.159,4.077-3.12c2.69-1.93,5.327-3.546,7.818-4.868c2.49-1.323,4.833-2.355,6.951-3.106    c2.119-0.746,3.984-1.267,5.547-1.537c0.773-0.158,1.475-0.238,2.083-0.292c0.605-0.065,1.124-0.078,1.549-0.051    c0.847,0.039,1.303,0.175,1.349,0.407c0.045,0.233-0.32,0.552-1.037,0.942c-0.358,0.182-0.802,0.407-1.325,0.674    c-0.52,0.25-1.119,0.54-1.793,0.865c-1.346,0.631-2.955,1.474-4.783,2.491c-1.829,1.02-3.858,2.274-6.027,3.766    c-2.169,1.491-4.479,3.225-6.847,5.219c-1.188,0.992-2.386,2.052-3.594,3.169c-1.221,1.154-2.479,2.342-3.768,3.56    c-5.116,4.905-10.439,10.464-15.155,16.931c-2.355,3.236-4.465,6.534-6.354,9.827c-1.838,3.189-3.282,6.473-4.485,9.716    c-2.399,6.489-3.848,12.677-4.903,17.904c-0.496,2.622-0.933,5.007-1.257,7.116c-0.334,2.117-0.622,3.94-0.857,5.43    C231.556,728.038,231.191,729.726,230.694,729.738z"/>
		<g>
			<g>
				<path fill="#0DADDD" d="M634.407,605.107c-1.884,0.226-3.771-2.231-4.215-5.487c-0.444-3.256,0.718-6.123,2.594-6.403      s3.764,2.177,4.215,5.487S636.291,604.881,634.407,605.107z"/>
			</g>
			<g>
				<path fill="#0DADDD" d="M636.122,629.034c-1.897,0-3.55-2.621-3.689-5.854c-0.139-3.233,1.285-5.979,3.175-6.134      c1.891-0.155,3.544,2.466,3.689,5.854C639.443,626.288,638.019,629.035,636.122,629.034z"/>
			</g>
			<g>
				<path fill="#0DADDD" d="M633.88,652.885c-1.854-0.423-2.79-3.265-2.329-6.407c0.468-3.144,2.206-5.607,4.102-5.455      c1.886,0.149,3.202,3.048,2.695,6.462C637.844,650.903,635.725,653.308,633.88,652.885z"/>
			</g>
			<g>
				<path fill="#0DADDD" d="M625.373,675.224c-1.633-0.976-1.65-3.952-0.312-6.783c0.674-1.426,1.594-2.577,2.55-3.326      c0.963-0.742,2.012-1.056,2.9-0.722c0.888,0.334,1.441,1.268,1.604,2.545c0.172,1.277-0.104,2.879-0.846,4.449      C629.769,674.551,626.995,676.197,625.373,675.224z"/>
			</g>
			<g>
				<path fill="#0DADDD" d="M610.407,693.877c-1.286-1.403-0.428-4.275,1.724-6.589c2.157-2.307,4.949-3.364,6.445-2.189      c1.489,1.167,0.951,4.335-1.418,6.873C614.793,694.512,611.684,695.273,610.407,693.877z"/>
			</g>
			<g>
				<path fill="#0DADDD" d="M591.067,707.999c-0.924-1.662,0.595-4.267,3.277-5.994c2.685-1.721,5.677-2.023,6.811-0.497      c1.13,1.519-0.2,4.418-3.096,6.276C595.167,709.645,591.986,709.653,591.067,707.999z"/>
			</g>
			<g>
				<path fill="#0DADDD" d="M569.139,717.66c-0.578-1.811,1.434-4.068,4.427-5.215c2.996-1.142,5.997-0.803,6.777,0.931      c0.778,1.726-1.125,4.267-4.324,5.487C572.823,720.086,569.714,719.464,569.139,717.66z"/>
			</g>
			<g>
				<path fill="#0DADDD" d="M545.799,723.123c-0.279-1.88,2.092-3.787,5.267-4.396c3.174-0.604,6.076,0.288,6.517,2.136      c0.44,1.843-1.888,3.976-5.226,4.612C549.022,726.115,546.077,724.997,545.799,723.123z"/>
			</g>
			<g>
				<path fill="#0DADDD" d="M521.913,725.355c-0.068-1.896,2.512-3.606,5.761-3.817c3.25-0.211,6.032,1.15,6.213,3.039      c0.182,1.889-2.398,3.598-5.761,3.817C524.763,728.612,521.981,727.251,521.913,725.355z"/>
			</g>
			<g>
				<path fill="#0DADDD" d="M497.914,725.419c0.058-1.896,2.765-3.396,6.047-3.349s5.948,1.624,5.955,3.521      s-2.701,3.397-6.047,3.349C500.523,728.892,497.857,727.315,497.914,725.419z"/>
			</g>
			<g>
				<path fill="#0DADDD" d="M473.935,724.368c0.102-1.895,2.86-3.296,6.163-3.131s5.91,1.836,5.825,3.731      c-0.085,1.896-2.845,3.297-6.163,3.131C476.442,727.933,473.834,726.263,473.935,724.368z"/>
			</g>
			<g>
				<path fill="#0DADDD" d="M449.969,723.096c0.101-1.895,2.865-3.288,6.173-3.112c3.309,0.176,5.91,1.854,5.81,3.749      c-0.101,1.895-2.864,3.288-6.173,3.112C452.47,726.669,449.868,724.991,449.969,723.096z"/>
			</g>
			<g>
				<path fill="#0DADDD" d="M426.003,721.824c0.101-1.895,2.865-3.288,6.174-3.112c3.309,0.176,5.91,1.854,5.809,3.748      c-0.101,1.895-2.864,3.288-6.173,3.113S425.902,723.719,426.003,721.824z"/>
			</g>
			<g>
				<path fill="#0DADDD" d="M402.036,720.552c0.101-1.895,2.865-3.288,6.174-3.113c3.309,0.176,5.91,1.854,5.809,3.749      c-0.1,1.895-2.864,3.288-6.173,3.113C404.537,724.125,401.936,722.447,402.036,720.552z"/>
			</g>
			<g>
				<path fill="#0DADDD" d="M378.07,719.28c0.101-1.895,2.865-3.288,6.174-3.113s5.91,1.854,5.81,3.749      c-0.101,1.895-2.865,3.288-6.174,3.112C380.571,722.853,377.97,721.175,378.07,719.28z"/>
			</g>
			<g>
				<path fill="#0DADDD" d="M358.481,718.24c0.101-1.895,1.885-3.34,3.985-3.229c2.1,0.111,3.722,1.738,3.621,3.632      c-0.101,1.895-1.885,3.34-3.985,3.229S358.38,720.135,358.481,718.24z"/>
			</g>
		</g>
		<g>
			<path fill-rule="evenodd" clip-rule="evenodd" fill="#F9B71B" d="M406.066,29.844c24.061-37.442,248.786-87.642,157.392,184.303     c-5.085,16.649-5.314,44.465-4.635,78.277c0.291,14.494-25.355,27.409-50.815,24.445c-23.59-2.746-51.163-10.315-51.322-23.49     l-3.016-38.702c-67.437-10.435-76.065-58.973-76.61-104.162C376.359,92.307,387.482,58.761,406.066,29.844z"/>
			<path fill="#E84E27" d="M520.436,256.231c0.146,0.451-0.348,1.081-1.38,1.836c-0.517,0.377-1.164,0.793-1.942,1.206     c-0.779,0.413-1.669,0.873-2.685,1.304c-1.017,0.428-2.129,0.902-3.361,1.316c-1.223,0.438-2.549,0.854-3.965,1.236     c-1.41,0.398-2.919,0.733-4.492,1.044c-0.792,0.137-1.597,0.277-2.414,0.418c-0.826,0.102-1.664,0.206-2.512,0.311     c-1.703,0.16-3.373,0.285-4.993,0.283c-1.617,0.043-3.184-0.06-4.666-0.154c-1.484-0.156-2.889-0.298-4.19-0.561     c-1.305-0.218-2.502-0.519-3.584-0.826c-1.086-0.281-2.041-0.658-2.873-0.984c-0.833-0.322-1.528-0.678-2.081-1.018     c-1.107-0.671-1.648-1.256-1.533-1.717c0.115-0.46,0.871-0.753,2.107-0.896c0.618-0.067,1.357-0.1,2.208-0.146     c0.85-0.042,1.798-0.012,2.847-0.05c1.046-0.011,2.181-0.001,3.397-0.039c1.212,0.008,2.506-0.069,3.859-0.091     c1.356-0.083,2.773-0.114,4.244-0.243c1.469-0.083,2.99-0.246,4.548-0.391c0.78-0.085,1.551-0.168,2.311-0.251     c0.761-0.098,1.51-0.194,2.247-0.289c1.474-0.203,2.903-0.384,4.267-0.595c1.371-0.2,2.674-0.391,3.894-0.57     c1.229-0.159,2.374-0.35,3.435-0.468c1.06-0.122,2.023-0.248,2.885-0.304c0.862-0.056,1.613-0.095,2.243-0.077     C519.517,255.549,520.29,255.779,520.436,256.231z"/>
		</g>
	</g>
</g>
<g id="Слой_6-i3">
</g>
</svg></g><!--ITEM: Illustration component 4--><g transform="translate(545.0 313.0) rotate(0.0 -88.5 86.5)  scale(-0.7515157690935955 0.7539867594695071)"><svg width="235.524" height="229.447" viewBox="0.0 0.0 235.524 229.447"><title>square_2 copy</title><g id="Layer_2-i4" data-name="Layer 2"><g id="square_2_copy-i4" data-name="square_2 copy"><path d="M8.434,8.777c12.569-13.965,207-11,220,7s8,203-14,209-200,8-209-5S-.566,18.777,8.434,8.777Z" fill="#00acdc"/></g></g></svg></g><!--ITEM: Illustration component 5--><g transform="translate(615.0 330.0) rotate(0.0 121.5 79.5)  scale(1.9150445267554574 1.9230536640824374)"><svg width="126.89" height="82.681" viewBox="0.0 0.0 126.89 82.681"><title>text</title><g id="Layer_2-i5" data-name="Layer 2"><g id="text-i5"><rect y="18.378" width="126.85" height="9.18" rx="3.36" fill="#00aee0"/><path d="M95.72,2.508v4.18A2.749,2.749,0,0,0,98.7,9.19l.023,0h25.23a2.75,2.75,0,0,0,2.94-2.5V2.508a2.751,2.751,0,0,0-2.94-2.5H98.67A2.751,2.751,0,0,0,95.72,2.508Z" fill="#00aee0"/><path d="M85.14.008H2.94A2.751,2.751,0,0,0,0,2.508v4.18a2.75,2.75,0,0,0,2.94,2.5h82.2a2.75,2.75,0,0,0,2.94-2.5V2.508A2.751,2.751,0,0,0,85.14.008Z" fill="#00aee0"/><rect y="55.118" width="126.85" height="9.18" rx="3.36" fill="#00aee0"/><path d="M23.22,80.168v-4.18a2.751,2.751,0,0,0-2.95-2.5H2.94A2.751,2.751,0,0,0,0,75.988v4.18a2.75,2.75,0,0,0,2.94,2.5H20.27A2.75,2.75,0,0,0,23.22,80.168Z" fill="#00aee0"/><path d="M33.81,82.668h72.54a2.75,2.75,0,0,0,3-2.477l0-.023v-4.18a2.75,2.75,0,0,0-2.977-2.5l-.023,0H33.81a2.75,2.75,0,0,0-3,2.478l0,.022v4.18a2.749,2.749,0,0,0,2.977,2.5Z" fill="#00aee0"/><path d="M42.45,36.748H2.94A2.751,2.751,0,0,0,0,39.248v4.18a2.75,2.75,0,0,0,2.94,2.5H42.45a2.75,2.75,0,0,0,3-2.477l0-.023v-4.18a2.75,2.75,0,0,0-2.977-2.5Z" fill="#00aee0"/><path d="M53.04,39.248v4.18a2.749,2.749,0,0,0,2.95,2.5H85.14a2.75,2.75,0,0,0,2.94-2.5v-4.18a2.751,2.751,0,0,0-2.94-2.5H55.99A2.75,2.75,0,0,0,53.04,39.248Z" fill="#00aee0"/></g></g></svg></g><!--ITEM: Illustration component 6--><g transform="translate(1069.0 460.0) rotate(0.0 19.5 7.5)  scale(0.8531303320645754 0.8298296083204248)"><svg width="45.714" height="18.076" viewBox="0.0 0.0 45.714 18.076"><g id="Слой_1-i6">
</g>
<g id="Слой_11-i6">
</g>
<g id="Слой_9-i6">
</g>
<g id="Слой_3-i6">
</g>
<g id="Слой_8-i6">
</g>
<g id="Слой_7-i6">
</g>
<g id="Слой_10-i6">
	<path fill="#04294F" d="M45.444,2.577c0.391,0.242,0.377,1.152-0.172,2.575c-0.543,1.423-1.702,3.312-3.591,5.289   c-1.88,1.978-4.553,3.971-7.925,5.448c-3.357,1.479-7.449,2.373-11.79,2.155c-4.337-0.268-8.304-1.614-11.475-3.459   c-3.185-1.844-5.618-4.124-7.266-6.299C1.569,6.11,0.628,4.103,0.247,2.629C-0.14,1.153-0.051,0.248,0.364,0.051   c0.92-0.439,2.772,2.044,6.351,4.856c1.776,1.415,4.024,2.874,6.678,4.052c2.647,1.182,5.719,2.019,8.958,2.226   c3.241,0.156,6.387-0.332,9.15-1.211C34.27,9.1,36.667,7.901,38.59,6.693C42.461,4.298,44.579,2.039,45.444,2.577z"/>
</g>
<g id="Слой_2-i6">
</g>
<g id="Слой_5-i6">
</g>
<g id="Слой_12-i6">
</g>
<g id="Слой_4-i6">
</g>
<g id="Слой_6-i6">
</g>
</svg></g><!--ITEM: Illustration component 7--><g transform="translate(1031.0 293.0) rotate(0.0 131.5 119.5)  scale(0.7603353570396069 0.7601152576440879)"><svg width="345.9" height="314.426" viewBox="0.0 0.0 345.9 314.426"><g id="Слой_1-i7">
</g>
<g id="Слой_11-i7">
</g>
<g id="Слой_9-i7">
</g>
<g id="Слой_3-i7">
</g>
<g id="Слой_8-i7">
</g>
<g id="Слой_7-i7">
</g>
<g id="Слой_10-i7">
</g>
<g id="Слой_2-i7">
</g>
<g id="Слой_5-i7">
</g>
<g id="Слой_12-i7">
	<g>
		<path fill-rule="evenodd" clip-rule="evenodd" fill="#E84E27" d="M9.932,57.946c4.91-7.696,12.149-13.625,20.663-16.921    c7.529-2.961,15.688-3.959,23.709-2.9c3.295,0.447,7.854,2.833,11.1,1.988c3.319-0.864,5.131-4.847,7.099-7.333    c11.246-14.21,27.287-24.134,44.674-28.967c20.232-5.624,41.924-4.643,62.297,0.448c34.818,8.699,67.633,30.911,82.163,63.727    c25.285,40.25,6.136,93.666,32.945,113.417c17.617,9.876,51.319,22.578,51.319,60.876c0,42.128-36.766,63.575-64.755,67.916    c-18.142,2.814-37.371,4.317-52.86,4.227c-15.489,0.091-34.718-1.413-52.86-4.227c-27.989-4.341-64.755-25.788-64.755-67.916    c0-38.298,33.702-51,51.319-60.876c9.532-7.023,14.895-18.64,15.227-31.733s-9.636-30.092-22.724-37.774    c-12.882-7.561-29.194-6.49-43.468-2.088s-27.456,11.805-41.612,16.571c-14.157,4.766-30.244,6.688-43.669,0.139    C5.947,116.862-11.729,92.457,9.932,57.946z"/>
		<path fill="#F9B71B" d="M149.387,18.165c-0.065,0.47-1.098,0.812-2.867,1.032c-0.877,0.09-1.948,0.199-3.192,0.326    c-1.236,0.13-2.629,0.174-4.165,0.37c-0.765,0.073-1.566,0.148-2.402,0.228c-0.833,0.076-1.696,0.223-2.588,0.326    c-1.788,0.181-3.677,0.537-5.664,0.841c-0.993,0.157-1.999,0.401-3.032,0.594c-0.516,0.101-1.037,0.202-1.563,0.305    c-0.521,0.128-1.047,0.257-1.578,0.388c-2.135,0.467-4.3,1.117-6.531,1.735c-2.197,0.731-4.356,1.398-6.389,2.201    c-0.513,0.187-1.022,0.373-1.526,0.558c-0.494,0.208-0.983,0.414-1.468,0.618c-0.965,0.416-1.936,0.773-2.848,1.197    c-1.82,0.856-3.586,1.613-5.171,2.46c-0.799,0.412-1.596,0.771-2.331,1.172c-0.738,0.4-1.444,0.784-2.121,1.15    c-1.385,0.693-2.566,1.434-3.664,2.015c-1.104,0.588-2.054,1.095-2.832,1.509c-1.592,0.804-2.639,1.096-2.956,0.742    c-0.316-0.353,0.133-1.323,1.247-2.8c0.279-0.369,0.598-0.769,0.958-1.2c0.368-0.42,0.795-0.844,1.252-1.306    c1.027-1.056,2.116-2.051,3.261-2.978l2.01-1.608c0.707-0.55,1.488-1.054,2.281-1.605c1.573-1.126,3.368-2.142,5.256-3.226    c0.946-0.538,1.959-1,2.977-1.513c0.512-0.25,1.03-0.502,1.553-0.756c0.536-0.225,1.077-0.451,1.623-0.68    c2.17-0.957,4.499-1.735,6.886-2.523c2.421-0.676,4.788-1.329,7.123-1.745c0.581-0.115,1.156-0.228,1.727-0.34    c0.576-0.08,1.146-0.159,1.711-0.238c1.131-0.142,2.23-0.323,3.315-0.404c2.171-0.153,4.227-0.311,6.161-0.253    c0.965,0.016,1.895-0.001,2.788,0.061c0.892,0.074,1.747,0.146,2.565,0.214c1.467,0.131,2.926,0.349,4.367,0.654    c0.637,0.129,1.229,0.243,1.768,0.386c0.539,0.156,1.027,0.31,1.465,0.462C148.539,17.14,149.452,17.695,149.387,18.165z"/>
		<path fill="#F9B71B" d="M17.738,102.655c-0.225,0.168-0.516,0.222-0.786,0.145c-0.45-0.096-0.879-0.273-1.267-0.521    c-1.331-0.853-2.494-1.944-3.432-3.217c-1.432-1.872-2.545-3.967-3.294-6.202c-0.456-1.329-0.793-2.695-1.009-4.083    c-0.477-3.008-0.374-6.08,0.305-9.05c0.308-1.371,0.737-2.711,1.281-4.006c0.898-2.179,2.15-4.195,3.704-5.966    c1.021-1.207,2.255-2.216,3.641-2.978c0.404-0.221,0.844-0.368,1.299-0.434c0.275-0.059,0.561,0.014,0.774,0.197    c0.177,0.218,0.253,0.5,0.209,0.778c-0.049,0.428-0.149,0.848-0.298,1.252c-0.343,0.979-0.908,2.265-1.535,3.808    c-0.726,1.76-1.331,3.568-1.81,5.411c-0.273,1.06-0.492,2.134-0.656,3.216c-0.359,2.297-0.438,4.628-0.234,6.944    c0.091,1.091,0.237,2.177,0.438,3.253c0.354,1.871,0.836,3.715,1.442,5.521c0.521,1.581,1,2.903,1.276,3.902    c0.122,0.413,0.194,0.839,0.213,1.27C18.024,102.173,17.929,102.45,17.738,102.655z"/>
		<g>
			<path fill="#F9B61B" d="M319.205,284.94c-0.157-0.178-0.073-0.573,0.221-1.154c0.281-0.596,0.829-1.317,1.456-2.303     c0.32-0.486,0.684-1.014,1.088-1.58c0.382-0.581,0.797-1.212,1.243-1.89c0.879-1.354,1.844-2.908,2.804-4.672     c0.982-1.75,1.923-3.732,2.854-5.877c0.866-2.174,1.753-4.505,2.42-7.033c0.659-2.524,1.276-5.196,1.571-8.007     c0.32-2.804,0.445-5.723,0.306-8.699c-0.178-2.974-0.611-5.862-1.226-8.617c-0.59-2.764-1.487-5.355-2.41-7.795     c-0.932-2.443-2.06-4.667-3.152-6.738c-1.153-2.034-2.298-3.904-3.46-5.541c-1.141-1.653-2.266-3.096-3.283-4.349     c-0.515-0.627-0.995-1.21-1.436-1.748c-0.462-0.52-0.879-1.006-1.249-1.456c-0.728-0.914-1.35-1.573-1.692-2.135     c-0.354-0.547-0.479-0.931-0.342-1.125c0.137-0.193,0.53-0.187,1.164,0.01c0.621,0.212,1.535,0.551,2.573,1.188     c0.525,0.311,1.102,0.67,1.729,1.076c0.615,0.419,1.249,0.917,1.943,1.446c1.363,1.081,2.849,2.409,4.354,4.016     c1.526,1.591,3.038,3.484,4.54,5.613c1.441,2.165,2.901,4.555,4.124,7.234c1.214,2.677,2.36,5.571,3.135,8.7     c0.799,3.118,1.348,6.429,1.55,9.855c0.162,3.429-0.033,6.779-0.497,9.964c-0.438,3.193-1.271,6.193-2.195,8.983     c-0.932,2.794-2.131,5.325-3.334,7.631c-1.268,2.276-2.571,4.319-3.92,6.062c-1.327,1.758-2.664,3.236-3.904,4.455     c-0.633,0.599-1.212,1.162-1.778,1.644c-0.58,0.47-1.116,0.888-1.605,1.253c-0.965,0.743-1.838,1.177-2.433,1.454     C319.752,285.07,319.362,285.118,319.205,284.94z"/>
			<path fill="#F9B61B" d="M149.498,291.027c-0.112,0.209-0.503,0.251-1.156,0.134c-0.643-0.134-1.591-0.357-2.7-0.86     c-0.559-0.244-1.177-0.529-1.849-0.854c-0.662-0.34-1.353-0.755-2.106-1.194c-1.486-0.903-3.125-2.038-4.818-3.446     c-1.711-1.39-3.446-3.082-5.2-5.008c-1.698-1.97-3.443-4.161-4.988-6.668c-1.536-2.506-3.032-5.236-4.187-8.245     c-1.178-2.995-2.134-6.212-2.758-9.587c-0.586-3.382-0.806-6.731-0.74-9.949c0.04-3.223,0.495-6.302,1.066-9.186     c0.579-2.888,1.455-5.548,2.364-7.985c0.977-2.415,2.017-4.604,3.14-6.501c1.099-1.908,2.242-3.541,3.323-4.904     c0.554-0.673,1.059-1.303,1.561-1.851c0.518-0.538,0.998-1.02,1.438-1.442c0.866-0.856,1.678-1.395,2.234-1.744     c0.572-0.337,0.953-0.433,1.131-0.276c0.177,0.157,0.143,0.56-0.077,1.173c-0.205,0.625-0.66,1.41-1.16,2.465     c-0.258,0.522-0.553,1.091-0.884,1.702c-0.307,0.624-0.641,1.301-0.999,2.029c-0.704,1.453-1.47,3.113-2.204,4.983     c-0.757,1.858-1.446,3.941-2.104,6.185c-0.59,2.265-1.182,4.688-1.531,7.279c-0.342,2.586-0.623,5.313-0.568,8.139     c0.03,2.822,0.267,5.734,0.773,8.67c0.545,2.929,1.332,5.742,2.284,8.399c0.928,2.67,2.139,5.13,3.356,7.437     c1.227,2.31,2.622,4.376,3.962,6.295c1.396,1.875,2.764,3.59,4.12,5.071c1.337,1.499,2.631,2.791,3.796,3.909     c0.589,0.559,1.137,1.078,1.641,1.557c0.523,0.458,0.997,0.89,1.42,1.29c0.835,0.816,1.534,1.394,1.943,1.91     C149.438,290.452,149.61,290.818,149.498,291.027z"/>
		</g>
	</g>
</g>
<g id="Слой_4-i7">
</g>
<g id="Слой_6-i7">
</g>
</svg></g><!--ITEM: Illustration component 8--><g transform="translate(1048.0 374.0) rotate(0.0 48.0 31.0) translate(0.0 17.0) scale(1.0086216135004002 1.0157210685778824)"><svg width="94.18794791666667" height="43.31897935483871" viewBox="0.0 16.736878387096773 94.18794791666667 43.31897935483871"><g>
    <path d="M30.31767,41.57163c0-.04077-.00364-.08008-.00364-.12061,0-.04077.00364-.08008.00364-.1206,0-.20484-.024-.39991-.02838-.60327-.0131-.49024-.03056-.97828-.06768-1.4585a27.049,27.049,0,0,0-1.85646-8.34815h-.11789c-2.31058-5.44335-6.32915-9.05883-10.911-9.05883s-8.60042,3.61548-10.911,9.05883h-.1179a27.049,27.049,0,0,0-1.85646,8.34815c-.03711.48022-.05458.96826-.06768,1.4585-.00437.20336-.02838.39843-.02838.60327,0,.04052.00364.07983.00364.1206,0,.04053-.00364.07984-.00364.12061,0,.20459.024.3999.02838.603.0131.49024.03057.97828.06768,1.45875a27.05219,27.05219,0,0,0,1.85646,8.34814h.1179c2.31057,5.44311,6.32915,9.05884,10.911,9.05884s8.60042-3.61573,10.911-9.05884h.11789a27.05219,27.05219,0,0,0,1.85646-8.34814c.03712-.48047.05458-.96851.06768-1.45875C30.29366,41.97153,30.31767,41.77622,30.31767,41.57163Z" style="         fill: #04294f;       "/>
    <path d="M88.38021,41.57163c0-.04077-.00364-.08008-.00364-.12061,0-.04077.00364-.08008.00364-.1206,0-.20484-.024-.39991-.02838-.60327-.0131-.49024-.03057-.97828-.06768-1.4585a27.049,27.049,0,0,0-1.85646-8.34815h-.1179c-2.31057-5.44335-6.32915-9.05883-10.911-9.05883s-8.60042,3.61548-10.911,9.05883h-.11789a27.049,27.049,0,0,0-1.85646,8.34815c-.03712.48022-.05458.96826-.06768,1.4585-.00437.20336-.02838.39843-.02838.60327,0,.04052.00363.07983.00363.1206,0,.04053-.00363.07984-.00363.12061,0,.20459.024.3999.02838.603.0131.49024.03056.97828.06768,1.45875a27.05219,27.05219,0,0,0,1.85646,8.34814h.11789c2.31058,5.44311,6.32915,9.05884,10.911,9.05884s8.60042-3.61573,10.911-9.05884h.1179a27.05219,27.05219,0,0,0,1.85646-8.34814c.03711-.48047.05458-.96851.06768-1.45875C88.35619,41.97153,88.38021,41.77622,88.38021,41.57163Z" style="         fill: #04294f;       "/>
    <circle cx="12.69101" cy="39.79764" r="5.55882" style="         fill: #fff;       "/>
    <circle cx="19.62348" cy="28.66439" r="3.34604" style="         fill: #fff;       "/>
    <circle cx="70.69101" cy="39.79764" r="5.55882" style="         fill: #fff;       "/>
    <circle cx="77.62348" cy="28.66439" r="3.34604" style="         fill: #fff;       "/>
    <path d="M30.31757,16.75712a1.03751,1.03751,0,0,1-.7876-.10376,5.53524,5.53524,0,0,1-.99268-.68457c-.3706-.30542-.77832-.679-1.248-1.08911-.46534-.41138-.98145-.865-1.56446-1.32641-.57275-.46973-1.22754-.9336-1.92334-1.40479a21.874,21.874,0,0,0-2.31006-1.29883A17.39134,17.39134,0,0,0,18.842,9.82524a16.93709,16.93709,0,0,0-2.90137-.57593,16.98443,16.98443,0,0,0-2.958.01563,17.38068,17.38068,0,0,0-2.79542.50439A21.79422,21.79422,0,0,0,7.673,10.607c-.77246.33056-1.50292.66211-2.15478,1.01464-.65967.34278-1.25244.69043-1.78711,1.00635-.53906.31372-1.00977.60327-1.43213.83277a5.54171,5.54171,0,0,1-1.104.48437,1.03992,1.03992,0,0,1-.79346-.04736.88826.88826,0,0,1-.38037-.6875A3.37451,3.37451,0,0,1,.13837,11.8853a7.85547,7.85547,0,0,1,.75146-1.84253A12.0012,12.0012,0,0,1,2.4079,7.88994a15.48693,15.48693,0,0,1,2.36621-2.1875,17.27038,17.27038,0,0,1,7.2456-3.09913A17.74263,17.74263,0,0,1,16.59442,2.41,17.7471,17.7471,0,0,1,21.05,3.46635a17.27469,17.27469,0,0,1,6.52685,4.41577,15.4906,15.4906,0,0,1,1.90918,2.596,11.98856,11.98856,0,0,1,1.08252,2.40161,7.84726,7.84726,0,0,1,.38916,1.95142,3.37906,3.37906,0,0,1-.13623,1.32324A.88781.88781,0,0,1,30.31757,16.75712Z" style="         fill: #04294f;       "/>
    <path d="M94.69891,15.31767a.99381.99381,0,0,1-.82422-.11475,7.07786,7.07786,0,0,1-1.12792-.79882c-.4336-.35767-.92041-.79688-1.48975-1.27759-.564-.48291-1.19727-1.01514-1.918-1.55347-.71-.54858-1.52246-1.08569-2.39307-1.62768a25.05674,25.05674,0,0,0-2.89111-1.46851,20.46264,20.46264,0,0,0-3.32129-1.09741A17.62055,17.62055,0,0,0,73.446,7.1309a20.4984,20.4984,0,0,0-3.38818.86841,24.981,24.981,0,0,0-2.98486,1.26831c-.90528.48145-1.75293.96192-2.49854,1.46094-.75537.48779-1.42383.97558-2.019,1.41894-.60108.44092-1.11621.84595-1.57324,1.1731a7.08184,7.08184,0,0,1-1.18018.72021.99268.99268,0,0,1-.82959.05835.86549.86549,0,0,1-.38281-.72705,4.12787,4.12787,0,0,1,.147-1.5039,9.80189,9.80189,0,0,1,.83643-2.14185A14.6974,14.6974,0,0,1,61.256,7.18022,18.699,18.699,0,0,1,63.8952,4.53911a20.65949,20.65949,0,0,1,3.63819-2.34546,20.36975,20.36975,0,0,1,4.55273-1.655A19.6207,19.6207,0,0,1,82.53925.89531a20.35675,20.35675,0,0,1,4.42919,1.96118,20.67684,20.67684,0,0,1,3.47022,2.58789,18.75283,18.75283,0,0,1,2.45312,2.81494,14.7114,14.7114,0,0,1,1.50586,2.655,9.79443,9.79443,0,0,1,.688,2.1936,4.12831,4.12831,0,0,1,.04444,1.5105A.86491.86491,0,0,1,94.69891,15.31767Z" style="         fill: #04294f;       "/>
  </g>
</svg></g><!--ITEM: Illustration component 9--><g transform="translate(510.0 586.0) rotate(0.0 -173.5 246.0)  scale(-2.5936750207419257 2.5920247822857236)"><svg width="133.787" height="189.813" viewBox="0.0 0.0 133.787 189.813"><title>plant</title><g id="Layer_2-i9" data-name="Layer 2"><g id="plant-i9"><g id="_Groupe_-i9" data-name=" Groupe "><path d="M98.1,136.1a35.763,35.763,0,0,1,.178,3.681c0,21.406-17.35,50.033-38.753,50.033s-38.76-28.627-38.76-50.033a38,38,0,0,1,.193-3.8c8.322,3.256,22.552,5.409,38.72,5.409C75.653,141.388,89.733,139.3,98.1,136.1Z" fill="#f04e23"/><path d="M96.113,127.6a31.962,31.962,0,0,1,2,8.5c-8.366,3.19-22.45,5.289-38.422,5.289-16.168,0-30.4-2.153-38.72-5.409a31.756,31.756,0,0,1,2.023-8.475c8.558,2.819,21.824,4.634,36.7,4.634C74.413,132.138,87.54,130.367,96.113,127.6Z" fill="#04294f"/><path d="M81.036,111.459A30.484,30.484,0,0,1,96.106,127.6c-8.566,2.769-21.693,4.54-36.425,4.54-14.884,0-28.139-1.819-36.7-4.634a30.443,30.443,0,0,1,15.03-16.045,6.891,6.891,0,0,1-.968-3.19c0-5.165,10.062-7.977,22.483-7.977s22.483,2.812,22.483,7.977A6.857,6.857,0,0,1,81.036,111.459Z" fill="#f04e23"/></g><path d="M132.382,74.7a9.23,9.23,0,0,0-9.992-3.983c-.818.211-1.557.662-2.379.818a12.806,12.806,0,0,1-3.19.087c-2.033-.134-4.052-.429-6.082-.567a24.222,24.222,0,0,0-9.075.749,17.64,17.64,0,0,0-2.473,1.019c.061-.193.127-.386.2-.571a5.818,5.818,0,0,1,3.128-3.219c1.728-.764,3.637-.852,5.456-1.343a17.735,17.735,0,0,0,7.657-3.87,10.591,10.591,0,0,0,2.713-4.219l-4.83-1.615,5.4-1.091a10.5,10.5,0,0,0-.156-2.859,10.668,10.668,0,0,0-2.3-4.8A10.873,10.873,0,0,0,106,45.688a18.671,18.671,0,0,0-4.263,1.637,42.758,42.758,0,0,1-5.372,2.182c-.859.255-1.7.535-2.525.847L95,55.192l-4.489-3.273c-.16.09-.32.178-.48.276a15.909,15.909,0,0,0-6.969,8.952,24.838,24.838,0,0,0-.761,3.332,55.109,55.109,0,0,1-.7,5.768,8.555,8.555,0,0,1-1.2,2.692,4.342,4.342,0,0,1-1.8,1.422c-1.091.535-2.182,1.062-3.223,1.655A16.492,16.492,0,0,0,68.214,83.1a13.663,13.663,0,0,0-.589,1.455c-.236-.593-.465-1.193-.673-1.8a5.951,5.951,0,0,1,.855-4.783c.364-.462.749-.924,1.131-1.378.95-1.139,1.888-2.285,2.765-3.481a19.673,19.673,0,0,0,4.212-11.92,28.834,28.834,0,0,0-1.335-7.639c-.247-.84-.52-1.676-.786-2.509-.433-1.51.2-3.976,2.215-6.075.5-.491.99-.986,1.455-1.495a23.74,23.74,0,0,0,6.184-10.643,22.645,22.645,0,0,0,.484-3.063c0-.094.022-.185.032-.291.091-1.04.2-2.422.288-4L79.814,23.8l4.751-1.55c0-1.153,0-2.353-.033-3.568l-7.988-1.19,7.566-3.782c-.509-3.7-1.535-7.061-3.452-9.01l-.022-.018c-.251-.3-.509-.6-.789-.881A13.1,13.1,0,0,0,67.629.347a12.9,12.9,0,0,0-9.283,8.545,22.672,22.672,0,0,0-.32,11.276c.327,1.553.789,3.073,1.259,4.586h0a8.629,8.629,0,0,1-1.263,7.024.113.113,0,0,0,0,.026c-.171.225-.345.447-.512.676a33.051,33.051,0,0,0-3.743,6.184c2.1,1.488,4.692,3.292,4.692,3.292L52.8,41.337c-.058.2-.112.4-.163.611a19.749,19.749,0,0,0,.338,10.185,32.79,32.79,0,0,0,2.041,5.18l.458.964c1.113,2.364,1.684,4.656.316,7.064-.629,1.033-1.28,2.058-1.9,3.1l-.364.593A19.811,19.811,0,0,0,51.857,67.1c-.6-.618-1.244-1.2-1.9-1.764a8.939,8.939,0,0,1-1.95-1.957c-.851-1.422-.251-3.146.131-4.626a20.133,20.133,0,0,0-.24-12.044c-1.491-4-4.234-7.442-6.984-10.654-1.4-1.626-2.852-3.208-4.4-4.692a20.043,20.043,0,0,0-3.576-2.91,14.06,14.06,0,0,0-21.21,9.475C10.489,44.8,14.737,50.9,20.062,54.748a8.021,8.021,0,0,1,2.616,2.183c.814,1.422.647,3.146.542,4.769l6.3.247-5.06,3.237,3.434.557L24,68.9a18.141,18.141,0,0,0,.618,1.739,17.1,17.1,0,0,0,4.307,5.976,21.247,21.247,0,0,0,1.782,1.455c-.411.044-.818.105-1.229.178-.775.146-1.543.331-2.3.535a3.114,3.114,0,0,1-.629.171,1.666,1.666,0,0,1-.637-.226C25.4,78.493,24.9,78.257,24.4,78a10.745,10.745,0,0,1-2.066-1.241c-.655-.542-1.211-1.2-1.873-1.738a16.293,16.293,0,0,0-8.282-3.78A10.592,10.592,0,0,0,1.286,86.772l4.907-2.331L3.581,89.7c.084.072.16.145.244.214a10.816,10.816,0,0,0,3.812,2.037A10.71,10.71,0,0,1,11.424,94.1a21.918,21.918,0,0,0,4.364,2.99,14.774,14.774,0,0,0,10.425.913,22.994,22.994,0,0,0,2.612-.873c.527-.211,1.331-.728,1.88-.321.364.259.452.859.593,1.252.117.327.244.651.364.971.04.1.087.2.131.3l3.87-1.211-2.619,3.561a12.182,12.182,0,0,0,3.416,3.419,17.994,17.994,0,0,0,5.019,2.233c.728.211,1.455.4,2.183.578,0,0,.2-.1.284.073,0,0-.131.429.953.975,2.309,1.535,8.06,2.626,14.793,2.626,6.791,0,12.585-1.109,14.855-2.666.255-.222.5-.451.746-.687a1.32,1.32,0,0,0,.28-.772l.029.459a16.411,16.411,0,0,0,2.812-3.91c.054-.113.105-.23.156-.342,1.306-.179,2.619-.3,3.918-.484a33.455,33.455,0,0,0,7.66-1.87c3.783-1.477,6.693-4.216,9.239-7.307a60.355,60.355,0,0,1,4.47-5.267c.568-.546,1.4-1.357,2.183-1.353a14.9,14.9,0,0,1,2.044.2c4.19.622,8.242,1.819,12.52,1.75a30.75,30.75,0,0,0,5.787-.768,9.152,9.152,0,0,0,5.98-13.869Z" fill="#00aee0"/><path d="M75.791,108.015a2.489,2.489,0,0,1-.662,1.014,5.119,5.119,0,0,1-.891.7,11.014,11.014,0,0,1-1.95.964,18.929,18.929,0,0,1-2.026.673q-1.026.291-2.062.5a39.431,39.431,0,0,1-4.176.6c-.7.069-1.4.117-2.1.16s-1.4.051-2.1.062a42,42,0,0,1-8.388-.727,24.8,24.8,0,0,1-4.1-1.161,12.488,12.488,0,0,1-1.949-.949,4.192,4.192,0,0,1-1.608-1.582.269.269,0,0,1,.436-.306v.022a4.177,4.177,0,0,0,1.619.924,14.3,14.3,0,0,0,1.9.538,38.078,38.078,0,0,0,3.972.619,80.091,80.091,0,0,0,8.09.436q2.029,0,4.059-.08c1.35-.076,2.7-.171,4.038-.331a32.712,32.712,0,0,0,3.957-.691,12.244,12.244,0,0,0,1.87-.6,3.1,3.1,0,0,0,1.433-1.033l.018-.029a.331.331,0,0,1,.6.273Z" fill="#04294f"/><path d="M79.7,113.5a3.126,3.126,0,0,1-.778,1.244,6.16,6.16,0,0,1-1.091.88,13.215,13.215,0,0,1-2.408,1.234,23.667,23.667,0,0,1-2.525.858c-.851.244-1.709.458-2.575.629a46.924,46.924,0,0,1-5.223.768c-.873.087-1.75.145-2.626.2s-1.754.058-2.63.065a51.415,51.415,0,0,1-10.5-.9,30.631,30.631,0,0,1-5.092-1.455,14.881,14.881,0,0,1-2.415-1.2,8.209,8.209,0,0,1-1.092-.837,3.713,3.713,0,0,1-.858-1.131.269.269,0,0,1,.455-.284h0a5.033,5.033,0,0,0,1.982,1.313,16.18,16.18,0,0,0,2.372.782,40.553,40.553,0,0,0,4.976.917,86.247,86.247,0,0,0,10.184.64c.851,0,1.706,0,2.546-.036s1.7-.051,2.547-.106c1.7-.109,3.393-.254,5.074-.487a36.914,36.914,0,0,0,4.961-1,14.536,14.536,0,0,0,2.328-.866,3.81,3.81,0,0,0,1.764-1.455v-.018a.331.331,0,0,1,.611.248Z" fill="#04294f"/><path d="M51.417,106.4c-.058-.287-.131-.571-.215-.851a5.493,5.493,0,0,0-.3-.855c-.069-.149-.134-.3-.211-.451l-.269-.4-.138-.185-.156-.178-.317-.364c-.225-.215-.455-.422-.687-.619a8.2,8.2,0,0,0-.728-.534c-.964-.68-1.964-1.212-2.91-1.761a27.879,27.879,0,0,1-2.7-1.688,10,10,0,0,1-1.12-.956,4.09,4.09,0,0,1-.458-.509l-.189-.251-.175-.291a11.587,11.587,0,0,1-.666-1.379,14.149,14.149,0,0,0,.277-1.542,22.115,22.115,0,0,0,.138-2.546c0-.852-.018-1.71-.076-2.568a20.663,20.663,0,0,0-.324-2.59.175.175,0,0,0-.109-.131.183.183,0,0,0-.237.1h0a21.473,21.473,0,0,0-.771,2.491c-.211.837-.385,1.673-.531,2.514h0c-.054-.124-.1-.244-.16-.364A10.165,10.165,0,0,0,36.2,87.321a10.29,10.29,0,0,0-.819-.654l-.454-.277a2.791,2.791,0,0,0-.488-.254c-.178-.077-.364-.146-.538-.215a4.118,4.118,0,0,0-.535-.138,5.762,5.762,0,0,0-1.055-.146,13.925,13.925,0,0,0-3.67.415c-1.117.251-2.182.52-3.2.727a12.857,12.857,0,0,1-2.695.3,12.6,12.6,0,0,0-.364-1.321,19.625,19.625,0,0,0-.949-2.182q-.528-1.092-1.153-2.117A18.526,18.526,0,0,0,18.9,79.436a.192.192,0,0,0-.156-.07.183.183,0,0,0-.168.193,18.2,18.2,0,0,0,.364,2.426c.164.79.364,1.568.586,2.336a19.634,19.634,0,0,0,.727,2.138l-.364-.189c-.891-.5-1.8-1.124-2.738-1.735a20.382,20.382,0,0,0-3.03-1.677,7.158,7.158,0,0,0-3.489-.625.364.364,0,0,0,0,.727h0A7.029,7.029,0,0,1,13.493,84.1a22,22,0,0,1,2.546,1.953A32.071,32.071,0,0,0,18.7,88.194c.247.168.495.342.775.495.138.076.269.157.411.233l.454.2a6.47,6.47,0,0,0,.975.331c.328.08.641.123.964.174a13.353,13.353,0,0,0,3.659-.138c1.157-.171,2.256-.433,3.311-.633l.662-.124c-.648.615-1.255,1.27-1.848,1.935Q27.054,91.8,26.119,93a29.543,29.543,0,0,0-1.775,2.5.178.178,0,0,0,.243.248,27.785,27.785,0,0,0,2.547-1.714c.811-.607,1.6-1.236,2.367-1.891A28.6,28.6,0,0,0,31.72,90.1a18.573,18.573,0,0,0,1.259-1.43h.062a1.793,1.793,0,0,0,.232.095,1,1,0,0,1,.248.131l.258.156c.171.106.317.258.484.364a7.432,7.432,0,0,1,1.582,2.273c.455.906.84,1.914,1.259,2.954a18.186,18.186,0,0,0,1.578,3.219c.091.135.179.269.277.4l.331.4a7.781,7.781,0,0,0,.7.688,11.653,11.653,0,0,0,1.484,1.091l.156.091c-.3.073-.593.149-.888.233-.658.185-1.313.4-1.964.651a14.347,14.347,0,0,0-1.92.9.176.176,0,0,0-.091.124.185.185,0,0,0,.149.214,14.122,14.122,0,0,0,2.113.189c.7,0,1.386,0,2.074-.058a14.076,14.076,0,0,0,2.033-.269,8.626,8.626,0,0,0,1.455-.451c1,.455,1.975.887,2.877,1.371a5.57,5.57,0,0,1,2.182,1.841,4.313,4.313,0,0,1,.364.676c.106.24.208.484.3.728a7.794,7.794,0,0,1,.407,1.5h0a.444.444,0,0,0,.881-.058A7.745,7.745,0,0,0,51.417,106.4Z" fill="#04294f"/><path d="M81.783,98.244a.444.444,0,0,0,.88.058h0a7.859,7.859,0,0,1,.408-1.5c.094-.243.2-.487.3-.727a4.363,4.363,0,0,1,.363-.677,5.578,5.578,0,0,1,2.183-1.84c.9-.484,1.877-.917,2.877-1.372a8.626,8.626,0,0,0,1.455.451,14.2,14.2,0,0,0,2.033.27c.688.058,1.375.058,2.074.058a14.122,14.122,0,0,0,2.113-.189.186.186,0,0,0,.149-.215.178.178,0,0,0-.091-.124,14.472,14.472,0,0,0-1.92-.9c-.651-.251-1.306-.465-1.965-.651-.294-.083-.589-.16-.887-.233l.156-.09A11.757,11.757,0,0,0,93.4,89.47a7.77,7.77,0,0,0,.695-.687l.331-.4c.1-.134.186-.269.277-.4a18.265,18.265,0,0,0,1.578-3.22c.419-1.04.8-2.047,1.259-2.953a7.42,7.42,0,0,1,1.582-2.273c.167-.106.313-.259.484-.364l.258-.157a1.082,1.082,0,0,1,.247-.131,1.745,1.745,0,0,0,.233-.094h.062a18.748,18.748,0,0,0,1.259,1.429,28.986,28.986,0,0,0,2.218,2.045c.764.654,1.557,1.284,2.368,1.891a27.979,27.979,0,0,0,2.547,1.713.178.178,0,0,0,.243-.247,29.558,29.558,0,0,0-1.775-2.5q-.935-1.2-1.946-2.324c-.593-.666-1.2-1.32-1.848-1.935l.662.124a34.5,34.5,0,0,1,5.935,1.842c2.257,1.288,6.053,3.375,7.273,3.253.324-.051.636-.095.964-.175a6.361,6.361,0,0,0,.975-.331l.454-.2c.142-.077.273-.157.411-.233.28-.153.528-.327.775-.5a32.277,32.277,0,0,0,2.663-2.146,22,22,0,0,1,2.546-1.953,7.015,7.015,0,0,1,2.859-1.135h0a.364.364,0,1,0,0-.728,7.152,7.152,0,0,0-3.488.626,20.333,20.333,0,0,0-3.03,1.677c-.943.611-1.848,1.237-2.739,1.735l-.364.189a19.578,19.578,0,0,0,.727-2.139c.222-.767.422-1.546.586-2.335a18.2,18.2,0,0,0,.364-2.426.183.183,0,0,0-.168-.193.194.194,0,0,0-.156.069,18.538,18.538,0,0,0-1.379,2.023q-.626,1.026-1.153,2.117a19.625,19.625,0,0,0-.949,2.182,12.528,12.528,0,0,0-.364,1.321c-.906,0-3.646-1.935-6.308-3.413a41.15,41.15,0,0,0-5.826-1.937,13.884,13.884,0,0,0-3.67-.415,5.849,5.849,0,0,0-1.055.145,4.122,4.122,0,0,0-.535.139c-.174.069-.36.138-.538.214a2.8,2.8,0,0,0-.488.255L98,76.79a10.3,10.3,0,0,0-.819.655A10.154,10.154,0,0,0,95,80.61c-.058.12-.106.24-.16.363h0c-.146-.84-.32-1.677-.531-2.513a21.429,21.429,0,0,0-.771-2.492h0a.184.184,0,0,0-.237-.1A.177.177,0,0,0,93.19,76a20.524,20.524,0,0,0-.324,2.59c-.058.859-.076,1.717-.076,2.568a22.09,22.09,0,0,0,.138,2.546,14.167,14.167,0,0,0,.277,1.543,11.729,11.729,0,0,1-.666,1.378l-.175.291-.189.251a4.1,4.1,0,0,1-.458.509,10.1,10.1,0,0,1-1.12.957,28.075,28.075,0,0,1-2.7,1.688c-.946.549-1.946,1.08-2.91,1.76a8.208,8.208,0,0,0-.728.535c-.233.2-.462.4-.687.618l-.317.364-.156.178-.138.186-.269.4c-.077.149-.142.3-.211.451a5.519,5.519,0,0,0-.3.854c-.084.281-.157.564-.215.852A7.745,7.745,0,0,0,81.783,98.244Z" fill="#04294f"/><path d="M58.859,105.6a13.282,13.282,0,0,0-.626-2.546c-.138-.411-.294-.811-.458-1.208a7.486,7.486,0,0,0-.68-1.218,12.014,12.014,0,0,0-1.753-2.008c-1.252-1.2-2.583-2.2-3.783-3.274l-.364-.324A12.89,12.89,0,0,0,52,93.571a20.665,20.665,0,0,0,.9-2.3c.269-.782.5-1.579.7-2.39a19.473,19.473,0,0,0,.48-2.488.172.172,0,0,0-.061-.156.18.18,0,0,0-.253,0l0,0a19.717,19.717,0,0,0-1.491,2.051c-.448.7-.873,1.419-1.263,2.146a21.751,21.751,0,0,0-1.065,2.234c-.1.258-.19.516-.277.782a12.013,12.013,0,0,1-1.146-1.579c-.094-.153-.16-.32-.243-.48a3.246,3.246,0,0,1-.219-.48l-.167-.477-.116-.516a11.269,11.269,0,0,1-.193-2.23c0-1.553.153-3.2.218-4.914a23.092,23.092,0,0,0-.029-2.644,12.506,12.506,0,0,0-.491-2.761,9.754,9.754,0,0,0-1.324-2.612A16.63,16.63,0,0,0,44.149,72.7c-.687-.666-1.389-1.27-2.077-1.855.219-.619.393-1.248.55-1.881.24-.993.4-2.008.549-3.023s.254-2.04.335-3.073A28.771,28.771,0,0,0,43.6,59.75a.172.172,0,0,0-.1-.153.18.18,0,0,0-.239.081v0a29.539,29.539,0,0,0-1.171,2.892c-.342.974-.655,1.956-.932,2.946a30.354,30.354,0,0,0-.727,2.99c-.047.269-.091.538-.131.811a18.526,18.526,0,0,1-1.59-1.568c-.265-.273-.462-.567-.687-.847l-.28-.44c-.047-.073-.1-.142-.138-.219l-.113-.222a9.039,9.039,0,0,1-.779-4.186c-.01-1.553.193-3.2.284-4.911a21.334,21.334,0,0,0-.018-2.64,10.157,10.157,0,0,0-.557-2.747,4.24,4.24,0,0,0-.272-.658c-.1-.211-.193-.433-.31-.633a11.723,11.723,0,0,0-.749-1.149,13.768,13.768,0,0,0-1.036-1.263,6.682,6.682,0,0,0,.363-1.273,10.7,10.7,0,0,0,.138-1.778,16.723,16.723,0,0,0-.072-1.819,11.5,11.5,0,0,0-.324-1.841.183.183,0,0,0-.084-.112.188.188,0,0,0-.258.069,11.016,11.016,0,0,0-.775,1.7,16.427,16.427,0,0,0-.523,1.732,11.576,11.576,0,0,0-.288,1.5c-.869-.785-1.749-1.52-2.575-2.291A19.48,19.48,0,0,1,27.963,42a8.561,8.561,0,0,1-1.255-1.982h0a.364.364,0,0,0-.677.229,8.479,8.479,0,0,0,1.063,2.408,20.356,20.356,0,0,0,1.567,2.051c1.128,1.273,2.288,2.455,3.332,3.678a10.893,10.893,0,0,1,2.3,3.873,10.154,10.154,0,0,1,.255,3.5q-.469-.251-.95-.48a25.294,25.294,0,0,0-2.579-1.018q-1.312-.454-2.666-.819a24.36,24.36,0,0,0-2.764-.593.183.183,0,0,0-.164.066.178.178,0,0,0,.024.251l0,0a24.5,24.5,0,0,0,2.328,1.6q1.19.727,2.423,1.378a25.879,25.879,0,0,0,2.513,1.179c.535.207,1.091.4,1.637.553-.135,1.251-.3,2.546-.364,3.892,0,.447-.033.887,0,1.349a4.35,4.35,0,0,0,.036.684l.084.7a9.048,9.048,0,0,0,.837,2.8l.163.338c.059.109.124.207.186.309.131.208.258.415.389.615.287.364.56.767.873,1.091a20.851,20.851,0,0,0,1.888,1.884c1.288,1.139,2.6,2.15,3.725,3.227a13.8,13.8,0,0,1,1.5,1.658,6.935,6.935,0,0,1,.935,1.819,9.8,9.8,0,0,1,.414,2.026c-.258-.094-.516-.189-.778-.276a23.6,23.6,0,0,0-2.575-.662c-.87-.182-1.75-.331-2.637-.455a22.929,22.929,0,0,0-2.707-.215.185.185,0,0,0-.156.084.182.182,0,0,0,.058.247,21.806,21.806,0,0,0,2.4,1.273q1.222.569,2.466,1.041a24.4,24.4,0,0,0,2.528.829c.495.124.99.229,1.495.309v.262c0,1.612-.16,3.274-.08,5.049a13.243,13.243,0,0,0,.364,2.717l.189.691.273.688a4.936,4.936,0,0,0,.32.643,6.048,6.048,0,0,0,.364.612,16.008,16.008,0,0,0,3.692,3.852c1.338,1.062,2.713,2,3.946,3a10.54,10.54,0,0,1,1.652,1.619,6.121,6.121,0,0,1,.611.909c.185.364.364.728.527,1.091a10.3,10.3,0,0,1,1.037,4.576.444.444,0,0,0,.88.077A9.6,9.6,0,0,0,58.859,105.6Z" fill="#04294f"/><path d="M78.908,33.2c-1.214.342-2.386.768-3.546,1.212s-2.3.927-3.43,1.429c-.837.364-1.666.757-2.481,1.168.131-.2.258-.4.386-.6a18.781,18.781,0,0,0,2.513-5.627,14.772,14.772,0,0,0,.306-3.1,27.112,27.112,0,0,0-.182-3c-.215-1.964-.611-3.859-.826-5.74a21.56,21.56,0,0,1-.2-2.8A11.231,11.231,0,0,1,71.79,13.4h0a.36.36,0,0,0-.68-.229,11.672,11.672,0,0,0-.757,2.91,22.747,22.747,0,0,0-.109,2.976c.029.985.1,1.96.164,2.91.029.4.054.8.08,1.2-.135-.145-.266-.294-.4-.436a31.885,31.885,0,0,0-2.357-2.244c-.811-.72-1.655-1.415-2.513-2.092a32.681,32.681,0,0,0-2.688-1.917.174.174,0,0,0-.186,0,.18.18,0,0,0-.055.237c.59.945,1.241,1.818,1.906,2.7s1.368,1.7,2.081,2.521,1.455,1.618,2.237,2.364c.393.364.8.728,1.219,1.091.283.24.582.466.883.684a16.915,16.915,0,0,1-.469,4.169,12.633,12.633,0,0,1-1.007,2.426,27.343,27.343,0,0,1-1.455,2.346c-1.041,1.564-2.219,3.114-3.274,4.823-.273.418-.516.873-.775,1.313a10.349,10.349,0,0,0-.68,1.408,13.336,13.336,0,0,0-.935,3.1,14.248,14.248,0,0,0-.1,3.23c.033.364.076.728.124,1.092l-.506-.492q-1-.948-2.066-1.84a24.615,24.615,0,0,0-2.251-1.673.187.187,0,0,0-.259.243,24.9,24.9,0,0,0,1.433,2.412q.768,1.157,1.615,2.244a25.262,25.262,0,0,0,1.775,2.1c.364.364.728.727,1.117,1.066.313,1.2.637,2.375.9,3.531.112.455.185.9.28,1.35a9.159,9.159,0,0,1,.182,1.328,10.734,10.734,0,0,1,0,2.546,16.38,16.38,0,0,1-1.7,5.03c-.811,1.674-1.8,3.336-2.663,5.14-.225.44-.418.917-.625,1.379l-.28.727-.139.364-.116.363a10.028,10.028,0,0,0-.291,1.015c-.153-.218-.306-.433-.466-.647-.425-.575-.873-1.131-1.353-1.67a15.634,15.634,0,0,0-1.564-1.535.2.2,0,0,0-.153-.04.186.186,0,0,0-.145.219,15.924,15.924,0,0,0,.618,2.106,20.079,20.079,0,0,0,.837,1.975,15.1,15.1,0,0,0,1.015,1.866,9.282,9.282,0,0,0,.895,1.167A19.13,19.13,0,0,0,59.012,85c.574,1.906,1.3,3.718,1.939,5.5a14.49,14.49,0,0,1,1.091,5.358,18.175,18.175,0,0,1-.9,5.518h0a.441.441,0,0,0,.815.335,17.834,17.834,0,0,0,1.473-5.762,11.056,11.056,0,0,0-.1-3.077,25.633,25.633,0,0,0-.677-2.91c-.531-1.895-1.164-3.707-1.608-5.522a16.708,16.708,0,0,1-.585-5.354,9.531,9.531,0,0,1,.585-2.5l.113-.312.131-.31.266-.622c.207-.411.389-.825.618-1.236.862-1.648,1.866-3.3,2.783-5.074.192-.364.363-.75.563-1.139a13.708,13.708,0,0,0,1.317-.727,21.769,21.769,0,0,0,2.041-1.506c.658-.535,1.3-1.092,1.917-1.684a20.465,20.465,0,0,0,1.778-1.888.185.185,0,0,0,.033-.168.178.178,0,0,0-.222-.118l-.007,0a20.574,20.574,0,0,0-2.4.978c-.771.364-1.528.761-2.262,1.183-.32.185-.64.363-.957.567.113-.44.211-.884.284-1.346a13.646,13.646,0,0,0,.04-3.219c-.033-.531-.135-1.029-.2-1.542s-.185-1-.3-1.484c-.437-1.95-.99-3.8-1.371-5.613a22.733,22.733,0,0,1-.444-2.67,11.411,11.411,0,0,1,.043-2.546,10.342,10.342,0,0,1,.728-2.44c.145-.408.364-.8.553-1.208a12.992,12.992,0,0,1,.658-1.2c.149-.255.309-.513.469-.768l.728-.28c.575-.236,1.135-.495,1.691-.764,1.113-.538,2.183-1.149,3.252-1.779s2.117-1.284,3.154-1.967,2.055-1.4,3.037-2.183a.17.17,0,0,0,.058-.185.173.173,0,0,0-.2-.147A.147.147,0,0,0,78.908,33.2Z" fill="#04294f"/><path d="M108.28,59.553a12.87,12.87,0,0,0-1.858-.789q-.931-.318-1.892-.542l-.265-.058a13.7,13.7,0,0,0,3.728-2.444.364.364,0,0,0-.455-.557h0a15.178,15.178,0,0,1-4,1.819c-1.415.465-2.91.807-4.365,1.277a18.294,18.294,0,0,0-4.437,1.9,6.289,6.289,0,0,0-.524.364,5.124,5.124,0,0,0-.513.393,8.579,8.579,0,0,0-.942.916l-.429.5-.364.528a9.659,9.659,0,0,0-.658,1.091,23.775,23.775,0,0,0-1.739,4.521c-.095.317-.182.63-.269.942-.211-.425-.44-.847-.673-1.265q-.615-1.092-1.328-2.183a20.882,20.882,0,0,0-1.553-2.073.181.181,0,0,0-.316.145,20.021,20.021,0,0,0,.553,2.528c.229.826.487,1.634.774,2.43a21.577,21.577,0,0,0,.975,2.335c.2.4.418.8.655,1.183-.026.08-.051.167-.08.247-.117.335-.248.658-.364.986a5.512,5.512,0,0,1-.433.916,6.433,6.433,0,0,1-.5.833c-.091.128-.167.266-.273.389l-.313.364a14.073,14.073,0,0,1-3.212,2.605c-1.229.782-2.546,1.509-3.9,2.324A22.65,22.65,0,0,0,76.8,82.931a6.432,6.432,0,0,0-.363-.887,12.753,12.753,0,0,0-.728-1.39,8.816,8.816,0,0,0-.953-1.32.2.2,0,0,0-.109-.059.194.194,0,0,0-.225.154v0a8.633,8.633,0,0,0-.105,1.622,12.131,12.131,0,0,0,.135,1.557,7.892,7.892,0,0,0,.338,1.495,6.012,6.012,0,0,0,.24.575,11.131,11.131,0,0,0-1.979,4.124,27.1,27.1,0,0,0-.727,4.729c-.135,1.539-.179,3.052-.386,4.474a9.854,9.854,0,0,1-.189,1.044,8.878,8.878,0,0,1-.273.989,3.964,3.964,0,0,1-.185.459c-.063.158-.133.314-.211.465-.175.32-.331.655-.524.961a15.321,15.321,0,0,1-1.2,1.8,12.051,12.051,0,0,1-1.455,1.55,13.261,13.261,0,0,1-1.775,1.265c-.636.4-1.317.786-1.957,1.266a.44.44,0,0,0,.484.728h0c.629-.364,1.317-.655,2.019-.982a13.282,13.282,0,0,0,2.08-1.179,11.96,11.96,0,0,0,1.819-1.6,17.454,17.454,0,0,0,1.531-1.848c.237-.32.433-.662.652-1a5.131,5.131,0,0,0,.305-.553,5.019,5.019,0,0,0,.28-.582,11.1,11.1,0,0,0,.415-1.19c.123-.4.207-.793.294-1.185.2-.968.335-1.914.451-2.845a5.835,5.835,0,0,0,.764-.164,8.12,8.12,0,0,0,1.455-.589,13.662,13.662,0,0,0,1.386-.793,9.188,9.188,0,0,0,1.3-1.033.187.187,0,0,0,.055-.113.192.192,0,0,0-.167-.214,9.057,9.057,0,0,0-1.663,0,13.963,13.963,0,0,0-1.578.222,8.924,8.924,0,0,0-1.248.331,22.444,22.444,0,0,1,.753-3.638c.091-.338.236-.647.346-.971s.28-.611.414-.917a4.784,4.784,0,0,1,.513-.836,6.155,6.155,0,0,1,.6-.728,14.673,14.673,0,0,1,3.343-2.466c1.266-.756,2.619-1.48,3.968-2.324a16.779,16.779,0,0,0,3.871-3.15l.425-.5c.138-.171.255-.364.382-.546a9.915,9.915,0,0,0,.662-1.131,11,11,0,0,0,.531-1.157c.168-.385.291-.771.419-1.156.494-1.543.836-3.048,1.189-4.5a21.659,21.659,0,0,1,1.342-4.1A7.5,7.5,0,0,1,96,62.027a18.489,18.489,0,0,1,3.8-2l.942-.363a7.315,7.315,0,0,0,1.615.458,12.857,12.857,0,0,0,1.939.156c.651,0,1.306,0,1.964-.058a13.322,13.322,0,0,0,2-.3.2.2,0,0,0,.117-.091.189.189,0,0,0-.067-.259Z" fill="#04294f"/></g></g></svg></g></svg>