<svg width="24" height="24" viewBox="0 0 24 24" fill="none" xmlns="http://www.w3.org/2000/svg">
<path d="M20.6627 1.37083C20.6604 1.02566 20.3787 0.747711 20.0336 0.750014C19.6884 0.752318 19.4104 1.034 19.4127 1.37917L19.4275 3.59405C18.1401 2.47278 16.6093 1.65383 14.9473 1.20741C12.7784 0.624797 10.4848 0.703198 8.3607 1.43256C6.23659 2.16193 4.37869 3.50902 3.02516 5.30116C1.67162 7.0933 0.884114 9.24882 0.76361 11.4914L0.763435 11.4951C0.721159 12.3789 0.778736 13.2646 0.93506 14.1354C0.996047 14.4751 1.32091 14.7011 1.66065 14.6401C2.0004 14.5792 2.22638 14.2543 2.16539 13.9145C2.02579 13.1368 1.9743 12.3459 2.01192 11.5567C2.11939 9.56335 2.81953 7.64748 4.02263 6.05451C5.22611 4.46106 6.87803 3.26331 8.76666 2.61481C10.6553 1.9663 12.6946 1.89659 14.623 2.41461C16.0863 2.80766 17.4352 3.52546 18.5728 4.50744L17.5596 4.51251C17.5347 4.51263 17.5102 4.51421 17.486 4.51716L16.3086 4.52501C15.9634 4.52732 15.6855 4.809 15.6878 5.15417C15.6901 5.49934 15.9717 5.77729 16.3169 5.77499L20.0659 5.74999C20.2316 5.74916 20.3903 5.68252 20.5069 5.56472C20.6235 5.44693 20.6886 5.28763 20.6877 5.12187L20.6752 2.62187C20.6751 2.59696 20.6735 2.57239 20.6706 2.54825L20.6627 1.37083Z" fill="#0062E1"/>
<path d="M6.44099 19.6124C6.46593 19.6123 6.49052 19.6107 6.51468 19.6078L7.69201 19.5999C8.03718 19.5976 8.31513 19.3159 8.31283 18.9708C8.31053 18.6256 8.02885 18.3477 7.68368 18.35L3.93474 18.375C3.77159 18.3758 3.62335 18.439 3.51256 18.542C3.50591 18.5481 3.49938 18.5545 3.49299 18.561C3.37656 18.679 3.31177 18.8373 3.31287 19.0031L3.32537 21.5031C3.32549 21.528 3.32707 21.5526 3.33003 21.5768L3.33789 22.7541C3.34019 23.0993 3.62187 23.3772 3.96704 23.3749C4.31221 23.3726 4.59016 23.091 4.58786 22.7458L4.57309 20.5309C5.86052 21.6522 7.39132 22.4711 9.05329 22.9175C11.2222 23.5002 13.5158 23.4218 15.6399 22.6924C17.764 21.963 19.6219 20.6159 20.9755 18.8238C22.329 17.0316 23.1165 14.8761 23.237 12.6335L23.2372 12.6298C23.2794 11.7461 23.2219 10.8604 23.0655 9.98955C23.0045 9.6498 22.6797 9.42382 22.3399 9.48481C22.0002 9.5458 21.7742 9.87066 21.8352 10.2104C21.9748 10.9881 22.0263 11.779 21.9887 12.5682C21.8812 14.5616 21.1811 16.4775 19.978 18.0704C18.7745 19.6639 17.1226 20.8616 15.234 21.5101C13.3453 22.1586 11.3061 22.2284 9.37756 21.7103C7.91432 21.3173 6.56544 20.5995 5.42777 19.6175L6.44099 19.6124Z" fill="#0062E1"/>
</svg>
