<svg width="303" height="295" viewBox="0 0 303 295" fill="none" xmlns="http://www.w3.org/2000/svg">
<g clip-path="url(#clip0_6_1491)">
<path d="M191.859 66.3442H110.425C108.569 66.3465 106.79 67.0846 105.478 68.3968C104.165 69.709 103.427 71.4881 103.425 73.3438V254.332L102.492 254.616L82.5147 260.734C81.5679 261.023 80.5453 260.924 79.6713 260.459C78.7973 259.995 78.1434 259.202 77.853 258.256L18.4305 64.1556C18.1413 63.2089 18.2399 62.186 18.7045 61.3118C19.1691 60.4377 19.9618 59.7838 20.9084 59.4939L51.693 50.0677L140.939 22.7503L171.723 13.3241C172.191 13.1799 172.684 13.1295 173.172 13.1758C173.66 13.2221 174.134 13.3642 174.567 13.5939C175 13.8237 175.383 14.1365 175.695 14.5146C176.007 14.8927 176.242 15.3286 176.385 15.7973L191.574 65.4109L191.859 66.3442Z" fill="#CCD6EE"/>
<path d="M209.629 65.4114L191.322 5.61562C191.018 4.61931 190.52 3.69278 189.857 2.88898C189.194 2.08517 188.38 1.41985 187.46 0.931018C186.54 0.442189 185.532 0.139432 184.495 0.0400609C183.458 -0.0593103 182.412 0.0466508 181.416 0.351878L138.134 13.5999L48.8935 40.9219L5.61228 54.1746C3.60167 54.792 1.91815 56.1819 0.931263 58.0393C-0.0556231 59.8966 -0.265252 62.0697 0.3484 64.0814L62.916 268.439C63.4145 270.063 64.4204 271.484 65.786 272.494C67.1516 273.505 68.8051 274.051 70.5038 274.052C71.29 274.053 72.0718 273.935 72.8229 273.703L102.492 264.622L103.425 264.332V263.357L102.492 263.642L72.5476 272.811C70.7729 273.352 68.856 273.167 67.2175 272.297C65.579 271.426 64.3526 269.942 63.8074 268.168L1.24455 63.8061C0.974403 62.9274 0.88025 62.004 0.967478 61.0888C1.05471 60.1737 1.32159 59.2847 1.75287 58.4728C2.18416 57.6609 2.77136 56.9421 3.48084 56.3575C4.19033 55.7729 5.00816 55.334 5.88752 55.0659L49.1687 41.8132L138.41 14.4959L181.691 1.24318C182.358 1.03963 183.051 0.93584 183.749 0.93519C185.245 0.938551 186.702 1.42104 187.904 2.31199C189.107 3.20293 189.992 4.45552 190.431 5.88628L208.654 65.4114L208.943 66.3447H209.914L209.629 65.4114Z" fill="#015AEC"/>
<path d="M57.2482 59.6464C56.3488 59.6458 55.4733 59.3569 54.7501 58.8222C54.0269 58.2875 53.4941 57.5352 53.2298 56.6755L47.2193 37.0429C47.0577 36.5156 47.0017 35.9615 47.0543 35.4125C47.1069 34.8635 47.2672 34.3302 47.526 33.8431C47.7847 33.3561 48.1369 32.9247 48.5624 32.5738C48.9878 32.2228 49.4783 31.9591 50.0057 31.7977L132.107 6.66254C133.172 6.33753 134.322 6.44838 135.305 6.97074C136.289 7.4931 137.025 8.38429 137.352 9.44873L143.362 29.0815C143.687 30.1465 143.576 31.297 143.054 32.2803C142.532 33.2637 141.641 33.9997 140.576 34.3269L58.4752 59.4621C58.0776 59.5841 57.6641 59.6462 57.2482 59.6464Z" fill="#0033A1"/>
<path d="M88.7338 20.9783C93.8882 20.9783 98.0666 16.7998 98.0666 11.6454C98.0666 6.49097 93.8882 2.3125 88.7338 2.3125C83.5793 2.3125 79.4009 6.49097 79.4009 11.6454C79.4009 16.7998 83.5793 20.9783 88.7338 20.9783Z" fill="#0033A1"/>
<path d="M88.7341 17.5551C91.998 17.5551 94.644 14.9091 94.644 11.6452C94.644 8.38129 91.998 5.73535 88.7341 5.73535C85.4702 5.73535 82.8242 8.38129 82.8242 11.6452C82.8242 14.9091 85.4702 17.5551 88.7341 17.5551Z" fill="white"/>
<path d="M281.216 271.668H123.491C122.439 271.667 121.431 271.248 120.687 270.505C119.944 269.761 119.526 268.753 119.524 267.701V78.7106C119.526 77.659 119.944 76.6508 120.687 75.9072C121.431 75.1636 122.439 74.7453 123.491 74.7441H281.216C282.268 74.7454 283.276 75.1636 284.02 75.9072C284.763 76.6508 285.182 77.659 285.183 78.7106V267.701C285.182 268.753 284.763 269.761 284.02 270.505C283.276 271.248 282.268 271.667 281.216 271.668Z" fill="#CCD6EE"/>
<path d="M208.653 65.4111H110.425C108.322 65.4141 106.306 66.2509 104.818 67.7379C103.331 69.225 102.495 71.241 102.492 73.3441V263.641L103.425 263.357V73.3441C103.427 71.4883 104.165 69.7093 105.478 68.3971C106.79 67.0849 108.569 66.3467 110.425 66.3444H208.943L208.653 65.4111ZM294.282 65.4111H110.425C108.322 65.4141 106.306 66.2509 104.818 67.7379C103.331 69.225 102.495 71.241 102.492 73.3441V287.067C102.495 289.17 103.331 291.186 104.818 292.673C106.306 294.16 108.322 294.997 110.425 295H294.282C296.385 294.997 298.401 294.16 299.888 292.673C301.376 291.186 302.212 289.17 302.215 287.067V73.3441C302.212 71.241 301.376 69.225 299.888 67.7379C298.401 66.2509 296.385 65.4141 294.282 65.4111ZM301.282 287.067C301.28 288.923 300.542 290.702 299.229 292.014C297.917 293.326 296.138 294.064 294.282 294.067H110.425C108.569 294.064 106.79 293.326 105.478 292.014C104.165 290.702 103.427 288.923 103.425 287.067V73.3441C103.427 71.4883 104.165 69.7093 105.478 68.3971C106.79 67.0849 108.569 66.3467 110.425 66.3444H294.282C296.138 66.3467 297.917 67.0849 299.229 68.3971C300.542 69.7093 301.28 71.4883 301.282 73.3441V287.067Z" fill="#015AEC"/>
<path d="M245.285 85.9436H159.422C158.309 85.9424 157.241 85.4995 156.454 84.7122C155.667 83.9248 155.224 82.8573 155.223 81.7438V61.2115C155.224 60.098 155.667 59.0305 156.454 58.2432C157.241 57.4559 158.309 57.013 159.422 57.0117H245.285C246.398 57.013 247.466 57.4559 248.253 58.2432C249.041 59.0305 249.483 60.098 249.485 61.2115V81.7438C249.483 82.8573 249.041 83.9248 248.253 84.7122C247.466 85.4995 246.398 85.9424 245.285 85.9436Z" fill="#0033A1"/>
<path d="M202.354 58.4118C207.508 58.4118 211.687 54.2334 211.687 49.079C211.687 43.9246 207.508 39.7461 202.354 39.7461C197.199 39.7461 193.021 43.9246 193.021 49.079C193.021 54.2334 197.199 58.4118 202.354 58.4118Z" fill="#0033A1"/>
<path d="M202.354 54.7637C205.493 54.7637 208.038 52.2186 208.038 49.0791C208.038 45.9396 205.493 43.3945 202.354 43.3945C199.214 43.3945 196.669 45.9396 196.669 49.0791C196.669 52.2186 199.214 54.7637 202.354 54.7637Z" fill="white"/>
</g>
<defs>
<clipPath id="clip0_6_1491">
<rect width="302.215" height="295" fill="white"/>
</clipPath>
</defs>
</svg>
