<svg width="31" height="31" viewBox="0 0 31 31" fill="none" xmlns="http://www.w3.org/2000/svg">
<path fill-rule="evenodd" clip-rule="evenodd" d="M19.8658 26.7123L14.1179 15.4232C14.7535 15.0015 15.4994 14.7769 16.2621 14.7773C17.8896 14.7773 19.0521 15.8752 20.7829 15.8752C22.2158 15.6898 23.5699 15.1133 24.6967 14.209V12.7881C24.6967 11.3544 24.5417 9.76565 24.4383 8.3319C23.1372 9.13473 21.6259 9.53055 20.0983 9.46857C17.6442 9.3394 16.2233 7.98315 14.1954 7.8669C12.9397 7.78421 11.6862 8.0573 10.5787 8.65482V7.50523C10.5793 7.41623 10.5599 7.32823 10.5219 7.24775C10.4839 7.16726 10.4283 7.09635 10.3592 7.04023L8.08583 5.34815C8.03083 5.33334 7.9729 5.33334 7.91791 5.34815C7.88122 5.3464 7.84455 5.35212 7.81014 5.36497C7.77572 5.37782 7.74427 5.39752 7.7177 5.42288C7.69113 5.44825 7.66999 5.47874 7.65555 5.51253C7.64112 5.54631 7.6337 5.58267 7.63374 5.6194V8.39648C7.63752 8.48417 7.66026 8.56999 7.70039 8.64803C7.74053 8.72608 7.79712 8.7945 7.86624 8.84857L8.78333 9.52023L18.0575 27.6036C17.3841 27.9127 16.6942 28.1844 15.9908 28.4173C10.54 26.6219 5.91583 22.734 5.24416 16.5211C5.15207 12.6134 5.32036 8.70389 5.74791 4.81857C5.74061 4.51998 5.83702 4.2281 6.02071 3.99259C6.2044 3.75709 6.46403 3.59252 6.75541 3.5269C9.7951 2.90778 12.8887 2.59192 15.9908 2.58398C19.0946 2.60892 22.1883 2.94209 25.2262 3.57857C25.5176 3.64419 25.7773 3.80875 25.9609 4.04426C26.1446 4.27976 26.241 4.57165 26.2337 4.87023C26.6613 8.75556 26.8296 12.665 26.7375 16.5727C26.4903 18.6904 25.7367 20.7173 24.5407 22.4822C23.3446 24.2471 21.7411 25.698 19.8658 26.7123ZM24.7096 16.1982V16.2886C24.5542 17.7401 24.1067 19.1452 23.3942 20.4194C22.6816 21.6935 21.7187 22.8104 20.5633 23.7027L17.36 17.5673C17.1962 17.2626 16.9772 16.9911 16.7142 16.7665C17.972 17.3762 19.3363 17.7359 20.7312 17.8257C22.1732 17.7519 23.5441 17.1762 24.6062 16.1982H24.7096ZM10.2687 5.16732C12.1627 4.87714 14.0749 4.72175 15.9908 4.70232C18.7364 4.71676 21.4742 4.99358 24.1671 5.52898L24.2704 6.51065C23.0001 7.25533 21.544 7.62272 20.0725 7.56982C17.6183 7.44065 16.275 6.17482 14.2342 6.07148C13.5185 6.03733 12.8023 6.12467 12.1158 6.32982L10.23 5.16732H10.2687ZM7.41416 10.7732L14.8929 25.7306L14.3633 25.4852C12.4859 24.7088 10.8477 23.4487 9.61564 21.8332C8.3836 20.2177 7.6017 18.3045 7.34958 16.2886C7.24548 14.4508 7.26706 12.608 7.41416 10.7732Z" fill="#001648"/>
</svg>
