<svg width="40" height="40" viewBox="0 0 40 40" fill="none" xmlns="http://www.w3.org/2000/svg">
<circle cx="20" cy="20" r="19.5" stroke="#0062E1"/>
<path fill-rule="evenodd" clip-rule="evenodd" d="M18 11C14.134 11 11 14.134 11 18C11 21.866 14.134 25 18 25C19.7558 25 21.3607 24.3535 22.5895 23.2856C22.6062 23.3095 22.6251 23.3323 22.6464 23.3536L27.6464 28.3536C27.8417 28.5488 28.1583 28.5488 28.3536 28.3536C28.5488 28.1583 28.5488 27.8417 28.3536 27.6464L23.3536 22.6464C23.3323 22.6251 23.3095 22.6062 23.2856 22.5895C24.3535 21.3607 25 19.7558 25 18C25 14.134 21.866 11 18 11ZM12 18C12 14.6863 14.6863 12 18 12C21.3137 12 24 14.6863 24 18C24 21.3137 21.3137 24 18 24C14.6863 24 12 21.3137 12 18Z" fill="#0062E1"/>
</svg>
